<?xml version="1.0" standalone="no"?>
<!DOCTYPE svg PUBLIC "-//W3C//DTD SVG 1.1//EN" "http://www.w3.org/Graphics/SVG/1.1/DTD/svg11.dtd" >
<svg xmlns="http://www.w3.org/2000/svg" xmlns:xlink="http://www.w3.org/1999/xlink" version="1.1">
<metadata>
Created by FontForge 20200427 at Mon Nov  2 22:07:09 2015
 By www
Copyright 2015 Indian Type Foundry
</metadata>
<defs>
<font id="WeissenhofGrotesk-Medium" horiz-adv-x="637" >
  <font-face 
    font-family="Weissenhof Grotesk Medium"
    font-weight="500"
    font-stretch="normal"
    units-per-em="1000"
    panose-1="0 0 0 0 0 0 0 0 0 0"
    ascent="750"
    descent="-250"
    x-height="500"
    cap-height="700"
    bbox="-243 -282 1188 962"
    underline-thickness="50"
    underline-position="-75"
    unicode-range="U+0020-FB02"
  />
<missing-glyph horiz-adv-x="230" 
 />
    <glyph glyph-name="fi" unicode="fi" horiz-adv-x="594" 
d="M468 576q-28 0 -46.5 18t-18.5 47t18.5 47t46.5 18q29 0 47.5 -18t18.5 -47t-18.5 -47t-47.5 -18zM499 500q10 0 17 -7t7 -17v-453q0 -10 -7 -16.5t-17 -6.5h-61q-10 0 -16.5 6.5t-6.5 16.5v382h-212v-382q0 -10 -7 -16.5t-17 -6.5h-61q-10 0 -16.5 6.5t-6.5 16.5v382
h-69q-10 0 -16.5 6.5t-6.5 16.5v48q0 10 6.5 17t16.5 7h69v21q0 98 40 138.5t135 40.5h26q10 0 16.5 -7t6.5 -17v-49q0 -10 -6.5 -16.5t-16.5 -6.5h-26q-42 0 -54.5 -16t-12.5 -66v-22h254h42z" />
    <glyph glyph-name="fl" unicode="fl" horiz-adv-x="592" 
d="M499 700q10 0 17 -7t7 -17v-653q0 -10 -7 -16.5t-17 -6.5h-61q-10 0 -16.5 6.5t-6.5 16.5v581h-145q-42 0 -54.5 -16t-12.5 -66v-22h93q10 0 16.5 -7t6.5 -17v-48q0 -10 -6.5 -16.5t-16.5 -6.5h-93v-382q0 -10 -7 -16.5t-17 -6.5h-61q-10 0 -16.5 6.5t-6.5 16.5v382h-69
q-10 0 -16.5 6.5t-6.5 16.5v48q0 10 6.5 17t16.5 7h69v21q0 98 40 138.5t135 40.5h195h34z" />
    <glyph glyph-name=".notdef" horiz-adv-x="230" 
 />
    <glyph glyph-name=".null" horiz-adv-x="0" 
 />
    <glyph glyph-name="nonmarkingreturn" horiz-adv-x="333" 
 />
    <glyph glyph-name="space" unicode=" " horiz-adv-x="230" 
 />
    <glyph glyph-name="exclam" unicode="!" horiz-adv-x="249" 
d="M93 203q-10 0 -16.5 7t-6.5 17v449q0 10 6.5 17t16.5 7h61q10 0 16.5 -7t6.5 -17v-449q0 -10 -6.5 -17t-16.5 -7h-61zM124 133q32 0 51.5 -19.5t19.5 -51.5q0 -31 -19.5 -50.5t-51.5 -19.5t-51 19t-19 51t19.5 51.5t50.5 19.5z" />
    <glyph glyph-name="quotedbl" unicode="&#x22;" horiz-adv-x="407" 
d="M97 409q-19 0 -23 23l-20 124q-1 11 -1 29v91q0 10 6.5 17t16.5 7h60q10 0 17 -7t7 -17v-91q0 -17 -2 -29l-19 -124q-4 -23 -24 -23h-18zM291 409q-19 0 -23 23l-20 124q-1 11 -1 29v91q0 10 6.5 17t16.5 7h61q10 0 16.5 -7t6.5 -17v-91q0 -17 -2 -29l-19 -124
q-4 -23 -23 -23h-19z" />
    <glyph glyph-name="numbersign" unicode="#" horiz-adv-x="682" 
d="M362 0q-7 0 -12 5t-5 12q0 5 4 20l26 143h-137l-29 -158q-3 -22 -25 -22h-45q-16 0 -16 16q0 10 3 21l26 143h-74q-10 0 -16.5 6.5t-6.5 16.5v43q0 10 6.5 16.5t16.5 6.5h91l28 142h-83q-10 0 -16.5 6.5t-6.5 16.5v42q0 10 6.5 17t16.5 7h100l30 162q5 18 24 18h45
q16 0 16 -17q0 -3 -2 -15l-28 -148h137l31 162q3 18 24 18h44q17 0 17 -17q0 -5 -2 -15l-29 -148h83q10 0 16.5 -7t6.5 -17v-42q0 -10 -6.5 -16.5t-16.5 -6.5h-100l-26 -142h89q10 0 17 -6.5t7 -16.5v-43q0 -10 -7 -16.5t-17 -6.5h-106l-29 -158q-6 -22 -25 -22h-45z
M255 269h137l27 142h-137z" />
    <glyph glyph-name="dollar" unicode="$" horiz-adv-x="592" 
d="M546 190q0 -90 -56.5 -138.5t-144.5 -58.5v-88q0 -10 -7 -16.5t-17 -6.5h-40q-10 0 -16.5 6.5t-6.5 16.5v87q-106 12 -161 77t-55 136q0 10 6.5 16.5t16.5 6.5h60q9 0 15 -6.5t7 -14.5q2 -17 7.5 -34t20.5 -39t47 -35.5t77 -13.5q140 0 140 105q0 37 -28 61t-70 34.5
t-91.5 26.5t-91.5 34.5t-70 60.5t-28 104q0 83 51.5 131t146.5 56v97q0 8 5.5 13.5t13.5 5.5h49q8 0 13.5 -6t5.5 -13v-98q94 -11 140.5 -64.5t46.5 -119.5q0 -10 -7 -16.5t-17 -6.5h-60q-20 0 -24 21q-14 94 -125 94q-65 0 -98.5 -20.5t-33.5 -73.5q0 -38 28 -62.5t70 -35
t91.5 -26t91.5 -34t70 -60.5t28 -103z" />
    <glyph glyph-name="percent" unicode="%" horiz-adv-x="846" 
d="M34 538q0 83 44.5 126.5t116.5 43.5t116 -43.5t44 -126.5v-27q0 -82 -44 -125.5t-117 -43.5q-71 0 -115.5 43.5t-44.5 125.5v27zM210 0q-16 0 -16 16q0 8 5 19l358 650q7 15 22 15h55q16 0 16 -17q0 -5 -6 -19l-354 -645q-8 -19 -24 -19h-56zM121 512q0 -90 73 -90
q74 0 74 90v26q0 91 -73 91q-74 0 -74 -91v-26zM491 188q0 82 44 126t116 44t116.5 -44t44.5 -126v-27q0 -82 -44.5 -125.5t-116.5 -43.5t-116 43t-44 126v27zM578 161q0 -90 73 -90q74 0 74 90v27q0 90 -74 90q-73 0 -73 -90v-27z" />
    <glyph glyph-name="ampersand" unicode="&#x26;" horiz-adv-x="620" 
d="M455 51q-75 -61 -172 -61q-65 0 -113 18t-72.5 48t-36 61.5t-11.5 64.5q0 61 31 105t90 85q-26 33 -39 51.5t-27 52t-14 65.5q0 87 57 128t136 41q80 0 132.5 -45.5t52.5 -120.5q0 -63 -41 -104.5t-118 -85.5l133 -150q21 56 21 131q0 10 6.5 16.5t16.5 6.5h52
q10 0 17 -6.5t7 -16.5q-4 -132 -49 -213l74 -84q12 -14 12 -22q0 -16 -16 -16h-72q-12 0 -19 9zM251 421q29 16 46 26.5t35.5 26t27 32.5t8.5 37q0 39 -23 59t-61 20q-44 0 -68.5 -21.5t-24.5 -58.5q0 -58 60 -121zM391 123l-161 181q-40 -30 -59.5 -56t-19.5 -60
q0 -46 33.5 -75t98.5 -29q60 0 108 39z" />
    <glyph glyph-name="quotesingle" unicode="'" horiz-adv-x="212" 
d="M97 409q-19 0 -23 23l-20 124q-1 11 -1 29v91q0 10 6.5 17t16.5 7h60q10 0 17 -7t7 -17v-91q0 -17 -2 -29l-19 -124q-4 -23 -24 -23h-18z" />
    <glyph glyph-name="parenleft" unicode="(" horiz-adv-x="316" 
d="M278 819q4 1 9 1q16 0 16 -16v-66q0 -16 -23 -23q-61 -21 -88.5 -69t-27.5 -133v-336q0 -164 116 -202q23 -7 23 -24v-65q0 -16 -16 -16q-3 0 -9 2q-218 51 -218 305v336q0 253 218 306z" />
    <glyph glyph-name="parenright" unicode=")" horiz-adv-x="316" 
d="M256 513v-336q0 -255 -217 -305q-8 -2 -10 -2q-16 0 -16 16v65q0 18 24 24q115 37 115 202v336q0 85 -27.5 133t-87.5 69q-24 7 -24 23v66q0 16 16 16q5 0 9 -1q218 -53 218 -306z" />
    <glyph glyph-name="asterisk" unicode="*" horiz-adv-x="430" 
d="M354 393q7 -10 -3 -17l-51 -36q-8 -6 -16 4l-64 93l-65 -93q-8 -10 -16 -4l-51 36q-10 7 -3 17l67 96l-110 41q-9 4 -6 14l21 59q5 11 15 7l102 -37v116q0 11 12 11h62q11 0 11 -11v-117l104 38q11 4 15 -7l21 -57q3 -11 -7 -15l-107 -40z" />
    <glyph glyph-name="plus" unicode="+" horiz-adv-x="612" 
d="M276 100q-10 0 -16.5 6.5t-6.5 16.5v177h-169q-10 0 -16.5 6.5t-6.5 16.5v54q0 10 6.5 17t16.5 7h169v175q0 10 6.5 17t16.5 7h59q10 0 17 -7t7 -17v-175h168q10 0 17 -7t7 -17v-54q0 -10 -7 -16.5t-17 -6.5h-168v-177q0 -10 -7 -16.5t-17 -6.5h-59z" />
    <glyph glyph-name="comma" unicode="," horiz-adv-x="248" 
d="M124 133q74 0 74 -96q0 -52 -17 -93.5t-40.5 -63t-44 -32.5t-32.5 -11q-9 0 -9 13v43q0 9 2.5 13t11.5 9q24 14 33 32t12 46q-28 3 -44.5 22t-16.5 48q0 31 20 50.5t51 19.5z" />
    <glyph glyph-name="hyphen" unicode="-" horiz-adv-x="380" 
d="M332 273q0 -10 -7 -16.5t-17 -6.5h-236q-10 0 -16.5 6.5t-6.5 16.5v56q0 10 6.5 17t16.5 7h236q10 0 17 -7t7 -17v-56z" />
    <glyph glyph-name="period" unicode="." horiz-adv-x="248" 
d="M124 133q32 0 51.5 -19.5t19.5 -51.5q0 -31 -19.5 -50.5t-51.5 -19.5t-51.5 19.5t-19.5 50.5q0 32 19.5 51.5t51.5 19.5z" />
    <glyph glyph-name="slash" unicode="/" horiz-adv-x="449" 
d="M39 0q-17 0 -17 16q0 7 5 19l295 650q8 15 23 15h66q16 0 16 -17q0 -6 -4 -15l-294 -649q-8 -19 -24 -19h-66z" />
    <glyph glyph-name="zero" unicode="0" horiz-adv-x="579" 
d="M57 419q0 132 58.5 206.5t174.5 74.5q115 0 173.5 -74.5t58.5 -206.5v-147q0 -132 -58.5 -207t-174.5 -75t-174 75t-58 207v147zM158 269q0 -90 31 -136t100 -46q132 0 132 182v151q0 183 -131 183q-132 0 -132 -183v-151z" />
    <glyph glyph-name="one" unicode="1" horiz-adv-x="426" 
d="M406 23q0 -10 -7 -16.5t-17 -6.5h-325q-10 0 -16.5 6.5t-6.5 16.5v48q0 10 6.5 17t16.5 7h118v413h-118q-9 0 -16 6.5t-7 16.5v42q0 10 6.5 16.5t16.5 6.5q52 0 77.5 20t39.5 54q9 20 31 20h48q10 0 17 -7t7 -17v-571h105q10 0 17 -7t7 -17v-48z" />
    <glyph glyph-name="two" unicode="2" horiz-adv-x="513" 
d="M384 322q82 91 82 182q0 32 -10 63.5t-32.5 62.5t-66 50.5t-101.5 19.5q-56 0 -98 -17.5t-63 -41t-34 -53.5t-16 -48t-3 -32q0 -10 7 -17t17 -7h54q10 0 16.5 7t6.5 17q0 45 33 71t78 26q47 0 77 -27t30 -74q0 -59 -68 -134l-232 -255q-21 -21 -21 -44v-48
q0 -10 6.5 -16.5t16.5 -6.5h388q10 0 16.5 6.5t6.5 16.5v52q0 10 -6.5 16.5t-16.5 6.5h-275z" />
    <glyph glyph-name="three" unicode="3" horiz-adv-x="542" 
d="M398 357q93 -49 93 -171q0 -32 -12 -64t-37 -62.5t-71.5 -50t-108.5 -19.5q-58 0 -102.5 18t-69 46.5t-37 59t-13.5 60.5q-1 10 6 17t17 7h54q18 0 24 -23q9 -48 43 -69t78 -21q60 0 91.5 31t31.5 81q0 109 -115 109h-42q-10 0 -16.5 7t-6.5 17v47q0 10 6.5 16.5
t16.5 6.5h42q46 0 77 27t31 74q0 55 -33.5 79.5t-82.5 24.5q-44 0 -77.5 -22t-39.5 -68q-4 -23 -24 -23h-54q-10 0 -17 7t-6 16q2 32 15 62t38 59t69 46.5t102 17.5q107 0 160.5 -57t53.5 -133q0 -103 -84 -153z" />
    <glyph glyph-name="four" unicode="4" horiz-adv-x="552" 
d="M532 157q0 -10 -7 -16.5t-17 -6.5h-77v-111q0 -10 -7 -16.5t-17 -6.5h-52q-10 0 -17 6.5t-7 16.5v111h-286q-10 0 -16.5 6.5t-6.5 16.5v51q0 18 8 29l278 436q12 17 28 17h71q10 0 17 -7t7 -17v-440h77q10 0 17 -7t7 -17v-45zM331 551l-204 -325h204v325z" />
    <glyph glyph-name="five" unicode="5" horiz-adv-x="541" 
d="M496 233v8q0 107 -60 163t-149 56q-73 0 -127 -43l14 175h263q10 0 16.5 6.5t6.5 16.5v51q0 10 -6.5 17t-16.5 7h-330q-22 0 -23 -24l-24 -350q-1 -10 6 -16.5t17 -6.5h38q12 0 32 17q19 18 31 27.5t37 20t54 10.5q54 0 86.5 -38t32.5 -90v-7q0 -67 -29.5 -109t-93.5 -42
q-80 0 -115 80q-5 8 -7 11.5t-7.5 7t-13.5 3.5h-59q-17 0 -17 -17q1 -13 7 -31.5t21.5 -45t38.5 -48t62 -37t88 -15.5q115 0 171 72.5t56 170.5z" />
    <glyph glyph-name="six" unicode="6" horiz-adv-x="559" 
d="M59 221v207q0 128 58.5 200t171.5 72q96 0 154 -53.5t58 -119.5q0 -18 -18 -18h-62q-14 0 -16 10q-8 42 -39.5 64t-79.5 22q-126 0 -126 -170v-46q16 21 52.5 38t79.5 17q103 0 162.5 -62t59.5 -159v-4q0 -99 -64 -164t-164 -65q-104 0 -165.5 63.5t-61.5 167.5zM160 223
v-4q0 -65 35 -100t91 -35t91 35t35 100v4q0 58 -35.5 92.5t-90.5 34.5q-54 0 -90 -35t-36 -92z" />
    <glyph glyph-name="seven" unicode="7" horiz-adv-x="475" 
d="M425 690q11 0 17.5 -7t6.5 -17v-39q0 -22 -15 -55l-234 -552q-8 -20 -28 -20h-65q-17 0 -17 16q0 7 4 15l245 564h-300q-10 0 -16.5 6.5t-6.5 16.5v48q0 10 6.5 17t16.5 7h386z" />
    <glyph glyph-name="eight" unicode="8" horiz-adv-x="575" 
d="M67 515q0 81 58 133t163 52t162.5 -52t57.5 -133v-10q0 -102 -82 -145q44 -21 71 -61.5t27 -93.5v-14q0 -98 -66.5 -149.5t-169.5 -51.5t-169.5 51.5t-66.5 149.5v14q0 54 28 95.5t69 60.5q-37 18 -59.5 58t-22.5 86v10zM169 499q0 -47 32.5 -71.5t86.5 -24.5
q55 0 86.5 24.5t31.5 71.5v10q0 98 -118 98q-55 0 -87 -24.5t-32 -73.5v-10zM154 191q0 -53 37.5 -80.5t96.5 -27.5t96.5 27t37.5 81v15q0 52 -37.5 77.5t-96.5 26.5q-59 0 -96.5 -27t-37.5 -77v-15z" />
    <glyph glyph-name="nine" unicode="9" horiz-adv-x="559" 
d="M399 301q-16 -21 -52.5 -38t-79.5 -17q-103 0 -162 62t-59 159v4q0 99 63.5 164t163.5 65q104 0 166 -63.5t62 -167.5v-207q0 -128 -59 -200t-172 -72q-97 0 -154.5 53.5t-57.5 120.5q0 17 18 17h62q14 0 16 -10q9 -42 40.5 -64t78.5 -22q126 0 126 170v46zM399 467v4
q0 65 -35 100t-91 35t-91 -35t-35 -100v-4q0 -57 36 -92t90 -35t90 35t36 92z" />
    <glyph glyph-name="colon" unicode=":" horiz-adv-x="252" 
d="M126 508q32 0 51.5 -20t19.5 -51t-19.5 -50.5t-51.5 -19.5t-51.5 19.5t-19.5 50.5t19.5 51t51.5 20zM126 133q32 0 51.5 -19.5t19.5 -51.5q0 -31 -19.5 -50.5t-51.5 -19.5t-51.5 19.5t-19.5 50.5q0 32 19.5 51.5t51.5 19.5z" />
    <glyph glyph-name="semicolon" unicode=";" horiz-adv-x="252" 
d="M128 508q32 0 51.5 -20t19.5 -51t-19.5 -50.5t-51.5 -19.5t-51.5 19.5t-19.5 50.5t19.5 51t51.5 20zM126 133q74 0 74 -96q0 -52 -17 -93.5t-40.5 -63t-44 -32.5t-32.5 -11q-9 0 -9 13v43q0 9 2.5 13t11.5 9q24 14 33 32t12 46q-28 3 -44.5 22t-16.5 48q0 31 20 50.5
t51 19.5z" />
    <glyph glyph-name="less" unicode="&#x3c;" horiz-adv-x="537" 
d="M178 350l292 -152q14 -8 14 -20v-73q0 -16 -16 -16q-8 0 -16 5l-395 206q-13 6 -13 18v64q0 12 12 19l401 217q6 3 11 3q16 0 16 -17v-73q0 -12 -14 -19z" />
    <glyph glyph-name="equal" unicode="=" horiz-adv-x="612" 
d="M551 441q0 -10 -7 -16.5t-17 -6.5h-443q-10 0 -16.5 6.5t-6.5 16.5v54q0 10 6.5 17t16.5 7h443q10 0 17 -7t7 -17v-54zM551 201q0 -10 -7 -16.5t-17 -6.5h-443q-10 0 -16.5 6.5t-6.5 16.5v54q0 10 6.5 17t16.5 7h443q10 0 17 -7t7 -17v-54z" />
    <glyph glyph-name="greater" unicode="&#x3e;" horiz-adv-x="537" 
d="M359 350l-292 -152q-14 -8 -14 -20v-73q0 -16 16 -16q8 0 16 5l395 206q13 6 13 18v64q0 12 -12 19l-401 217q-6 3 -11 3q-16 0 -16 -17v-73q0 -12 14 -19z" />
    <glyph glyph-name="question" unicode="?" horiz-adv-x="510" 
d="M272 203q10 0 17 7t7 17v25q0 31 17.5 57.5t43 47t50.5 42.5t42.5 56t17.5 76q0 80 -57 129.5t-161 49.5q-57 0 -100.5 -18.5t-67.5 -49t-36.5 -62t-15.5 -65.5q-1 -7 5 -12.5t13 -5.5h61q16 0 19 17q4 21 10 36t18.5 31.5t36.5 25t59 8.5q45 0 77.5 -20t32.5 -64
q0 -30 -17.5 -55t-42.5 -44t-50 -41t-42.5 -57.5t-17.5 -81.5v-25q0 -10 6.5 -17t16.5 -7h58zM244 133q32 0 51.5 -19.5t19.5 -51.5q0 -31 -19.5 -50.5t-51.5 -19.5t-51 19t-19 51t19.5 51.5t50.5 19.5z" />
    <glyph glyph-name="at" unicode="@" horiz-adv-x="977" 
d="M711 -122q0 -18 -11 -24q-85 -41 -217 -41q-192 0 -310 114.5t-118 321.5v27q0 200 118 317t322 117q191 0 306 -113t115 -289v-22q0 -80 -19 -136.5t-50 -82.5t-60 -36t-60 -10q-91 0 -129 67q-19 -32 -54.5 -51.5t-76.5 -19.5q-79 0 -129.5 50.5t-50.5 142.5v87
q0 92 47 145.5t118 53.5q74 0 113 -57v30q0 10 6.5 16.5t16.5 6.5h61q10 0 17 -6.5t7 -16.5v-281q0 -81 59 -81q88 0 88 185v22q0 55 -18.5 107.5t-55 99.5t-102 75.5t-149.5 28.5q-167 0 -256 -96t-89 -254v-27q0 -169 92.5 -259.5t240.5 -90.5q107 0 196 36q11 4 18 4
q14 0 14 -16v-44zM565 310q0 101 -84 101q-41 0 -64 -27t-23 -78v-98q0 -51 23 -78t64 -27q84 0 84 97v110z" />
    <glyph glyph-name="A" unicode="A" horiz-adv-x="641" 
d="M617 37q0 -1 2 -5.5t3 -9t1 -6.5q0 -16 -17 -16h-73q-17 0 -21 13l-53 152h-283l-52 -151q-5 -14 -19 -14h-70q-17 0 -17 16q0 4 6 20l231 646q7 18 24 18h83q16 0 23 -18zM210 262h217l-108 313z" />
    <glyph glyph-name="B" unicode="B" horiz-adv-x="618" 
d="M468 360q51 -22 78 -64t27 -94v-10q0 -192 -247 -192h-229q-10 0 -16.5 6.5t-6.5 16.5v653q0 10 6.5 17t16.5 7h234q104 0 164.5 -46.5t60.5 -138.5v-15q0 -98 -88 -140zM181 599v-190h148q55 0 87.5 18.5t32.5 68.5v14q0 28 -10 46.5t-28.5 27t-38.5 12t-47 3.5h-144z
M466 198v9q0 101 -131 101h-154v-207h154q131 0 131 97z" />
    <glyph glyph-name="C" unicode="C" horiz-adv-x="622" 
d="M559 242q7 0 12 -5.5t4 -12.5q-6 -95 -76.5 -164.5t-180.5 -69.5q-115 0 -190.5 78t-75.5 204v156q0 126 75.5 204t190.5 78q109 0 177.5 -66t78.5 -162q2 -20 -18 -20h-74q-15 0 -18 20q-9 54 -46.5 90.5t-99.5 36.5q-68 0 -113 -49t-45 -133v-155q0 -84 45 -132.5
t113 -48.5q63 0 101.5 36.5t45.5 93.5q2 21 18 21h76z" />
    <glyph glyph-name="D" unicode="D" horiz-adv-x="636" 
d="M97 0q-10 0 -16.5 6.5t-6.5 16.5v653q0 10 6.5 17t16.5 7h218q116 0 192.5 -77.5t76.5 -203.5v-137q0 -126 -76 -204t-192 -78h-219zM181 598v-496h135q68 0 113.5 48t45.5 132v135q0 84 -46 132.5t-114 48.5h-134z" />
    <glyph glyph-name="E" unicode="E" horiz-adv-x="551" 
d="M510 622q0 -10 -6.5 -16.5t-16.5 -6.5h-306v-194h242q10 0 16.5 -7t6.5 -17v-54q0 -10 -6.5 -16.5t-16.5 -6.5h-242v-203h306q10 0 16.5 -6.5t6.5 -16.5v-55q0 -10 -6.5 -16.5t-16.5 -6.5h-390q-10 0 -16.5 6.5t-6.5 16.5v653q0 10 6.5 17t16.5 7h390q10 0 16.5 -7
t6.5 -17v-54z" />
    <glyph glyph-name="F" unicode="F" horiz-adv-x="536" 
d="M510 622q0 -10 -6.5 -16.5t-16.5 -6.5h-306v-219h242q10 0 16.5 -6.5t6.5 -16.5v-55q0 -10 -6.5 -16.5t-16.5 -6.5h-242v-256q0 -10 -6.5 -16.5t-16.5 -6.5h-61q-10 0 -16.5 6.5t-6.5 16.5v653q0 10 6.5 17t16.5 7h390q10 0 16.5 -7t6.5 -17v-54z" />
    <glyph glyph-name="G" unicode="G" horiz-adv-x="642" 
d="M331 277q-10 0 -16.5 6.5t-6.5 16.5v51q0 10 6.5 17t16.5 7h224q10 0 17 -7t7 -17v-328q0 -10 -7 -16.5t-17 -6.5h-48q-10 0 -16.5 6.5t-6.5 16.5v49q-23 -38 -68 -60t-102 -22q-119 0 -190.5 79.5t-71.5 202.5v156q0 126 75.5 204t192.5 78q109 0 176 -63t80 -155
q2 -12 2 -15q0 -15 -16 -15h-76q-15 0 -18 20q-8 51 -45.5 89t-102.5 38q-69 0 -114.5 -49t-45.5 -133v-155q0 -84 45.5 -132.5t114.5 -48.5q73 0 114 46.5t41 99.5v40h-144z" />
    <glyph glyph-name="H" unicode="H" horiz-adv-x="655" 
d="M497 0q-10 0 -16.5 6.5t-6.5 16.5v282h-293v-282q0 -10 -6.5 -16.5t-16.5 -6.5h-61q-10 0 -16.5 6.5t-6.5 16.5v653q0 10 6.5 17t16.5 7h61q10 0 16.5 -7t6.5 -17v-270h293v270q0 10 6.5 17t16.5 7h61q10 0 16.5 -7t6.5 -17v-653q0 -10 -6.5 -16.5t-16.5 -6.5h-61z" />
    <glyph glyph-name="I" unicode="I" horiz-adv-x="255" 
d="M97 0q-10 0 -16.5 6.5t-6.5 16.5v653q0 10 6.5 17t16.5 7h61q10 0 16.5 -7t6.5 -17v-653q0 -10 -6.5 -16.5t-16.5 -6.5h-61z" />
    <glyph glyph-name="J" unicode="J" horiz-adv-x="496" 
d="M414 700q10 0 16.5 -7t6.5 -17v-464q0 -102 -62.5 -162t-151.5 -60q-86 0 -149 60t-63 162v15q0 10 6.5 16.5t16.5 6.5h59q10 0 17 -6.5t7 -16.5v-17q0 -57 31.5 -88t74.5 -31t75 31t32 88v466q0 10 6.5 17t16.5 7h61z" />
    <glyph glyph-name="K" unicode="K" horiz-adv-x="622" 
d="M585 42q12 -19 12 -26q0 -16 -16 -16h-80q-19 0 -29 19l-191 308l-100 -111v-193q0 -10 -6.5 -16.5t-16.5 -6.5h-61q-10 0 -16.5 6.5t-6.5 16.5v653q0 10 6.5 17t16.5 7h61q10 0 16.5 -7t6.5 -17v-322l287 326q17 20 34 20h76q16 0 16 -17q0 -8 -18 -30l-220 -243z" />
    <glyph glyph-name="L" unicode="L" horiz-adv-x="538" 
d="M514 23q0 -10 -6.5 -16.5t-16.5 -6.5h-394q-10 0 -16.5 6.5t-6.5 16.5v653q0 10 6.5 17t16.5 7h61q10 0 16.5 -7t6.5 -17v-575h310q10 0 16.5 -7t6.5 -17v-54z" />
    <glyph glyph-name="M" unicode="M" horiz-adv-x="838" 
d="M741 700q10 0 17 -7t7 -17v-653q0 -10 -7 -16.5t-17 -6.5h-57q-10 0 -16.5 6.5t-6.5 16.5v515l-193 -522q-6 -16 -21 -16h-56q-15 0 -20 15l-195 524v-516q0 -10 -6.5 -16.5t-16.5 -6.5h-56q-10 0 -16.5 6.5t-6.5 16.5v653q0 10 6.5 17t16.5 7h107q15 0 19 -12l197 -538
l199 537q6 13 18 13h104z" />
    <glyph glyph-name="N" unicode="N" horiz-adv-x="672" 
d="M574 700q10 0 17 -7t7 -17v-653q0 -10 -7 -16.5t-17 -6.5h-55q-20 0 -36 27l-304 502v-506q0 -10 -7 -16.5t-17 -6.5h-58q-10 0 -16.5 6.5t-6.5 16.5v653q0 10 6.5 17t16.5 7h77q18 0 27 -19l292 -485v480q0 10 6.5 17t16.5 7h58z" />
    <glyph glyph-name="O" unicode="O" 
d="M52 428q0 126 75.5 204t190.5 78q116 0 191.5 -78t75.5 -204v-156q0 -126 -75.5 -204t-191.5 -78q-115 0 -190.5 78t-75.5 204v156zM160 272q0 -84 45 -132.5t113 -48.5t113.5 48.5t45.5 132.5v155q0 84 -45.5 133t-113.5 49t-113 -49t-45 -133v-155z" />
    <glyph glyph-name="P" unicode="P" horiz-adv-x="601" 
d="M349 243q96 0 156 60t60 161v25q0 100 -59 155.5t-157 55.5h-252q-10 0 -16.5 -7t-6.5 -17v-653q0 -10 6.5 -16.5t16.5 -6.5h61q10 0 16.5 6.5t6.5 16.5v220h168zM181 599h161q50 0 83 -29t33 -87v-18q0 -59 -33 -90t-83 -31h-161v255z" />
    <glyph glyph-name="Q" unicode="Q" 
d="M603 68q9 -8 9 -17q0 -6 -6 -16l-23 -27q-8 -8 -17 -8t-17 7l-55 47q-72 -64 -176 -64q-115 0 -190.5 78t-75.5 204v156q0 126 75.5 204t190.5 78q116 0 191.5 -78t75.5 -204v-156q0 -87 -39 -156zM318 91q53 0 95 31l-98 84q-9 6 -9 17q0 7 6 15l18 23q11 12 20 12
q10 0 18 -8l94 -78q15 36 15 85v155q0 84 -45.5 133t-113.5 49t-113 -49t-45 -133v-155q0 -84 45 -132.5t113 -48.5z" />
    <glyph glyph-name="R" unicode="R" horiz-adv-x="610" 
d="M181 23q0 -10 -6.5 -16.5t-16.5 -6.5h-61q-10 0 -16.5 6.5t-6.5 16.5v653q0 10 6.5 17t16.5 7h252q98 0 157 -53t59 -152v-22q0 -149 -138 -190l130 -246q8 -13 8 -21q0 -16 -16 -16h-77q-16 0 -25 19l-126 246h-140v-242zM181 366h161q50 0 83 27t33 81v15
q0 58 -32.5 84t-83.5 26h-161v-233z" />
    <glyph glyph-name="S" unicode="S" horiz-adv-x="592" 
d="M448 500q-20 0 -24 21q-14 94 -125 94q-65 0 -98.5 -20.5t-33.5 -73.5q0 -34 21 -57t54.5 -35.5t74 -23t80.5 -25t73.5 -35.5t54.5 -60.5t21 -94.5q0 -70 -37.5 -117t-90.5 -65t-119 -18t-118 21t-81 54t-43.5 69t-14.5 71q0 10 6.5 16.5t16.5 6.5h60q9 0 15 -6.5
t7 -14.5q2 -17 7.5 -34t20.5 -39t47 -35.5t77 -13.5q140 0 140 105q0 33 -21 55.5t-54.5 35t-73.5 23t-80.5 25.5t-74 36.5t-54.5 61t-21 94.5q0 92 63 140.5t178 48.5q116 0 173.5 -56.5t57.5 -130.5q0 -10 -7 -16.5t-17 -6.5h-60z" />
    <glyph glyph-name="T" unicode="T" horiz-adv-x="566" 
d="M16 622q0 -10 6.5 -16.5t16.5 -6.5h190v-576q0 -10 6.5 -16.5t16.5 -6.5h61q10 0 17 6.5t7 16.5v576h190q10 0 16.5 6.5t6.5 16.5v54q0 10 -6.5 17t-16.5 7h-488q-10 0 -16.5 -7t-6.5 -17v-54z" />
    <glyph glyph-name="U" unicode="U" 
d="M489 700q-10 0 -16.5 -7t-6.5 -17v-410q0 -84 -40.5 -129.5t-107.5 -45.5t-107 45t-40 130v410q0 10 -6.5 17t-16.5 7h-61q-10 0 -16.5 -7t-6.5 -17v-410q0 -126 70 -201t184 -75t184.5 75t70.5 201v410q0 10 -6.5 17t-16.5 7h-61z" />
    <glyph glyph-name="V" unicode="V" horiz-adv-x="624" 
d="M592 700q7 0 12 -5t5 -12q0 -6 -8 -27l-230 -640q-5 -16 -22 -16h-73q-17 0 -22 16l-234 650q-5 15 -5 17q0 7 4.5 12t11.5 5h72q19 0 29 -28l182 -529l184 531q9 26 25 26h69z" />
    <glyph glyph-name="W" unicode="W" horiz-adv-x="920" 
d="M882 700q17 0 17 -17q0 -6 -4 -17l-177 -648q-6 -18 -23 -18h-78q-17 0 -23 18l-135 521l-133 -521q-4 -18 -23 -18h-76q-19 0 -23 18l-178 643q-5 20 -5 22q0 17 16 17h74q20 0 25 -23l130 -517l135 516q6 24 24 24h71q19 0 25 -24l135 -516l129 516q7 24 25 24h72z" />
    <glyph glyph-name="X" unicode="X" horiz-adv-x="593" 
d="M559 44q13 -24 13 -28q0 -16 -16 -16h-74q-20 0 -33 19l-158 248l-156 -248q-13 -19 -30 -19h-67q-17 0 -17 16q0 7 6 16l202 318l-191 302q-16 27 -16 31q0 7 5 12t12 5h75q19 0 31 -20l153 -241l155 241q13 20 31 20h68q16 0 16 -17q0 -10 -11 -24l-197 -304z" />
    <glyph glyph-name="Y" unicode="Y" horiz-adv-x="618" 
d="M582 700q16 0 16 -17q0 -7 -11 -26l-225 -379v-255q0 -10 -7 -16.5t-17 -6.5h-61q-10 0 -16.5 6.5t-6.5 16.5v256l-223 379q-1 2 -4 7t-5 9.5t-2 8.5q0 17 17 17h79q12 0 19 -14l176 -307l176 308q9 13 20 13h75z" />
    <glyph glyph-name="Z" unicode="Z" horiz-adv-x="568" 
d="M503 700q10 0 16.5 -7t6.5 -17v-50q0 -20 -21 -51l-328 -475h326q10 0 16.5 -6.5t6.5 -16.5v-54q0 -10 -6.5 -16.5t-16.5 -6.5h-438q-10 0 -16.5 6.5t-6.5 16.5v47q0 20 15 40l340 490h-332q-10 0 -16.5 6.5t-6.5 16.5v53q0 10 6.5 17t16.5 7h438z" />
    <glyph glyph-name="bracketleft" unicode="[" horiz-adv-x="324" 
d="M307 743q0 -10 -7 -17t-17 -7h-112v-753h112q10 0 17 -7t7 -17v-45q0 -10 -7 -16.5t-17 -6.5h-190q-10 0 -16.5 6.5t-6.5 16.5v891q0 10 6.5 17t16.5 7h190q10 0 17 -7t7 -17v-45z" />
    <glyph glyph-name="backslash" unicode="\" horiz-adv-x="449" 
d="M411 0q16 0 16 16q0 7 -5 19l-295 650q-7 15 -23 15h-65q-17 0 -17 -17q0 -6 4 -15l294 -649q8 -19 24 -19h67z" />
    <glyph glyph-name="bracketright" unicode="]" horiz-adv-x="324" 
d="M17 743v45q0 10 7 17t17 7h190q10 0 16.5 -7t6.5 -17v-891q0 -10 -6.5 -16.5t-16.5 -6.5h-190q-10 0 -17 6.5t-7 16.5v45q0 10 7 17t17 7h111v753h-111q-10 0 -17 7t-7 17z" />
    <glyph glyph-name="asciicircum" unicode="^" horiz-adv-x="532" 
d="M269 554l121 -311q6 -13 20 -13h73q16 0 16 16q0 6 -3 13l-178 428q-4 13 -18 13h-63q-14 0 -19 -12l-182 -431q-3 -9 -3 -11q0 -16 17 -16h73q13 0 19 14z" />
    <glyph glyph-name="underscore" unicode="_" horiz-adv-x="646" 
d="M585 -80q0 -10 -6.5 -16.5t-16.5 -6.5h-478q-10 0 -16.5 6.5t-6.5 16.5v56q0 10 6.5 17t16.5 7h478q10 0 16.5 -7t6.5 -17v-56z" />
    <glyph glyph-name="grave" unicode="`" horiz-adv-x="291" 
d="M21 700q-13 0 -13 -11q0 -4 4 -10l80 -113q7 -10 17 -10h65q10 0 10 10q0 6 -5 13l-55 106q-6 15 -23 15h-80z" />
    <glyph glyph-name="a" unicode="a" horiz-adv-x="502" 
d="M440 23q0 -10 -6.5 -16.5t-16.5 -6.5h-54q-10 0 -16.5 6.5t-6.5 16.5v33q-15 -31 -50 -48.5t-77 -17.5h-16q-70 0 -115.5 36.5t-45.5 114.5q0 152 201 152h103v26q0 99 -98 99q-44 0 -61 -14.5t-23 -41.5q-5 -16 -19 -16h-63q-19 0 -19 18q0 4 2 12q5 25 14 44.5t28 42
t55 35t86 12.5q61 0 102 -16t61 -46t27.5 -61t7.5 -71v-293zM240 214q-51 0 -77.5 -16t-26.5 -57q0 -35 23.5 -50.5t58.5 -15.5h16q33 0 55.5 9.5t32.5 27.5t14 36t4 41v25h-100z" />
    <glyph glyph-name="b" unicode="b" horiz-adv-x="545" 
d="M177 23q0 -10 -6.5 -16.5t-16.5 -6.5h-61q-10 0 -16.5 6.5t-6.5 16.5v653q0 10 6.5 17t16.5 7h61q10 0 16.5 -7t6.5 -17v-232q48 66 140 66q85 0 134 -59t49 -169v-60q0 -112 -49.5 -172t-133.5 -60q-94 0 -140 66v-33zM177 205q0 -55 28 -89t80 -34t80 34t28 89v89
q0 55 -28 89.5t-80 34.5q-51 0 -79.5 -34t-28.5 -87v-92z" />
    <glyph glyph-name="c" unicode="c" horiz-adv-x="504" 
d="M149 205q0 -58 30.5 -90.5t78.5 -32.5q82 0 102 87q3 15 17 15h69q16 0 16 -17q0 -11 -1 -15q-12 -61 -64.5 -111.5t-138.5 -50.5q-91 0 -152 62t-61 165v65q0 103 60.5 165.5t151.5 62.5q80 0 134 -46.5t70 -118.5q2 -12 2 -13q0 -16 -16 -16h-68q-14 0 -18 15
q-20 87 -104 87q-48 0 -78 -32.5t-30 -90.5v-90z" />
    <glyph glyph-name="d" unicode="d" horiz-adv-x="545" 
d="M368 23q0 -10 6.5 -16.5t16.5 -6.5h61q10 0 16.5 6.5t6.5 16.5v653q0 10 -6.5 17t-16.5 7h-61q-10 0 -16.5 -7t-6.5 -17v-232q-48 66 -140 66q-85 0 -134 -59t-49 -169v-60q0 -112 49.5 -172t133.5 -60q94 0 140 66v-33zM368 205q0 -55 -28.5 -89t-80.5 -34t-79.5 34
t-27.5 89v89q0 55 28 89.5t80 34.5q51 0 79.5 -34t28.5 -87v-92z" />
    <glyph glyph-name="e" unicode="e" horiz-adv-x="517" 
d="M152 201q0 -53 31 -86t78 -33q69 0 98 60q11 14 24 14h64q16 0 16 -16q0 -7 -4 -17q-26 -68 -81 -100.5t-117 -32.5q-92 0 -154 62t-62 165v65q0 103 61.5 165.5t153.5 62.5q91 0 152 -63t61 -162v-47q0 -10 -7 -16.5t-17 -6.5h-297v-14zM368 291v11q0 54 -30 85t-78 31
t-78 -31t-30 -85v-11h216z" />
    <glyph glyph-name="f" unicode="f" horiz-adv-x="359" 
d="M322 428q0 -10 -6.5 -16.5t-16.5 -6.5h-99v-382q0 -10 -7 -16.5t-17 -6.5h-61q-10 0 -16.5 6.5t-6.5 16.5v382h-69q-10 0 -16.5 6.5t-6.5 16.5v48q0 10 6.5 17t16.5 7h69v21q0 98 40 138.5t135 40.5h32q10 0 16.5 -7t6.5 -17v-49q0 -10 -6.5 -16.5t-16.5 -6.5h-32
q-42 0 -54.5 -16t-12.5 -66v-22h99q10 0 16.5 -7t6.5 -17v-48z" />
    <glyph glyph-name="g" unicode="g" horiz-adv-x="522" 
d="M325 97q82 0 128.5 -43.5t46.5 -110.5q0 -66 -46.5 -109.5t-128.5 -43.5h-116q-82 0 -128.5 43.5t-46.5 109.5q0 82 67 116q-46 21 -46 75q0 68 69 82q-65 45 -65 123t53 124.5t139 46.5h25q58 0 102 -32v65q0 10 6.5 17t16.5 7h50q10 0 17 -7t7 -17v-204q0 -81 -52 -126
t-138 -45h-97q-41 0 -41 -36q0 -35 49 -35h129zM254 426q-44 0 -69 -24t-25 -63t25 -63t69 -24h26q44 0 69 24t25 63t-25 63t-69 24h-26zM306 -127q93 0 93 69q0 74 -93 74h-79q-92 0 -92 -74q0 -69 92 -69h79z" />
    <glyph glyph-name="h" unicode="h" horiz-adv-x="559" 
d="M93 0q-10 0 -16.5 6.5t-6.5 16.5v653q0 10 6.5 17t16.5 7h61q10 0 16.5 -7t6.5 -17v-233q46 67 138 67q90 0 136 -61.5t46 -166.5v-259q0 -10 -6.5 -16.5t-16.5 -6.5h-61q-10 0 -16.5 6.5t-6.5 16.5v272q0 59 -29.5 91t-77.5 32q-47 0 -76.5 -32.5t-29.5 -90.5v-272
q0 -10 -6.5 -16.5t-16.5 -6.5h-61z" />
    <glyph glyph-name="i" unicode="i" horiz-adv-x="251" 
d="M125 706q29 0 47.5 -18t18.5 -47t-18.5 -47t-47.5 -18t-47 18t-18 47t18 47t47 18zM95 0q-10 0 -16.5 6.5t-6.5 16.5v453q0 10 6.5 17t16.5 7h61q10 0 16.5 -7t6.5 -17v-453q0 -10 -6.5 -16.5t-16.5 -6.5h-61z" />
    <glyph glyph-name="j" unicode="j" horiz-adv-x="251" 
d="M125 706q29 0 47.5 -18t18.5 -47t-18.5 -47t-47.5 -18t-47 18t-18 47t18 47t47 18zM156 500q10 0 16.5 -7t6.5 -17v-469q0 -116 -53 -161.5t-142 -45.5q-10 0 -16.5 6.5t-6.5 16.5v52q0 10 6.5 16.5t16.5 6.5q45 0 66.5 25.5t21.5 83.5v469q0 10 6.5 17t16.5 7h61z" />
    <glyph glyph-name="k" unicode="k" horiz-adv-x="519" 
d="M489 45q14 -19 14 -29q0 -16 -16 -16h-80q-14 0 -27 19l-132 191l-71 -83v-104q0 -10 -6.5 -16.5t-16.5 -6.5h-61q-10 0 -16.5 6.5t-6.5 16.5v653q0 10 6.5 17t16.5 7h61q10 0 16.5 -7t6.5 -17v-418l189 222q17 20 34 20h76q16 0 16 -17q0 -8 -19 -29l-148 -170z" />
    <glyph glyph-name="l" unicode="l" horiz-adv-x="247" 
d="M93 0q-10 0 -16.5 6.5t-6.5 16.5v653q0 10 6.5 17t16.5 7h61q10 0 16.5 -7t6.5 -17v-653q0 -10 -6.5 -16.5t-16.5 -6.5h-61z" />
    <glyph glyph-name="m" unicode="m" horiz-adv-x="844" 
d="M607 510q43 0 74.5 -11.5t50.5 -31.5t30.5 -51.5t15.5 -66t4 -80.5v-246q0 -10 -6.5 -16.5t-16.5 -6.5h-61q-10 0 -16.5 6.5t-6.5 16.5v256q0 71 -19.5 105t-76.5 34t-79 -34.5t-22 -104.5v-256q0 -10 -6.5 -16.5t-16.5 -6.5h-61q-10 0 -16.5 6.5t-6.5 16.5v256
q0 73 -20 106t-75 33q-59 0 -80.5 -35.5t-21.5 -104.5v-255q0 -10 -6.5 -16.5t-16.5 -6.5h-61q-10 0 -16.5 6.5t-6.5 16.5v453q0 10 6.5 17t16.5 7h61q10 0 16.5 -7t6.5 -17v-33q44 68 130 68q101 0 147 -82q53 81 156 81z" />
    <glyph glyph-name="n" unicode="n" horiz-adv-x="556" 
d="M90 0q-10 0 -16.5 6.5t-6.5 16.5v453q0 10 6.5 17t16.5 7h61q10 0 16.5 -7t6.5 -17v-33q46 67 138 67q90 0 136 -61.5t46 -166.5v-259q0 -10 -6.5 -16.5t-16.5 -6.5h-61q-10 0 -16.5 6.5t-6.5 16.5v272q0 58 -29.5 90.5t-77.5 32.5t-77 -32t-29 -91v-272
q0 -10 -6.5 -16.5t-16.5 -6.5h-61z" />
    <glyph glyph-name="o" unicode="o" horiz-adv-x="520" 
d="M45 282q0 103 61 165.5t154 62.5q92 0 153.5 -62.5t61.5 -165.5v-65q0 -103 -61.5 -165t-153.5 -62q-93 0 -154 62t-61 165v65zM152 205q0 -58 30 -90.5t78 -32.5t77.5 32.5t29.5 90.5v90q0 58 -29.5 90.5t-77.5 32.5t-78 -32.5t-30 -90.5v-90z" />
    <glyph glyph-name="p" unicode="p" horiz-adv-x="542" 
d="M174 -177q0 -10 -6.5 -16.5t-16.5 -6.5h-61q-10 0 -16.5 6.5t-6.5 16.5v653q0 10 6.5 17t16.5 7h61q10 0 16.5 -7t6.5 -17v-32q48 66 140 66q85 0 134 -59t49 -169v-60q0 -112 -49.5 -172t-133.5 -60q-94 0 -140 66v-233zM174 205q0 -55 28 -89t80 -34t80 34t28 89v89
q0 55 -28 89.5t-80 34.5q-51 0 -79.5 -34t-28.5 -87v-92z" />
    <glyph glyph-name="q" unicode="q" horiz-adv-x="542" 
d="M368 -177q0 -10 6.5 -16.5t16.5 -6.5h61q10 0 17 6.5t7 16.5v653q0 10 -7 17t-17 7h-61q-10 0 -16.5 -7t-6.5 -17v-32q-46 66 -140 66q-85 0 -134 -59t-49 -169v-60q0 -112 49.5 -172t133.5 -60q94 0 140 66v-233zM368 205q0 -55 -28 -89t-80 -34t-80 34t-28 89v89
q0 55 28 89.5t80 34.5q51 0 79.5 -34t28.5 -87v-92z" />
    <glyph glyph-name="r" unicode="r" horiz-adv-x="375" 
d="M90 0q-10 0 -16.5 6.5t-6.5 16.5v453q0 10 6.5 17t16.5 7h55q10 0 17 -7t7 -17v-51q43 75 133 75h13q10 0 16.5 -7t6.5 -17v-60q0 -10 -6.5 -16.5t-16.5 -6.5h-15q-62 0 -94.5 -36.5t-32.5 -107.5v-226q0 -10 -7 -16.5t-17 -6.5h-59z" />
    <glyph glyph-name="s" unicode="s" horiz-adv-x="478" 
d="M239 -10q-85 0 -136.5 41.5t-60.5 97.5q-2 9 -1 14q0 16 17 16h62q14 0 19 -15q17 -67 101 -67q93 0 93 63q0 28 -29.5 43t-71 23t-83 20.5t-71 46.5t-29.5 91q0 73 54 109.5t135 36.5q83 0 127.5 -39.5t59.5 -93.5q2 -6 2 -14q-2 -17 -18 -17h-62q-13 0 -19 16
q-6 18 -13.5 29t-28.5 21.5t-52 10.5q-82 0 -82 -54q0 -25 21 -41t52.5 -22t68 -16.5t68 -23.5t52.5 -44.5t21 -78.5q0 -79 -55 -116t-141 -37z" />
    <glyph glyph-name="t" unicode="t" horiz-adv-x="359" 
d="M246 0q-86 0 -120 39t-34 121v245h-69q-10 0 -16.5 6.5t-6.5 16.5v48q0 10 6.5 17t16.5 7q39 0 54.5 13t15.5 50v43q0 10 6.5 17t16.5 7h58q10 0 17 -7t7 -17v-106h101q10 0 16.5 -7t6.5 -17v-48q0 -10 -6.5 -16.5t-16.5 -6.5h-101v-229q0 -46 12 -62t54 -16h35
q10 0 16.5 -7t6.5 -17v-51q0 -10 -6.5 -16.5t-16.5 -6.5h-53z" />
    <glyph glyph-name="u" unicode="u" horiz-adv-x="544" 
d="M454 500q10 0 16.5 -7t6.5 -17v-453q0 -10 -6.5 -16.5t-16.5 -6.5h-61q-10 0 -16.5 6.5t-6.5 16.5v31q-46 -64 -134 -64q-86 0 -130 60t-44 167v259q0 10 6.5 17t16.5 7h61q10 0 16.5 -7t6.5 -17v-271q0 -59 26.5 -91t72.5 -32q47 0 74.5 32t27.5 91v271q0 10 6.5 17
t16.5 7h61z" />
    <glyph glyph-name="v" unicode="v" horiz-adv-x="503" 
d="M470 500q16 0 16 -17q0 -5 -6 -20l-173 -449q-5 -14 -22 -14h-67q-15 0 -21 14l-174 449q-6 15 -6 20q0 17 17 17h69q17 0 23 -14l129 -361l124 361q5 14 21 14h70z" />
    <glyph glyph-name="w" unicode="w" horiz-adv-x="738" 
d="M708 500q16 0 16 -17q0 -5 -7 -26l-141 -441q-6 -16 -23 -16h-56q-18 0 -23 18l-104 347l-102 -348q-4 -17 -23 -17h-58q-18 0 -23 16l-144 443q-6 18 -6 24q0 17 17 17h68q19 0 25 -24l95 -333l96 333q6 24 25 24h62q18 0 25 -24l99 -326l88 326q6 24 25 24h69z" />
    <glyph glyph-name="x" unicode="x" horiz-adv-x="459" 
d="M31 0q-16 0 -16 16q0 8 11 23l144 212l-139 206q-14 19 -14 26t5 12t12 5h67q20 0 33 -20l98 -152l98 152q13 20 33 20h61q17 0 17 -17q0 -7 -13 -24l-137 -205l139 -209q15 -24 15 -29q0 -16 -17 -16h-66q-20 0 -33 19l-102 157l-102 -157q-13 -19 -31 -19h-63z" />
    <glyph glyph-name="y" unicode="y" horiz-adv-x="499" 
d="M469 500q16 0 16 -17q0 -7 -6 -21l-192 -497q-18 -48 -30.5 -73t-33 -49t-49.5 -33.5t-72 -9.5h-44q-10 0 -16.5 6.5t-6.5 16.5v52q0 10 6.5 16.5t16.5 6.5h37q40 0 59 16.5t31 48.5l15 41l-175 450q-9 27 -9 29q0 17 17 17h70q17 0 24 -21l128 -345l121 346q6 20 23 20
h70z" />
    <glyph glyph-name="z" unicode="z" horiz-adv-x="441" 
d="M411 429q0 -23 -15 -39l-240 -297h231q10 0 17 -6.5t7 -16.5v-47q0 -10 -7 -16.5t-17 -6.5h-330q-10 0 -16.5 6.5t-6.5 16.5v41q0 23 18 44l232 299h-227q-10 0 -16.5 6.5t-6.5 16.5v46q0 10 6.5 17t16.5 7h330q10 0 17 -7t7 -17v-47z" />
    <glyph glyph-name="braceleft" unicode="{" horiz-adv-x="383" 
d="M366 -101q0 -10 -7 -17t-17 -7q-113 0 -158 59.5t-45 190.5v68q0 43 -21.5 72.5t-62.5 29.5q-10 0 -16.5 7t-6.5 17v52q0 10 6.5 16.5t16.5 6.5q84 0 84 102v70q0 131 45 190.5t158 59.5q10 0 17 -7t7 -17v-49q0 -10 -7 -17t-17 -7q-35 0 -55 -7.5t-29.5 -30t-11.5 -45.5
t-2 -72v-80q0 -42 -21 -80.5t-63 -56.5q42 -23 63 -61t21 -80v-81q0 -39 1 -59t6 -41.5t15.5 -31t29 -15.5t46.5 -6q10 0 17 -7t7 -17v-49z" />
    <glyph glyph-name="bar" unicode="|" horiz-adv-x="247" 
d="M93 -142q-10 0 -16.5 6.5t-6.5 16.5v935q0 10 6.5 17t16.5 7h61q10 0 16.5 -7t6.5 -17v-935q0 -10 -6.5 -16.5t-16.5 -6.5h-61z" />
    <glyph glyph-name="braceright" unicode="}" horiz-adv-x="383" 
d="M17 -101v49q0 10 6.5 17t17.5 7q28 0 46.5 6t29 15.5t15.5 31t6 41.5t1 59v81q0 41 20.5 79.5t62.5 61.5q-41 18 -62 56.5t-21 80.5v80q0 39 -1 59t-6 42.5t-15.5 31.5t-29 15.5t-46.5 6.5q-10 0 -17 7t-7 17v49q0 10 6.5 17t17.5 7q113 0 158 -59.5t45 -190.5v-70
q0 -102 83 -102q10 0 17 -6.5t7 -16.5v-52q0 -11 -6.5 -17.5t-17.5 -6.5q-40 0 -61.5 -29.5t-21.5 -72.5v-68q0 -131 -45 -190.5t-158 -59.5q-11 0 -17.5 6.5t-6.5 17.5z" />
    <glyph glyph-name="asciitilde" unicode="~" horiz-adv-x="640" 
d="M93 255q-10 0 -16.5 6.5t-6.5 16.5q0 63 38.5 109t112.5 46q38 0 77 -22t72.5 -44t56.5 -22q58 0 58 64q0 10 6.5 17t16.5 7h38q10 0 16.5 -7t6.5 -17q0 -28 -7 -53.5t-22 -49t-44 -37.5t-68 -14q-40 0 -80.5 21.5t-74 43t-57.5 21.5q-32 0 -43.5 -17.5t-16.5 -49.5
q-2 -19 -23 -19h-40z" />
    <glyph glyph-name="uni00A0" unicode="&#xa0;" horiz-adv-x="230" 
 />
    <glyph glyph-name="exclamdown" unicode="&#xa1;" horiz-adv-x="249" 
d="M124 367q-31 0 -50.5 19.5t-19.5 51.5t19 51t51 19t51.5 -19.5t19.5 -50.5q0 -32 -19.5 -51.5t-51.5 -19.5zM95 -200q-11 0 -17.5 7t-6.5 17v449q0 10 7 17t17 7h60q10 0 16.5 -7t6.5 -17v-449q0 -10 -6.5 -17t-16.5 -7h-60z" />
    <glyph glyph-name="cent" unicode="&#xa2;" horiz-adv-x="501" 
d="M446 284q16 0 16 -17q0 -11 -1 -15q-9 -52 -51.5 -99t-110.5 -59v-71q0 -10 -6.5 -16.5t-16.5 -6.5h-36q-10 0 -16.5 6.5t-6.5 16.5v71q-76 13 -124 73t-48 150v55q0 91 48 151t124 73v75q0 7 5.5 13t13.5 6h44q8 0 13.5 -6t5.5 -13v-75q63 -12 105.5 -55.5t56.5 -105.5
q2 -12 2 -13q0 -16 -16 -16h-68q-14 0 -18 15q-20 87 -104 87q-48 0 -78 -32.5t-30 -90.5v-80q0 -58 30.5 -90.5t78.5 -32.5q82 0 102 87q3 15 17 15h69z" />
    <glyph glyph-name="sterling" unicode="&#xa3;" horiz-adv-x="603" 
d="M550 208q10 0 16.5 -7t6.5 -17q0 -32 -10 -64t-30 -62.5t-57.5 -49t-85.5 -18.5q-56 0 -125.5 29.5t-86.5 33.5q-57 -63 -108 -63q-16 0 -21 12l-20 46q-4 12 -4 15q0 12 16 19q42 16 62 41.5t20 67.5q0 60 -16 119h-73q-10 0 -16.5 7t-6.5 17v29q0 10 6.5 16.5t16.5 6.5
h56q-8 42 -8 93q0 103 61.5 162t173.5 59q110 0 169.5 -57.5t59.5 -129.5q0 -10 -7 -16.5t-17 -6.5h-60q-20 0 -24 21q-14 94 -122 94q-126 0 -126 -126q0 -48 8 -93h204q8 0 14 -5.5t6 -13.5v-38q0 -7 -6 -13t-14 -6h-187q16 -64 16 -119q0 -27 -9 -53q24 -6 80 -29.5
t88 -23.5q75 0 83 102q4 21 22 21h55z" />
    <glyph glyph-name="currency" unicode="&#xa4;" horiz-adv-x="577" 
d="M528 168q7 -7 7.5 -16.5t-6.5 -16.5l-21 -20q-7 -7 -16.5 -7t-16.5 7l-61 60q-56 -37 -126 -37t-124 37l-62 -61q-16 -17 -33 0l-20 21q-7 6 -7 15.5t7 16.5l60 61q-41 55 -41 128q0 69 40 125l-63 63q-5 5 -5 13t5 14l28 26q5 6 13 5.5t13 -5.5l64 -63q56 37 125 37
q68 0 127 -38l63 64q5 5 13 5t13 -5l28 -27q12 -14 0 -28l-62 -61q40 -56 40 -125q0 -73 -41 -128zM288 228q51 0 87.5 36.5t36.5 91.5q0 53 -36.5 89t-87.5 36q-50 0 -86.5 -36t-36.5 -89q0 -55 36.5 -91.5t86.5 -36.5z" />
    <glyph glyph-name="yen" unicode="&#xa5;" horiz-adv-x="618" 
d="M593 673q0 -7 -11 -26l-128 -215h84q8 0 14 -6t6 -13v-38q0 -8 -6 -13.5t-14 -5.5h-130l-45 -76h175q8 0 14 -5.5t6 -13.5v-38q0 -7 -6 -13t-14 -6h-176v-181q0 -10 -7 -16.5t-17 -6.5h-61q-10 0 -16.5 6.5t-6.5 16.5v181h-178q-10 0 -16.5 7t-6.5 17v29q0 10 6.5 16.5
t16.5 6.5h177l-44 76h-133q-10 0 -16.5 6.5t-6.5 16.5v29q0 10 6.5 17t16.5 7h88l-127 216q-12 20 -12 25q0 7 5 12t12 5h79q12 0 20 -14l170 -297l171 298q9 13 20 13h75q16 0 16 -17z" />
    <glyph glyph-name="brokenbar" unicode="&#xa6;" horiz-adv-x="247" 
d="M70 816q0 10 6.5 17t16.5 7h61q10 0 16.5 -7t6.5 -17v-359q0 -10 -6.5 -17t-16.5 -7h-61q-10 0 -16.5 7t-6.5 17v359zM70 252q0 10 6.5 17t16.5 7h61q10 0 16.5 -7t6.5 -17v-371q0 -10 -6.5 -16.5t-16.5 -6.5h-61q-10 0 -16.5 6.5t-6.5 16.5v371z" />
    <glyph glyph-name="section" unicode="&#xa7;" horiz-adv-x="545" 
d="M463 243q52 -34 52 -97q0 -81 -67 -118.5t-172 -37.5q-108 0 -173 41.5t-75 97.5q0 1 -1 6.5t0 7.5q2 16 18 16h62q13 0 18 -15q8 -26 43.5 -47t108.5 -21q135 0 135 68q0 23 -27.5 36.5t-68.5 18.5t-89 14t-89 21.5t-68.5 43.5t-27.5 78q0 64 55 97q-50 37 -50 103
q0 75 66 112.5t165 37.5q103 0 158.5 -39.5t70.5 -93.5q0 -1 0.5 -6t0.5 -8q0 -7 -5 -12t-12 -5h-63q-12 0 -18 16q-23 62 -137 62q-123 0 -123 -61q0 -26 26.5 -41.5t67 -21t87 -15.5t87 -22t67 -43t26.5 -77q0 -60 -48 -96zM145 364q0 -19 13 -31.5t39 -20t51.5 -12
t63.5 -10.5t63 -12q33 17 33 58q0 17 -13 29t-38.5 18.5t-51 11t-63 10.5t-62.5 12q-35 -17 -35 -53z" />
    <glyph glyph-name="dieresis" unicode="&#xa8;" horiz-adv-x="393" 
d="M104 691q26 0 42.5 -16.5t16.5 -42.5t-16.5 -42.5t-42.5 -16.5t-42.5 16.5t-16.5 42.5t16.5 42.5t42.5 16.5zM295 691q26 0 42.5 -16.5t16.5 -42.5t-16.5 -42.5t-42.5 -16.5t-42.5 16.5t-16.5 42.5t16.5 42.5t42.5 16.5z" />
    <glyph glyph-name="copyright" unicode="&#xa9;" horiz-adv-x="808" 
d="M51 345q0 173 100.5 271.5t251.5 98.5q152 0 253 -98.5t101 -271.5q0 -170 -101 -265t-253 -95q-151 0 -251.5 95t-100.5 265zM673 345q0 139 -77 217t-193 78q-115 0 -192 -78t-77 -217q0 -136 76.5 -210.5t192.5 -74.5q117 0 193.5 74.5t76.5 210.5zM330 319
q0 -41 21 -64.5t53 -23.5q60 0 73 57q4 14 13 14h59q13 0 10 -16q-6 -50 -46 -90t-107 -40q-68 0 -112.5 44.5t-44.5 118.5v68q0 72 44 116t113 44q68 0 108 -40t45 -92q0 -11 -10 -11h-59q-10 0 -13 12q-12 58 -73 58q-33 0 -53.5 -23t-20.5 -65v-67z" />
    <glyph glyph-name="ordfeminine" unicode="&#xaa;" horiz-adv-x="420" 
d="M71 568q-7 0 -12 4.5t-4 11.5q13 122 156 122q166 0 166 -155v-245q0 -8 -6 -14t-15 -6h-49q-8 0 -13.5 6t-5.5 14v29q-25 -57 -101 -57h-16q-56 0 -93 31.5t-37 93.5q0 64 42 95t115 31h90v25q0 75 -77 75q-64 0 -70 -48q-4 -13 -16 -13h-54zM200 462q-71 0 -71 -58
q0 -52 61 -52h17q81 0 81 91v19h-88z" />
    <glyph glyph-name="guillemotleft" unicode="&#xab;" horiz-adv-x="587" 
d="M271 458q10 0 10 -10v-77q0 -11 -9 -17l-143 -94l143 -92q9 -6 9 -18v-82q0 -11 -10 -11q-4 0 -12 5l-210 139q-14 9 -14 24v66q0 15 14 24l211 139q6 4 11 4zM544 371q0 -11 -10 -17l-134 -94l134 -92q10 -6 10 -18v-82q0 -11 -10 -11q-6 0 -13 5l-193 142
q-14 10 -14 24v60q0 13 14 24l195 142q6 4 11 4q10 0 10 -10v-77z" />
    <glyph glyph-name="logicalnot" unicode="&#xac;" horiz-adv-x="612" 
d="M84 299q-10 0 -16.5 6.5t-6.5 16.5v56q0 10 6.5 17t16.5 7h443q10 0 17 -7t7 -17v-216q0 -10 -7 -17t-17 -7h-57q-10 0 -17 7t-7 17v137h-362z" />
    <glyph glyph-name="uni00AD" unicode="&#xad;" horiz-adv-x="0" 
 />
    <glyph glyph-name="registered" unicode="&#xae;" horiz-adv-x="607" 
d="M303 832q119 0 197.5 -76t78.5 -210t-78 -207.5t-198 -73.5q-119 0 -197 74t-78 207q0 134 78.5 210t196.5 76zM303 326q90 0 148.5 57.5t58.5 162.5q0 106 -58.5 165.5t-148.5 59.5q-89 0 -147.5 -59.5t-58.5 -165.5t58.5 -163t147.5 -57zM335 700q41 0 65.5 -22.5
t24.5 -64.5v-10q0 -57 -53 -76l48 -100q4 -8 4 -12q0 -9 -11 -9h-49q-9 0 -13 11l-44 93h-39v-90q0 -12 -10 -12h-46q-11 0 -11 12v267q0 13 14 13h120zM268 642v-77h49q42 0 42 37v6q0 34 -42 34h-49z" />
    <glyph glyph-name="macron" unicode="&#xaf;" horiz-adv-x="453" 
d="M349 665h-245q-10 0 -16.5 -6.5t-6.5 -16.5v-42q0 -10 6.5 -16.5t16.5 -6.5h245q10 0 17 6.5t7 16.5v42q0 10 -7 16.5t-17 6.5z" />
    <glyph glyph-name="degree" unicode="&#xb0;" horiz-adv-x="325" 
d="M34 574q0 54 37.5 90t91.5 36q53 0 91 -36.5t38 -89.5q0 -54 -38 -90.5t-91 -36.5q-54 0 -91.5 36.5t-37.5 90.5zM228 574q0 29 -19 48.5t-46 19.5t-46 -19.5t-19 -48.5q0 -30 19 -49.5t46 -19.5t46 19.5t19 49.5z" />
    <glyph glyph-name="plusminus" unicode="&#xb1;" horiz-adv-x="612" 
d="M276 181q-10 0 -16.5 7t-6.5 17v175h-169q-10 0 -16.5 7t-6.5 18v53q0 10 6.5 16.5t16.5 6.5h169v176q0 10 6.5 17t16.5 7h59q10 0 17 -7t7 -17v-176h168q10 0 17 -6.5t7 -16.5v-53q0 -10 -7 -17.5t-17 -7.5h-168v-175q0 -10 -7 -17t-17 -7h-59zM84 101q-10 0 -16.5 -7
t-6.5 -17v-54q0 -10 6.5 -16.5t16.5 -6.5h443q10 0 17 6.5t7 16.5v54q0 10 -7 17t-17 7h-443z" />
    <glyph glyph-name="uni00B2" unicode="&#xb2;" horiz-adv-x="400" 
d="M338 369q8 0 14 -6t6 -14v-44q0 -8 -6 -13.5t-14 -5.5h-275q-8 0 -14 5.5t-6 13.5v38q0 19 16 30l151 133q28 25 39 39t11 30q0 22 -16 35.5t-46 13.5t-47.5 -12.5t-17.5 -33.5q0 -7 -6.5 -13t-14.5 -6h-48q-9 0 -15 5.5t-6 13.5q0 55 42.5 91.5t113.5 36.5q76 0 115 -35
t39 -86q0 -62 -67 -120l-108 -96h160z" />
    <glyph glyph-name="uni00B3" unicode="&#xb3;" horiz-adv-x="400" 
d="M304 497q59 -26 59 -93q0 -54 -44.5 -89t-121.5 -35q-74 0 -114.5 34.5t-43.5 84.5q-1 8 5.5 14t14.5 6h42q18 0 25 -20q6 -22 23 -30t49 -8q36 0 53.5 13.5t17.5 35.5q0 47 -68 47h-27q-9 0 -15 6t-6 14v39q0 19 21 19h27q63 0 63 45q-1 46 -66 46q-63 0 -71 -38
q-8 -21 -25 -21h-42q-9 0 -15.5 6t-5.5 14q6 50 46.5 84.5t118.5 34.5q81 0 117 -37t36 -82q0 -61 -53 -90z" />
    <glyph glyph-name="acute" unicode="&#xb4;" horiz-adv-x="291" 
d="M271 700q12 0 12 -11q0 -6 -4 -10l-79 -113q-9 -10 -18 -10h-64q-11 0 -11 10q0 2 3 8l2 5l55 106q7 15 24 15h80z" />
    <glyph glyph-name="uni00B5" unicode="&#xb5;" horiz-adv-x="547" 
d="M457 500q10 0 16.5 -7t6.5 -17v-453q0 -10 -6.5 -16.5t-16.5 -6.5h-61q-10 0 -16.5 6.5t-6.5 16.5v31q-46 -64 -135 -64q-43 0 -75 20v-187q0 -10 -6.5 -16.5t-16.5 -6.5h-55q-10 0 -16.5 6.5t-6.5 16.5v653q0 10 6.5 17t16.5 7h61q10 0 16.5 -7t6.5 -17v-271
q0 -59 27 -91t74 -32t75 32t28 91v271q0 10 6.5 17t16.5 7h61z" />
    <glyph glyph-name="paragraph" unicode="&#xb6;" horiz-adv-x="606" 
d="M324 605v-582q0 -10 -7 -16.5t-17 -6.5h-53q-10 0 -16.5 6.5t-6.5 16.5v293q-79 0 -131 50.5t-52 133.5v24q0 82 51.5 129t131.5 47h285q10 0 17 -7t7 -17v-653q0 -10 -7 -16.5t-17 -6.5h-53q-10 0 -16.5 6.5t-6.5 16.5v582h-109z" />
    <glyph glyph-name="periodcentered" unicode="&#xb7;" horiz-adv-x="248" 
d="M130 473q32 0 51.5 -19.5t19.5 -51.5t-19.5 -51.5t-51.5 -19.5t-51.5 19.5t-19.5 51.5t19.5 51.5t51.5 19.5z" />
    <glyph glyph-name="cedilla" unicode="&#xb8;" horiz-adv-x="264" 
d="M134 -43q32 0 59 -19.5t27 -57.5v-5q0 -35 -23.5 -59t-72.5 -24q-50 0 -79 29q-8 8 0 20l15 20q8 9 20 -1q18 -14 44 -14q14 0 24.5 7.5t10.5 22.5v3q0 13 -9.5 20.5t-22.5 7.5q-17 0 -33 -10q-10 -6 -12 -6q-3 0 -9 2l-20 9q-11 4 -4 22l34 93q2 7 8 7l37 -4q7 -2 7 -7
t-3 -11l-17 -48q11 3 19 3z" />
    <glyph glyph-name="uni00B9" unicode="&#xb9;" horiz-adv-x="400" 
d="M336 305q0 -8 -6 -13.5t-15 -5.5h-231q-8 0 -14 5.5t-6 13.5v41q0 8 6 14t14 6h77v206h-77q-8 0 -14 5.5t-6 13.5v36q0 8 6 14t14 6q49 0 75 37q14 16 30 16h42q8 0 14.5 -6t6.5 -14v-314h63q9 0 15 -6t6 -14v-41z" />
    <glyph glyph-name="ordmasculine" unicode="&#xba;" horiz-adv-x="426" 
d="M41 520q0 87 41.5 136.5t129.5 49.5t130 -49.5t42 -136.5v-54q0 -87 -41.5 -136.5t-129.5 -49.5t-130 49.5t-42 136.5v54zM134 464q0 -51 18 -76t61 -25q46 0 62.5 24.5t16.5 76.5v57q0 51 -18 75.5t-62 24.5t-61 -24.5t-17 -75.5v-57z" />
    <glyph glyph-name="guillemotright" unicode="&#xbb;" horiz-adv-x="593" 
d="M265 312q14 -11 14 -25v-60q0 -13 -14 -23l-195 -142q-8 -5 -11 -5q-10 0 -10 11v76q0 10 9 18l135 93l-135 93q-9 5 -9 17v83q0 10 10 10q6 0 12 -5zM543 315q15 -10 15 -25v-66q0 -13 -15 -23l-211 -139q-8 -5 -11 -5q-10 0 -10 11v76q0 11 10 18l143 93l-143 93
q-10 6 -10 17v83q0 10 10 10q7 0 13 -5z" />
    <glyph glyph-name="onequarter" unicode="&#xbc;" horiz-adv-x="934" 
d="M328 305q0 -7 -6.5 -13t-14.5 -6h-231q-8 0 -14 5.5t-6 13.5v41q0 8 6 14t14 6h77v205h-77q-8 0 -14 6t-6 14v36q0 8 6 14t14 6q49 0 75 37q14 16 30 16h42q8 0 14 -6t6 -14v-314h64q8 0 14.5 -6t6.5 -14v-41zM264 0q-17 0 -17 16q0 8 6 19l357 650q8 15 23 15h55
q16 0 16 -17q0 -7 -7 -19l-354 -645q-8 -19 -24 -19h-55zM901 101q0 -8 -6 -14t-14 -6h-53v-62q0 -8 -6 -13.5t-15 -5.5h-45q-9 0 -15 5.5t-6 13.5v62h-187q-9 0 -15 6t-6 14v40q0 17 9 29l169 224q15 20 31 20h65q9 0 15 -6t6 -14v-239h53q8 0 14 -5.5t6 -13.5v-35z
M745 319l-121 -164h121v164z" />
    <glyph glyph-name="onehalf" unicode="&#xbd;" horiz-adv-x="934" 
d="M328 305q0 -7 -6.5 -13t-14.5 -6h-231q-8 0 -14 5.5t-6 13.5v41q0 8 6 14t14 6h77v205h-77q-8 0 -14 6t-6 14v36q0 8 6 14t14 6q49 0 75 37q14 16 30 16h42q8 0 14 -6t6 -14v-314h64q8 0 14.5 -6t6.5 -14v-41zM698 683q0 -7 -7 -19l-354 -645q-8 -19 -24 -19h-55
q-17 0 -17 16q0 8 6 19l357 650q8 15 23 15h55q16 0 16 -17zM872 83q9 0 14.5 -6t5.5 -14v-44q0 -8 -5.5 -13.5t-14.5 -5.5h-275q-8 0 -14 5.5t-6 13.5v38q0 19 16 30l151 133q28 25 39 39t11 30q0 22 -16 35.5t-46 13.5t-47.5 -12.5t-17.5 -33.5q0 -7 -6.5 -13t-14.5 -6
h-48q-9 0 -15 5.5t-6 13.5q0 55 42.5 91.5t114.5 36.5q76 0 114.5 -35t38.5 -86q0 -63 -67 -120l-108 -96h160z" />
    <glyph glyph-name="threequarters" unicode="&#xbe;" horiz-adv-x="934" 
d="M359 404q0 -53 -44.5 -88.5t-121.5 -35.5q-75 0 -115.5 34.5t-43.5 84.5q0 8 6 14t15 6h42q18 0 25 -20q9 -38 71 -38q36 0 54 13.5t18 35.5q0 47 -68 47h-28q-8 0 -14.5 6t-6.5 14v39q0 8 6.5 13.5t14.5 5.5h28q30 0 46.5 11.5t15.5 33.5q0 46 -66 46q-62 0 -70 -38
q-8 -21 -25 -21h-43q-9 0 -15 6t-5 14q5 50 45.5 84.5t119.5 34.5q81 0 117 -37t36 -82q0 -61 -54 -90q60 -27 60 -93zM704 683q0 -7 -7 -19l-354 -645q-8 -19 -24 -19h-55q-17 0 -17 16q0 8 6 19l357 650q8 15 23 15h55q16 0 16 -17zM881 155q8 0 14 -5.5t6 -13.5v-35
q0 -8 -6 -14t-14 -6h-53v-62q0 -8 -6 -13.5t-15 -5.5h-45q-9 0 -15 5.5t-6 13.5v62h-187q-9 0 -15 6t-6 14v40q0 17 9 29l169 224q15 20 31 20h65q9 0 15 -6t6 -14v-239h53zM745 155v164l-121 -164h121z" />
    <glyph glyph-name="questiondown" unicode="&#xbf;" horiz-adv-x="510" 
d="M251 367q-31 0 -51 19.5t-20 51.5q0 31 19.5 50.5t51.5 19.5t51.5 -19.5t19.5 -50.5q0 -32 -20 -51.5t-51 -19.5zM223 297q-10 0 -16.5 -7t-6.5 -17v-25q0 -31 -17.5 -57.5t-43 -47t-50.5 -42.5t-42.5 -56t-17.5 -76q0 -81 56.5 -130t160.5 -49q57 0 100.5 18.5t67.5 49
t36.5 62t15.5 65.5q1 7 -4.5 12.5t-13.5 5.5h-60q-16 0 -19 -17q-4 -21 -10 -36t-18.5 -31.5t-36.5 -25t-59 -8.5q-46 0 -78.5 20t-32.5 64q0 30 17.5 55t43 44t50.5 41t42.5 57.5t17.5 81.5v25q0 10 -6.5 17t-16.5 7h-59z" />
    <glyph glyph-name="Agrave" unicode="&#xc0;" horiz-adv-x="641" 
d="M273 766l-80 113q-4 6 -4 10q0 11 13 11h80q17 0 23 -15l55 -106l2 -5q3 -6 3 -8q0 -10 -11 -10h-64q-10 0 -17 10zM617 37q0 -1 2 -5.5t3 -9t1 -6.5q0 -16 -17 -16h-73q-17 0 -21 13l-53 152h-283l-52 -151q-5 -14 -19 -14h-70q-17 0 -17 16q0 4 6 20l231 646
q7 18 24 18h83q16 0 23 -18zM210 262h217l-108 313z" />
    <glyph glyph-name="Aacute" unicode="&#xc1;" horiz-adv-x="641" 
d="M299 756q-11 0 -11 10q0 2 2 8l3 5l55 106q6 15 23 15h80q13 0 13 -11q0 -6 -4 -10l-79 -113q-9 -10 -18 -10h-64zM617 37q0 -1 2 -5.5t3 -9t1 -6.5q0 -16 -17 -16h-73q-17 0 -21 13l-53 152h-283l-52 -151q-5 -14 -19 -14h-70q-17 0 -17 16q0 4 6 20l231 646q7 18 24 18
h83q16 0 23 -18zM210 262h217l-108 313z" />
    <glyph glyph-name="Acircumflex" unicode="&#xc2;" horiz-adv-x="641" 
d="M203 756q-11 0 -11 10q0 5 6 13l67 106q10 15 27 15h72q14 0 24 -15l68 -108q5 -7 5 -11q0 -10 -11 -10h-59q-9 0 -18 10l-47 65l-46 -65q-9 -10 -18 -10h-59zM617 37q0 -1 2 -5.5t3 -9t1 -6.5q0 -16 -17 -16h-73q-17 0 -21 13l-53 152h-283l-52 -151q-5 -14 -19 -14h-70
q-17 0 -17 16q0 4 6 20l231 646q7 18 24 18h83q16 0 23 -18zM210 262h217l-108 313z" />
    <glyph glyph-name="Atilde" unicode="&#xc3;" horiz-adv-x="641" 
d="M184 759q-17 0 -17 16q0 50 28 81.5t70 31.5q33 0 71 -23t49 -23q24 0 24 30q0 7 5 12t12 5h41q7 0 12 -5t5 -12q0 -52 -25 -82.5t-70 -30.5q-35 0 -71 22t-48 22q-24 0 -26 -30q-2 -14 -17 -14h-43zM617 37q0 -1 2 -5.5t3 -9t1 -6.5q0 -16 -17 -16h-73q-17 0 -21 13
l-53 152h-283l-52 -151q-5 -14 -19 -14h-70q-17 0 -17 16q0 4 6 20l231 646q7 18 24 18h83q16 0 23 -18zM210 262h217l-108 313z" />
    <glyph glyph-name="Adieresis" unicode="&#xc4;" horiz-adv-x="641" 
d="M234 773q-26 0 -42.5 16.5t-16.5 42.5t16.5 42.5t42.5 16.5t42.5 -16.5t16.5 -42.5t-16.5 -42.5t-42.5 -16.5zM425 773q-27 0 -43 16.5t-16 42.5t16 42.5t43 16.5q26 0 42.5 -16.5t16.5 -42.5t-16.5 -42.5t-42.5 -16.5zM617 37q0 -1 2 -5.5t3 -9t1 -6.5q0 -16 -17 -16
h-73q-17 0 -21 13l-53 152h-283l-52 -151q-5 -14 -19 -14h-70q-17 0 -17 16q0 4 6 20l231 646q7 18 24 18h83q16 0 23 -18zM210 262h217l-108 313z" />
    <glyph glyph-name="Aring" unicode="&#xc5;" horiz-adv-x="641" 
d="M326 737q-48 0 -80.5 32.5t-32.5 79.5t32.5 80t80.5 33t81 -33t33 -80t-33 -79.5t-81 -32.5zM326 895q-19 0 -32 -13.5t-13 -32.5q0 -20 13 -33t32 -13t32 13t13 33q0 19 -13 32.5t-32 13.5zM617 37q0 -1 2 -5.5t3 -9t1 -6.5q0 -16 -17 -16h-73q-17 0 -21 13l-53 152
h-283l-52 -151q-5 -14 -19 -14h-70q-17 0 -17 16q0 4 6 20l231 646q7 18 24 18h83q16 0 23 -18zM210 262h217l-108 313z" />
    <glyph glyph-name="AE" unicode="&#xc6;" horiz-adv-x="854" 
d="M789 599h-273v-194h209q10 0 17 -7t7 -17v-54q0 -10 -7 -16.5t-17 -6.5h-209v-203h273q10 0 17 -6.5t7 -16.5v-55q0 -10 -7 -16.5t-17 -6.5h-358q-10 0 -16.5 6.5t-6.5 16.5v142h-240l-56 -151q-5 -14 -19 -14h-72q-17 0 -17 16q0 4 6 20l249 646q7 18 24 18h157h349
q10 0 17 -7t7 -17v-54q0 -10 -7 -16.5t-17 -6.5zM205 262h203v337h-76z" />
    <glyph glyph-name="Ccedilla" unicode="&#xc7;" horiz-adv-x="622" 
d="M559 242q7 0 12 -5.5t4 -12.5q-5 -90 -70.5 -158t-166.5 -75l-14 -38q11 4 25 4q31 0 57.5 -19.5t26.5 -57.5v-4q0 -35 -24.5 -59.5t-75.5 -24.5q-53 0 -82 29q-8 9 0 20l15 20q8 9 21 -1q17 -14 44 -14q13 0 24 7.5t11 22.5v3q0 13 -10 20.5t-23 7.5q-14 0 -27 -7
t-14 -7q-5 -2 -13 0l-20 9q-10 4 -5 20l26 70q-101 14 -164.5 90t-63.5 190v156q0 126 75.5 204t190.5 78q109 0 177.5 -66t78.5 -162q2 -20 -18 -20h-74q-15 0 -18 20q-9 54 -46.5 90.5t-99.5 36.5q-68 0 -113 -49t-45 -133v-155q0 -84 45 -132.5t113 -48.5
q63 0 101.5 36.5t45.5 93.5q2 21 18 21h76z" />
    <glyph glyph-name="Egrave" unicode="&#xc8;" horiz-adv-x="551" 
d="M151 900q-13 0 -13 -11q0 -4 4 -10l80 -113q7 -10 17 -10h64q11 0 11 10q0 2 -2 8l-3 5l-55 106q-6 15 -23 15h-80zM510 622q0 -10 -6.5 -16.5t-16.5 -6.5h-306v-194h242q10 0 16.5 -7t6.5 -17v-54q0 -10 -6.5 -16.5t-16.5 -6.5h-242v-203h306q10 0 16.5 -6.5t6.5 -16.5
v-55q0 -10 -6.5 -16.5t-16.5 -6.5h-390q-10 0 -16.5 6.5t-6.5 16.5v653q0 10 6.5 17t16.5 7h390q10 0 16.5 -7t6.5 -17v-54z" />
    <glyph glyph-name="Eacute" unicode="&#xc9;" horiz-adv-x="551" 
d="M400 900q13 0 13 -11q0 -6 -4 -10l-79 -113q-9 -10 -18 -10h-64q-11 0 -11 10q0 2 3 8l2 5l55 106q6 15 23 15h80zM510 622q0 -10 -6.5 -16.5t-16.5 -6.5h-306v-194h242q10 0 16.5 -7t6.5 -17v-54q0 -10 -6.5 -16.5t-16.5 -6.5h-242v-203h306q10 0 16.5 -6.5t6.5 -16.5
v-55q0 -10 -6.5 -16.5t-16.5 -6.5h-390q-10 0 -16.5 6.5t-6.5 16.5v653q0 10 6.5 17t16.5 7h390q10 0 16.5 -7t6.5 -17v-54z" />
    <glyph glyph-name="Ecircumflex" unicode="&#xca;" horiz-adv-x="551" 
d="M152 756q-11 0 -11 10q0 5 6 13l67 106q10 15 27 15h72q14 0 24 -15l68 -108q5 -7 5 -11q0 -10 -11 -10h-59q-9 0 -18 10l-47 65l-46 -65q-9 -10 -18 -10h-59zM487 599h-306v-194h242q10 0 16.5 -7t6.5 -17v-54q0 -10 -6.5 -16.5t-16.5 -6.5h-242v-203h306
q10 0 16.5 -6.5t6.5 -16.5v-55q0 -10 -6.5 -16.5t-16.5 -6.5h-390q-10 0 -16.5 6.5t-6.5 16.5v653q0 10 6.5 17t16.5 7h390q10 0 16.5 -7t6.5 -17v-54q0 -10 -6.5 -16.5t-16.5 -6.5z" />
    <glyph glyph-name="Edieresis" unicode="&#xcb;" horiz-adv-x="551" 
d="M183 891q26 0 42.5 -16.5t16.5 -42.5t-16.5 -42.5t-42.5 -16.5t-42.5 16.5t-16.5 42.5t16.5 42.5t42.5 16.5zM374 891q26 0 42.5 -16.5t16.5 -42.5t-16.5 -42.5t-42.5 -16.5q-27 0 -43 16.5t-16 42.5t16 42.5t43 16.5zM510 622q0 -10 -6.5 -16.5t-16.5 -6.5h-306v-194
h242q10 0 16.5 -7t6.5 -17v-54q0 -10 -6.5 -16.5t-16.5 -6.5h-242v-203h306q10 0 16.5 -6.5t6.5 -16.5v-55q0 -10 -6.5 -16.5t-16.5 -6.5h-390q-10 0 -16.5 6.5t-6.5 16.5v653q0 10 6.5 17t16.5 7h390q10 0 16.5 -7t6.5 -17v-54z" />
    <glyph glyph-name="Igrave" unicode="&#xcc;" horiz-adv-x="255" 
d="M3 900q-13 0 -13 -11q0 -6 4 -10l79 -113q9 -10 18 -10h64q11 0 11 10q0 2 -2 8l-3 5l-55 106q-6 15 -23 15h-80zM97 0q-10 0 -16.5 6.5t-6.5 16.5v653q0 10 6.5 17t16.5 7h61q10 0 16.5 -7t6.5 -17v-653q0 -10 -6.5 -16.5t-16.5 -6.5h-61z" />
    <glyph glyph-name="Iacute" unicode="&#xcd;" horiz-adv-x="255" 
d="M252 900q13 0 13 -11q0 -4 -4 -10l-80 -113q-7 -10 -17 -10h-64q-11 0 -11 10q0 6 5 13l55 106q6 15 23 15h80zM97 0q-10 0 -16.5 6.5t-6.5 16.5v653q0 10 6.5 17t16.5 7h61q10 0 16.5 -7t6.5 -17v-653q0 -10 -6.5 -16.5t-16.5 -6.5h-61z" />
    <glyph glyph-name="Icircumflex" unicode="&#xce;" horiz-adv-x="255" 
d="M257 777q4 -6 4 -11q0 -10 -10 -10h-59q-9 0 -18 10l-47 65l-46 -65q-9 -10 -18 -10h-59q-11 0 -11 10q0 5 6 13l67 106q10 15 27 15h72q14 0 24 -15zM158 700q10 0 16.5 -7t6.5 -17v-653q0 -10 -6.5 -16.5t-16.5 -6.5h-61q-10 0 -16.5 6.5t-6.5 16.5v653q0 10 6.5 17
t16.5 7h61z" />
    <glyph glyph-name="Idieresis" unicode="&#xcf;" horiz-adv-x="255" 
d="M35 891q26 0 42.5 -16.5t16.5 -42.5t-16.5 -42.5t-42.5 -16.5t-42.5 16.5t-16.5 42.5t16.5 42.5t42.5 16.5zM226 891q26 0 42.5 -16.5t16.5 -42.5t-16.5 -42.5t-42.5 -16.5q-27 0 -43 16.5t-16 42.5t16 42.5t43 16.5zM97 0q-10 0 -16.5 6.5t-6.5 16.5v653q0 10 6.5 17
t16.5 7h61q10 0 16.5 -7t6.5 -17v-653q0 -10 -6.5 -16.5t-16.5 -6.5h-61z" />
    <glyph glyph-name="Eth" unicode="&#xd0;" horiz-adv-x="636" 
d="M315 700q116 0 192.5 -77.5t76.5 -203.5v-137q0 -126 -76 -204t-192 -78h-219q-10 0 -16.5 6.5t-6.5 16.5v289h-68q-10 0 -16.5 6.5t-6.5 16.5v29q0 10 6.5 17t16.5 7h68v288q0 10 6.5 17t16.5 7h218zM475 282v135q0 84 -46 132.5t-114 48.5h-134v-210h116q7 0 13 -6
t6 -13v-38q0 -8 -6 -13.5t-13 -5.5h-116v-210h135q68 0 113.5 48t45.5 132z" />
    <glyph glyph-name="Ntilde" unicode="&#xd1;" horiz-adv-x="672" 
d="M193 759q-16 0 -16 16q0 50 27.5 81.5t69.5 31.5q33 0 71 -23t49 -23q24 0 24 30q0 7 5 12t12 5h42q7 0 12 -5t5 -12q0 -52 -25.5 -82.5t-70.5 -30.5q-35 0 -70.5 22t-47.5 22q-24 0 -27 -30q-2 -14 -16 -14h-44zM574 700q10 0 17 -7t7 -17v-653q0 -10 -7 -16.5t-17 -6.5
h-55q-20 0 -36 27l-304 502v-506q0 -10 -7 -16.5t-17 -6.5h-58q-10 0 -16.5 6.5t-6.5 16.5v653q0 10 6.5 17t16.5 7h77q18 0 27 -19l292 -485v480q0 10 6.5 17t16.5 7h58z" />
    <glyph glyph-name="Ograve" unicode="&#xd2;" 
d="M194 900q-13 0 -13 -11q0 -6 4 -10l79 -113q9 -10 18 -10h64q11 0 11 10q0 2 -3 8l-2 5l-55 106q-6 15 -23 15h-80zM52 428q0 126 75.5 204t190.5 78q116 0 191.5 -78t75.5 -204v-156q0 -126 -75.5 -204t-191.5 -78q-115 0 -190.5 78t-75.5 204v156zM160 272
q0 -84 45 -132.5t113 -48.5t113.5 48.5t45.5 132.5v155q0 84 -45.5 133t-113.5 49t-113 -49t-45 -133v-155z" />
    <glyph glyph-name="Oacute" unicode="&#xd3;" 
d="M443 900q13 0 13 -11q0 -4 -4 -10l-80 -113q-7 -10 -17 -10h-64q-11 0 -11 10q0 6 5 13l55 106q6 15 23 15h80zM52 428q0 126 75.5 204t190.5 78q116 0 191.5 -78t75.5 -204v-156q0 -126 -75.5 -204t-191.5 -78q-115 0 -190.5 78t-75.5 204v156zM160 272q0 -84 45 -132.5
t113 -48.5t113.5 48.5t45.5 132.5v155q0 84 -45.5 133t-113.5 49t-113 -49t-45 -133v-155z" />
    <glyph glyph-name="Ocircumflex" unicode="&#xd4;" 
d="M195 756q-11 0 -11 10q0 5 6 13l67 106q10 15 27 15h72q14 0 24 -15l68 -108l2 -5q2 -4 2 -6q0 -10 -10 -10h-59q-9 0 -18 10l-47 65l-46 -65q-9 -10 -18 -10h-59zM318 710q116 0 191.5 -78t75.5 -204v-156q0 -126 -75.5 -204t-191.5 -78q-115 0 -190.5 78t-75.5 204v156
q0 126 75.5 204t190.5 78zM477 272v155q0 84 -45.5 133t-113.5 49t-113 -49t-45 -133v-155q0 -84 45 -132.5t113 -48.5t113.5 48.5t45.5 132.5z" />
    <glyph glyph-name="Otilde" unicode="&#xd5;" 
d="M176 759q-17 0 -17 16q0 50 27.5 81.5t70.5 31.5q32 0 70.5 -23t49.5 -23q24 0 24 30q0 7 5 12t11 5h42q7 0 12 -5t5 -12q0 -52 -25 -82.5t-71 -30.5q-34 0 -70 22t-48 22q-24 0 -27 -30q0 -14 -16 -14h-43zM52 428q0 126 75.5 204t190.5 78q116 0 191.5 -78t75.5 -204
v-156q0 -126 -75.5 -204t-191.5 -78q-115 0 -190.5 78t-75.5 204v156zM160 272q0 -84 45 -132.5t113 -48.5t113.5 48.5t45.5 132.5v155q0 84 -45.5 133t-113.5 49t-113 -49t-45 -133v-155z" />
    <glyph glyph-name="Odieresis" unicode="&#xd6;" 
d="M226 891q26 0 42.5 -16.5t16.5 -42.5t-16.5 -42.5t-42.5 -16.5t-42.5 16.5t-16.5 42.5t16.5 42.5t42.5 16.5zM416 891q27 0 43.5 -16.5t16.5 -42.5t-16.5 -42.5t-43.5 -16.5q-26 0 -42 16.5t-16 42.5t16 42.5t42 16.5zM52 428q0 126 75.5 204t190.5 78q116 0 191.5 -78
t75.5 -204v-156q0 -126 -75.5 -204t-191.5 -78q-115 0 -190.5 78t-75.5 204v156zM160 272q0 -84 45 -132.5t113 -48.5t113.5 48.5t45.5 132.5v155q0 84 -45.5 133t-113.5 49t-113 -49t-45 -133v-155z" />
    <glyph glyph-name="multiply" unicode="&#xd7;" horiz-adv-x="612" 
d="M93 176q-17 16 0 33l142 142l-138 137q-7 7 -7 16.5t7 16.5l38 39q17 16 33 0l138 -138l141 141q17 17 33 0l39 -38q15 -17 0 -34l-142 -141l139 -137q15 -17 0 -34l-39 -38q-16 -17 -33 0l-138 138l-142 -142q-7 -7 -16.5 -7t-16.5 7z" />
    <glyph glyph-name="Oslash" unicode="&#xd8;" 
d="M579 700q11 0 14.5 -9t-3.5 -20l-52 -75q47 -70 47 -168v-156q0 -126 -75.5 -204t-191.5 -78q-95 0 -164 54l-20 -28q-10 -16 -25 -16h-51q-11 0 -14.5 9t3.5 20l52 75q-47 71 -47 168v156q0 126 75.5 204t190.5 78q96 0 165 -54l19 28q11 16 25 16h52zM160 272
q0 -37 9 -67l253 364q-43 40 -104 40q-68 0 -113 -49t-45 -133v-155zM477 427q0 38 -9 68l-254 -365q42 -39 104 -39q68 0 113.5 48.5t45.5 132.5v155z" />
    <glyph glyph-name="Ugrave" unicode="&#xd9;" 
d="M194 900q-13 0 -13 -11q0 -4 4 -10l80 -113q7 -10 17 -10h64q11 0 11 10q0 2 -3 8l-2 5l-55 106q-6 15 -23 15h-80zM489 700q-10 0 -16.5 -7t-6.5 -17v-410q0 -84 -40.5 -129.5t-107.5 -45.5t-107 45t-40 130v410q0 10 -6.5 17t-16.5 7h-61q-10 0 -16.5 -7t-6.5 -17v-410
q0 -126 70 -201t184 -75t184.5 75t70.5 201v410q0 10 -6.5 17t-16.5 7h-61z" />
    <glyph glyph-name="Uacute" unicode="&#xda;" 
d="M443 900q13 0 13 -11q0 -4 -4 -10l-80 -113q-7 -10 -17 -10h-64q-11 0 -11 10q0 2 2 8l3 5l55 106q6 15 23 15h80zM489 700q-10 0 -16.5 -7t-6.5 -17v-410q0 -84 -40.5 -129.5t-107.5 -45.5t-107 45t-40 130v410q0 10 -6.5 17t-16.5 7h-61q-10 0 -16.5 -7t-6.5 -17v-410
q0 -126 70 -201t184 -75t184.5 75t70.5 201v410q0 10 -6.5 17t-16.5 7h-61z" />
    <glyph glyph-name="Ucircumflex" unicode="&#xdb;" 
d="M195 756q-11 0 -11 10q0 5 6 13l67 106q10 15 27 15h72q14 0 24 -15l68 -108q5 -7 5 -11q0 -10 -11 -10h-59q-9 0 -18 10l-47 65l-46 -65q-9 -10 -18 -10h-59zM550 700q10 0 16.5 -7t6.5 -17v-410q0 -126 -70.5 -201t-184.5 -75t-184 75t-70 201v410q0 10 6.5 17t16.5 7
h61q10 0 16.5 -7t6.5 -17v-410q0 -85 40 -130t107 -45t107.5 45.5t40.5 129.5v410q0 10 6.5 17t16.5 7h61z" />
    <glyph glyph-name="Udieresis" unicode="&#xdc;" 
d="M226 891q26 0 42.5 -16.5t16.5 -42.5t-16.5 -42.5t-42.5 -16.5t-42.5 16.5t-16.5 42.5t16.5 42.5t42.5 16.5zM417 891q26 0 42.5 -16.5t16.5 -42.5t-16.5 -42.5t-42.5 -16.5q-27 0 -43 16.5t-16 42.5t16 42.5t43 16.5zM489 700q-10 0 -16.5 -7t-6.5 -17v-410
q0 -84 -40.5 -129.5t-107.5 -45.5t-107 45t-40 130v410q0 10 -6.5 17t-16.5 7h-61q-10 0 -16.5 -7t-6.5 -17v-410q0 -126 70 -201t184 -75t184.5 75t70.5 201v410q0 10 -6.5 17t-16.5 7h-61z" />
    <glyph glyph-name="Yacute" unicode="&#xdd;" horiz-adv-x="618" 
d="M281 756q-10 0 -10 10q0 6 5 13l55 106q6 15 23 15h80q13 0 13 -11q0 -4 -4 -10l-80 -113q-7 -10 -17 -10h-65zM582 700q16 0 16 -17q0 -7 -11 -26l-225 -379v-255q0 -10 -7 -16.5t-17 -6.5h-61q-10 0 -16.5 6.5t-6.5 16.5v256l-223 379q-1 2 -4 7t-5 9.5t-2 8.5
q0 17 17 17h79q12 0 19 -14l176 -307l176 308q9 13 20 13h75z" />
    <glyph glyph-name="Thorn" unicode="&#xde;" horiz-adv-x="601" 
d="M349 573q97 0 156.5 -52.5t59.5 -146.5v-25q0 -96 -60 -152.5t-156 -56.5h-168v-117q0 -10 -6.5 -16.5t-16.5 -6.5h-61q-10 0 -16.5 6.5t-6.5 16.5v653q0 10 6.5 17t16.5 7h61q10 0 16.5 -7t6.5 -16v-104h168zM458 349v18q0 53 -32.5 79t-83.5 26h-161v-231h161
q50 0 83 27.5t33 80.5z" />
    <glyph glyph-name="germandbls" unicode="&#xdf;" horiz-adv-x="585" 
d="M306 409q-10 0 -17 -6.5t-7 -16.5v-46q0 -10 7 -16.5t17 -6.5h16q57 0 88 -29.5t31 -86.5q0 -114 -103 -114q-23 0 -43 3.5t-23 3.5q-7 0 -12 -4.5t-5 -11.5v-56q0 -19 20 -24q28 -8 73 -8q91 0 143 51t52 149q0 132 -105 175q70 33 70 146q0 85 -52.5 137t-154.5 52
q-108 0 -158.5 -57.5t-53.5 -142.5h-55q-10 0 -16.5 -7t-6.5 -17v-44q0 -10 6.5 -16.5t16.5 -6.5h55v-392q0 -17 23 -17h61q10 0 16.5 6.5t6.5 16.5v459q0 121 106 121q49 0 77 -26t28 -75q0 -93 -85 -93h-16z" />
    <glyph glyph-name="agrave" unicode="&#xe0;" horiz-adv-x="502" 
d="M129 700q-12 0 -12 -11q0 -6 4 -10l79 -113q7 -10 18 -10h64q11 0 11 10q0 4 -6 13l-54 106q-7 15 -24 15h-80zM440 23q0 -10 -6.5 -16.5t-16.5 -6.5h-54q-10 0 -16.5 6.5t-6.5 16.5v33q-15 -31 -50 -48.5t-77 -17.5h-16q-70 0 -115.5 36.5t-45.5 114.5q0 152 201 152
h103v26q0 99 -98 99q-44 0 -61 -14.5t-23 -41.5q-5 -16 -19 -16h-63q-19 0 -19 18q0 4 2 12q5 25 14 44.5t28 42t55 35t86 12.5q61 0 102 -16t61 -46t27.5 -61t7.5 -71v-293zM240 214q-51 0 -77.5 -16t-26.5 -57q0 -35 23.5 -50.5t58.5 -15.5h16q33 0 55.5 9.5t32.5 27.5
t14 36t4 41v25h-100z" />
    <glyph glyph-name="aacute" unicode="&#xe1;" horiz-adv-x="502" 
d="M379 700q12 0 12 -11q0 -6 -4 -10l-79 -113q-7 -10 -17 -10h-65q-10 0 -10 10q0 6 5 13l54 106q7 15 24 15h80zM440 23q0 -10 -6.5 -16.5t-16.5 -6.5h-54q-10 0 -16.5 6.5t-6.5 16.5v33q-15 -31 -50 -48.5t-77 -17.5h-16q-70 0 -115.5 36.5t-45.5 114.5q0 152 201 152
h103v26q0 99 -98 99q-44 0 -61 -14.5t-23 -41.5q-5 -16 -19 -16h-63q-19 0 -19 18q0 4 2 12q5 25 14 44.5t28 42t55 35t86 12.5q61 0 102 -16t61 -46t27.5 -61t7.5 -71v-293zM240 214q-51 0 -77.5 -16t-26.5 -57q0 -35 23.5 -50.5t58.5 -15.5h16q33 0 55.5 9.5t32.5 27.5
t14 36t4 41v25h-100z" />
    <glyph glyph-name="acircumflex" unicode="&#xe2;" horiz-adv-x="502" 
d="M131 556q-11 0 -11 10q0 3 5 13l68 106q9 15 26 15h73q15 0 23 -15l69 -108l2 -5q2 -4 2 -6q0 -10 -11 -10h-59q-8 0 -17 10l-47 65l-47 -65q-7 -10 -17 -10h-59zM242 510q61 0 102 -16t61 -46t27.5 -61t7.5 -71v-293q0 -10 -6.5 -16.5t-16.5 -6.5h-54q-10 0 -16.5 6.5
t-6.5 16.5v33q-15 -31 -50 -48.5t-77 -17.5h-16q-70 0 -115.5 36.5t-45.5 114.5q0 152 201 152h103v26q0 99 -98 99q-44 0 -61 -14.5t-23 -41.5q-5 -16 -19 -16h-63q-19 0 -19 18q0 4 2 12q5 25 14 44.5t28 42t55 35t86 12.5zM340 189v25h-100q-51 0 -77.5 -16t-26.5 -57
q0 -35 23.5 -50.5t58.5 -15.5h16q33 0 55.5 9.5t32.5 27.5t14 36t4 41z" />
    <glyph glyph-name="atilde" unicode="&#xe3;" horiz-adv-x="502" 
d="M111 559q-16 0 -16 16q0 50 27.5 81.5t69.5 31.5q33 0 71 -23t49 -23q25 0 25 30q0 7 4.5 12t11.5 5h42q7 0 12 -5t5 -12q0 -52 -25 -82.5t-71 -30.5q-35 0 -70.5 22t-47.5 22q-24 0 -27 -30q-2 -14 -16 -14h-44zM440 23q0 -10 -6.5 -16.5t-16.5 -6.5h-54
q-10 0 -16.5 6.5t-6.5 16.5v33q-15 -31 -50 -48.5t-77 -17.5h-16q-70 0 -115.5 36.5t-45.5 114.5q0 152 201 152h103v26q0 99 -98 99q-44 0 -61 -14.5t-23 -41.5q-5 -16 -19 -16h-63q-19 0 -19 18q0 4 2 12q5 25 14 44.5t28 42t55 35t86 12.5q61 0 102 -16t61 -46t27.5 -61
t7.5 -71v-293zM240 214q-51 0 -77.5 -16t-26.5 -57q0 -35 23.5 -50.5t58.5 -15.5h16q33 0 55.5 9.5t32.5 27.5t14 36t4 41v25h-100z" />
    <glyph glyph-name="adieresis" unicode="&#xe4;" horiz-adv-x="502" 
d="M162 691q26 0 42.5 -16.5t16.5 -42.5t-16.5 -42.5t-42.5 -16.5q-27 0 -43 16.5t-16 42.5t16 42.5t43 16.5zM352 691q26 0 42.5 -16.5t16.5 -42.5t-16.5 -42.5t-42.5 -16.5t-42.5 16.5t-16.5 42.5t16.5 42.5t42.5 16.5zM440 23q0 -10 -6.5 -16.5t-16.5 -6.5h-54
q-10 0 -16.5 6.5t-6.5 16.5v33q-15 -31 -50 -48.5t-77 -17.5h-16q-70 0 -115.5 36.5t-45.5 114.5q0 152 201 152h103v26q0 99 -98 99q-44 0 -61 -14.5t-23 -41.5q-5 -16 -19 -16h-63q-19 0 -19 18q0 4 2 12q5 25 14 44.5t28 42t55 35t86 12.5q61 0 102 -16t61 -46t27.5 -61
t7.5 -71v-293zM240 214q-51 0 -77.5 -16t-26.5 -57q0 -35 23.5 -50.5t58.5 -15.5h16q33 0 55.5 9.5t32.5 27.5t14 36t4 41v25h-100z" />
    <glyph glyph-name="aring" unicode="&#xe5;" horiz-adv-x="502" 
d="M254 762q47 0 80.5 -33t33.5 -80t-33.5 -79.5t-80.5 -32.5q-48 0 -81 32.5t-33 79.5t33 80t81 33zM254 603q18 0 31 13t13 33q0 19 -13 32.5t-31 13.5q-20 0 -33 -13.5t-13 -32.5q0 -20 13 -33t33 -13zM440 23q0 -10 -6.5 -16.5t-16.5 -6.5h-54q-10 0 -16.5 6.5
t-6.5 16.5v33q-15 -31 -50 -48.5t-77 -17.5h-16q-70 0 -115.5 36.5t-45.5 114.5q0 152 201 152h103v26q0 99 -98 99q-44 0 -61 -14.5t-23 -41.5q-5 -16 -19 -16h-63q-19 0 -19 18q0 4 2 12q5 25 14 44.5t28 42t55 35t86 12.5q61 0 102 -16t61 -46t27.5 -61t7.5 -71v-293z
M240 214q-51 0 -77.5 -16t-26.5 -57q0 -35 23.5 -50.5t58.5 -15.5h16q33 0 55.5 9.5t32.5 27.5t14 36t4 41v25h-100z" />
    <glyph glyph-name="ae" unicode="&#xe6;" horiz-adv-x="801" 
d="M550 510q88 0 147 -63t59 -162v-46q0 -10 -7 -16.5t-17 -6.5h-287v-15q0 -53 29.5 -86t75.5 -33q63 0 93 60q8 14 23 14h65q16 0 16 -16q0 -4 -5 -17q-25 -68 -78.5 -100.5t-113.5 -32.5q-109 0 -160 89q-24 -45 -70 -67t-95 -22h-15q-72 0 -123 37t-51 114
q0 150 195 150h106v28q0 49 -21.5 74t-73.5 25q-44 0 -61 -14.5t-23 -41.5q-5 -16 -19 -16h-63q-19 0 -19 18q0 4 2 12q5 25 14 44.5t28 42t55 35t86 12.5q113 0 157 -74q58 74 151 74zM651 291v11q0 54 -28 85t-73 31q-47 0 -76 -31t-29 -85v-11h206zM234 75q103 0 103 126
v11h-103q-98 0 -98 -71q0 -35 23.5 -50.5t58.5 -15.5h16z" />
    <glyph glyph-name="ccedilla" unicode="&#xe7;" horiz-adv-x="504" 
d="M446 184q16 0 16 -17q0 -11 -1 -15q-12 -60 -63 -110t-135 -52l-13 -37q11 4 25 4q31 0 57.5 -19.5t26.5 -57.5v-4q0 -36 -24.5 -60t-75.5 -24q-53 0 -82 29q-8 9 0 20l16 20q7 10 20 -1q17 -14 44 -14q14 0 24.5 7.5t10.5 22.5v3q0 13 -10 20.5t-23 7.5q-14 0 -27 -7
t-14 -7q-5 -2 -13 0l-20 9q-10 4 -5 20l27 74q-72 16 -117 75t-45 146v65q0 103 60.5 165.5t151.5 62.5q80 0 134 -46.5t70 -118.5q2 -12 2 -13q0 -16 -16 -16h-68q-14 0 -18 15q-20 87 -104 87q-48 0 -78 -32.5t-30 -90.5v-90q0 -58 30.5 -90.5t78.5 -32.5q82 0 102 87
q3 15 17 15h69z" />
    <glyph glyph-name="egrave" unicode="&#xe8;" horiz-adv-x="517" 
d="M134 700q-13 0 -13 -11q0 -4 4 -10l80 -113q7 -10 17 -10h65q10 0 10 10q0 6 -5 13l-55 106q-6 15 -23 15h-80zM152 201q0 -53 31 -86t78 -33q69 0 98 60q11 14 24 14h64q16 0 16 -16q0 -7 -4 -17q-26 -68 -81 -100.5t-117 -32.5q-92 0 -154 62t-62 165v65
q0 103 61.5 165.5t153.5 62.5q91 0 152 -63t61 -162v-47q0 -10 -7 -16.5t-17 -6.5h-297v-14zM368 291v11q0 54 -30 85t-78 31t-78 -31t-30 -85v-11h216z" />
    <glyph glyph-name="eacute" unicode="&#xe9;" horiz-adv-x="517" 
d="M384 700q12 0 12 -11q0 -6 -4 -10l-79 -113q-7 -10 -18 -10h-64q-11 0 -11 10q0 2 2 8l3 5l55 106q8 15 24 15h80zM152 201q0 -53 31 -86t78 -33q69 0 98 60q11 14 24 14h64q16 0 16 -16q0 -7 -4 -17q-26 -68 -81 -100.5t-117 -32.5q-92 0 -154 62t-62 165v65
q0 103 61.5 165.5t153.5 62.5q91 0 152 -63t61 -162v-47q0 -10 -7 -16.5t-17 -6.5h-297v-14zM368 291v11q0 54 -30 85t-78 31t-78 -31t-30 -85v-11h216z" />
    <glyph glyph-name="ecircumflex" unicode="&#xea;" horiz-adv-x="517" 
d="M135 556q-10 0 -10 10q0 3 5 13l68 106q9 15 26 15h73q13 0 23 -15l68 -108q5 -7 5 -11q0 -10 -11 -10h-59q-10 0 -17 10l-47 66l-47 -66q-7 -10 -18 -10h-59zM260 510q91 0 152 -63t61 -162v-47q0 -10 -7 -16.5t-17 -6.5h-297v-14q0 -53 31 -86t78 -33q69 0 98 60
q11 14 24 14h64q16 0 16 -16q0 -7 -4 -17q-26 -68 -81 -100.5t-117 -32.5q-92 0 -154 62t-62 165v65q0 103 61.5 165.5t153.5 62.5zM368 291v11q0 54 -30 85t-78 31t-78 -31t-30 -85v-11h216z" />
    <glyph glyph-name="edieresis" unicode="&#xeb;" horiz-adv-x="517" 
d="M166 691q27 0 43 -16.5t16 -42.5t-16 -42.5t-43 -16.5q-26 0 -42 16.5t-16 42.5t16 42.5t42 16.5zM357 691q26 0 42.5 -16.5t16.5 -42.5t-16.5 -42.5t-42.5 -16.5t-42.5 16.5t-16.5 42.5t16.5 42.5t42.5 16.5zM152 201q0 -53 31 -86t78 -33q69 0 98 60q11 14 24 14h64
q16 0 16 -16q0 -7 -4 -17q-26 -68 -81 -100.5t-117 -32.5q-92 0 -154 62t-62 165v65q0 103 61.5 165.5t153.5 62.5q91 0 152 -63t61 -162v-47q0 -10 -7 -16.5t-17 -6.5h-297v-14zM368 291v11q0 54 -30 85t-78 31t-78 -31t-30 -85v-11h216z" />
    <glyph glyph-name="igrave" unicode="&#xec;" horiz-adv-x="251" 
d="M1 700q-13 0 -13 -11q0 -6 4 -10l79 -113q9 -10 18 -10h64q11 0 11 10q0 2 -2 8l-3 5l-55 106q-6 15 -23 15h-80zM95 0q-10 0 -16.5 6.5t-6.5 16.5v453q0 10 6.5 17t16.5 7h61q10 0 16.5 -7t6.5 -17v-453q0 -10 -6.5 -16.5t-16.5 -6.5h-61z" />
    <glyph glyph-name="iacute" unicode="&#xed;" horiz-adv-x="251" 
d="M250 700q13 0 13 -11q0 -4 -4 -10l-80 -113q-7 -10 -17 -10h-64q-11 0 -11 10q0 2 3 8l2 5l55 106q6 15 23 15h80zM95 0q-10 0 -16.5 6.5t-6.5 16.5v453q0 10 6.5 17t16.5 7h61q10 0 16.5 -7t6.5 -17v-453q0 -10 -6.5 -16.5t-16.5 -6.5h-61z" />
    <glyph glyph-name="icircumflex" unicode="&#xee;" horiz-adv-x="251" 
d="M255 577q5 -7 5 -11q0 -10 -11 -10h-59q-9 0 -18 10l-47 65l-46 -65q-9 -10 -18 -10h-59q-11 0 -11 10q0 5 6 13l67 106q10 15 27 15h72q14 0 24 -15zM156 500q10 0 16.5 -7t6.5 -17v-453q0 -10 -6.5 -16.5t-16.5 -6.5h-61q-10 0 -16.5 6.5t-6.5 16.5v453q0 10 6.5 17
t16.5 7h61z" />
    <glyph glyph-name="idieresis" unicode="&#xef;" horiz-adv-x="251" 
d="M33 691q26 0 42.5 -16.5t16.5 -42.5t-16.5 -42.5t-42.5 -16.5t-42.5 16.5t-16.5 42.5t16.5 42.5t42.5 16.5zM224 691q26 0 42.5 -16.5t16.5 -42.5t-16.5 -42.5t-42.5 -16.5q-27 0 -43 16.5t-16 42.5t16 42.5t43 16.5zM95 0q-10 0 -16.5 6.5t-6.5 16.5v453q0 10 6.5 17
t16.5 7h61q10 0 16.5 -7t6.5 -17v-453q0 -10 -6.5 -16.5t-16.5 -6.5h-61z" />
    <glyph glyph-name="eth" unicode="&#xf0;" horiz-adv-x="520" 
d="M405 626q70 -75 70 -217v-192q0 -103 -61.5 -165t-153.5 -62q-93 0 -154 58.5t-61 156.5v49q0 95 60 154.5t155 59.5q64 0 112 -39v7q0 77 -35 121l-46 -46q-17 -17 -32 -1l-23 21q-13 13 1 28l41 41q-35 14 -88 14q-24 0 -24 24v46q0 16 16 16h17q88 0 147 -31l38 39
q16 18 33 1l23 -22q14 -13 -4 -31zM367 205v48q0 59 -29.5 91.5t-77.5 32.5t-78 -33t-30 -91v-48q0 -58 30 -90.5t78 -32.5t77.5 32.5t29.5 90.5z" />
    <glyph glyph-name="ntilde" unicode="&#xf1;" horiz-adv-x="556" 
d="M135 559q-16 0 -16 16q0 50 27.5 81.5t69.5 31.5q33 0 71 -23t49 -23q24 0 24 30q0 7 5 12t12 5h42q7 0 12 -5t5 -12q0 -52 -25 -82.5t-71 -30.5q-35 0 -70.5 22t-47.5 22q-24 0 -27 -30q-2 -14 -16 -14h-44zM90 0q-10 0 -16.5 6.5t-6.5 16.5v453q0 10 6.5 17t16.5 7h61
q10 0 16.5 -7t6.5 -17v-33q46 67 138 67q90 0 136 -61.5t46 -166.5v-259q0 -10 -6.5 -16.5t-16.5 -6.5h-61q-10 0 -16.5 6.5t-6.5 16.5v272q0 58 -29.5 90.5t-77.5 32.5t-77 -32t-29 -91v-272q0 -10 -6.5 -16.5t-16.5 -6.5h-61z" />
    <glyph glyph-name="ograve" unicode="&#xf2;" horiz-adv-x="520" 
d="M135 700q-12 0 -12 -11q0 -6 4 -10l79 -113q7 -10 17 -10h65q10 0 10 10q0 6 -5 13l-55 106q-6 15 -23 15h-80zM45 282q0 103 61 165.5t154 62.5q92 0 153.5 -62.5t61.5 -165.5v-65q0 -103 -61.5 -165t-153.5 -62q-93 0 -154 62t-61 165v65zM152 205q0 -58 30 -90.5
t78 -32.5t77.5 32.5t29.5 90.5v90q0 58 -29.5 90.5t-77.5 32.5t-78 -32.5t-30 -90.5v-90z" />
    <glyph glyph-name="oacute" unicode="&#xf3;" horiz-adv-x="520" 
d="M385 700q12 0 12 -11q0 -6 -4 -10l-79 -113q-7 -10 -18 -10h-64q-11 0 -11 10q0 4 6 13l54 106q7 15 24 15h80zM45 282q0 103 61 165.5t154 62.5q92 0 153.5 -62.5t61.5 -165.5v-65q0 -103 -61.5 -165t-153.5 -62q-93 0 -154 62t-61 165v65zM152 205q0 -58 30 -90.5
t78 -32.5t77.5 32.5t29.5 90.5v90q0 58 -29.5 90.5t-77.5 32.5t-78 -32.5t-30 -90.5v-90z" />
    <glyph glyph-name="ocircumflex" unicode="&#xf4;" horiz-adv-x="520" 
d="M136 556q-10 0 -10 10q0 3 5 13l68 106q9 15 26 15h73q13 0 23 -15l68 -108q5 -7 5 -11q0 -10 -11 -10h-59q-8 0 -17 10l-47 66l-47 -66q-7 -10 -17 -10h-60zM260 510q92 0 153.5 -62.5t61.5 -165.5v-65q0 -103 -61.5 -165t-153.5 -62q-93 0 -154 62t-61 165v65
q0 103 61 165.5t154 62.5zM367 205v90q0 58 -29.5 90.5t-77.5 32.5t-78 -32.5t-30 -90.5v-90q0 -58 30 -90.5t78 -32.5t77.5 32.5t29.5 90.5z" />
    <glyph glyph-name="otilde" unicode="&#xf5;" horiz-adv-x="520" 
d="M117 559q-16 0 -16 16q0 50 27.5 81.5t69.5 31.5q33 0 71 -23t49 -23q24 0 24 30q0 7 5 12t12 5h42q7 0 12 -5t5 -12q0 -52 -25.5 -82.5t-70.5 -30.5q-35 0 -70.5 22t-47.5 22q-24 0 -27 -30q-2 -14 -16 -14h-44zM45 282q0 103 61 165.5t154 62.5q92 0 153.5 -62.5
t61.5 -165.5v-65q0 -103 -61.5 -165t-153.5 -62q-93 0 -154 62t-61 165v65zM152 205q0 -58 30 -90.5t78 -32.5t77.5 32.5t29.5 90.5v90q0 58 -29.5 90.5t-77.5 32.5t-78 -32.5t-30 -90.5v-90z" />
    <glyph glyph-name="odieresis" unicode="&#xf6;" horiz-adv-x="520" 
d="M167 691q27 0 43.5 -16.5t16.5 -42.5t-16.5 -42.5t-43.5 -16.5q-26 0 -42 16.5t-16 42.5t16 42.5t42 16.5zM358 691q26 0 42.5 -16.5t16.5 -42.5t-16.5 -42.5t-42.5 -16.5t-42.5 16.5t-16.5 42.5t16.5 42.5t42.5 16.5zM45 282q0 103 61 165.5t154 62.5q92 0 153.5 -62.5
t61.5 -165.5v-65q0 -103 -61.5 -165t-153.5 -62q-93 0 -154 62t-61 165v65zM152 205q0 -58 30 -90.5t78 -32.5t77.5 32.5t29.5 90.5v90q0 58 -29.5 90.5t-77.5 32.5t-78 -32.5t-30 -90.5v-90z" />
    <glyph glyph-name="divide" unicode="&#xf7;" horiz-adv-x="612" 
d="M307 634q30 0 49 -18.5t19 -49.5q0 -30 -19 -48.5t-49 -18.5t-48.5 18.5t-18.5 48.5q0 31 18.5 49.5t48.5 18.5zM84 401q-10 0 -16.5 -7t-6.5 -17v-54q0 -10 6.5 -16.5t16.5 -6.5h443q10 0 17 6.5t7 16.5v54q0 10 -7 17t-17 7h-443zM307 202q30 0 49 -19t19 -49
t-19 -48.5t-49 -18.5t-48.5 18.5t-18.5 48.5t18.5 49t48.5 19z" />
    <glyph glyph-name="oslash" unicode="&#xf8;" horiz-adv-x="520" 
d="M469 500q12 0 16 -9t-5 -20l-42 -54q37 -58 37 -135v-65q0 -103 -61.5 -165t-153.5 -62q-68 0 -123 36l-8 -10q-11 -16 -25 -16h-51q-12 0 -15 9t5 20l40 52q-38 57 -38 136v65q0 103 61 165.5t154 62.5q70 0 124 -37l9 11q12 16 25 16h51zM150 205q0 -17 3 -32l174 225
q-28 22 -67 22q-49 0 -79.5 -33t-30.5 -92v-90zM369 295q0 11 -2 29l-172 -223q26 -21 65 -21q49 0 79 33t30 92v90z" />
    <glyph glyph-name="ugrave" unicode="&#xf9;" horiz-adv-x="544" 
d="M149 700q-13 0 -13 -11q0 -4 4 -10l80 -113q7 -10 17 -10h64q11 0 11 10q0 2 -2 8l-3 5l-55 106q-6 15 -23 15h-80zM454 500q10 0 16.5 -7t6.5 -17v-453q0 -10 -6.5 -16.5t-16.5 -6.5h-61q-10 0 -16.5 6.5t-6.5 16.5v31q-46 -64 -134 -64q-86 0 -130 60t-44 167v259
q0 10 6.5 17t16.5 7h61q10 0 16.5 -7t6.5 -17v-271q0 -59 26.5 -91t72.5 -32q47 0 74.5 32t27.5 91v271q0 10 6.5 17t16.5 7h61z" />
    <glyph glyph-name="uacute" unicode="&#xfa;" horiz-adv-x="544" 
d="M398 700q13 0 13 -11q0 -4 -4 -10l-80 -113q-7 -10 -17 -10h-64q-11 0 -11 10q0 2 3 8l2 5l55 106q6 15 23 15h80zM454 500q10 0 16.5 -7t6.5 -17v-453q0 -10 -6.5 -16.5t-16.5 -6.5h-61q-10 0 -16.5 6.5t-6.5 16.5v31q-46 -64 -134 -64q-86 0 -130 60t-44 167v259
q0 10 6.5 17t16.5 7h61q10 0 16.5 -7t6.5 -17v-271q0 -59 26.5 -91t72.5 -32q47 0 74.5 32t27.5 91v271q0 10 6.5 17t16.5 7h61z" />
    <glyph glyph-name="ucircumflex" unicode="&#xfb;" horiz-adv-x="544" 
d="M150 556q-11 0 -11 10q0 5 6 13l67 106q10 15 27 15h72q14 0 24 -15l68 -108q5 -7 5 -11q0 -10 -11 -10h-59q-9 0 -18 10l-47 65l-46 -65q-9 -10 -18 -10h-59zM454 500q10 0 16.5 -7t6.5 -17v-453q0 -10 -6.5 -16.5t-16.5 -6.5h-61q-10 0 -16.5 6.5t-6.5 16.5v31
q-46 -64 -134 -64q-86 0 -130 60t-44 167v259q0 10 6.5 17t16.5 7h61q10 0 16.5 -7t6.5 -17v-271q0 -59 26.5 -91t72.5 -32q47 0 74.5 32t27.5 91v271q0 10 6.5 17t16.5 7h61z" />
    <glyph glyph-name="udieresis" unicode="&#xfc;" horiz-adv-x="544" 
d="M181 691q26 0 42.5 -16.5t16.5 -42.5t-16.5 -42.5t-42.5 -16.5t-42.5 16.5t-16.5 42.5t16.5 42.5t42.5 16.5zM372 691q26 0 42.5 -16.5t16.5 -42.5t-16.5 -42.5t-42.5 -16.5q-27 0 -43 16.5t-16 42.5t16 42.5t43 16.5zM454 500q10 0 16.5 -7t6.5 -17v-453
q0 -10 -6.5 -16.5t-16.5 -6.5h-61q-10 0 -16.5 6.5t-6.5 16.5v31q-46 -64 -134 -64q-86 0 -130 60t-44 167v259q0 10 6.5 17t16.5 7h61q10 0 16.5 -7t6.5 -17v-271q0 -59 26.5 -91t72.5 -32q47 0 74.5 32t27.5 91v271q0 10 6.5 17t16.5 7h61z" />
    <glyph glyph-name="yacute" unicode="&#xfd;" horiz-adv-x="499" 
d="M222 556q-11 0 -11 10q0 2 3 8l2 5l55 106q6 15 23 15h80q13 0 13 -11q0 -6 -4 -10l-79 -113q-9 -10 -18 -10h-64zM469 500q16 0 16 -17q0 -7 -6 -21l-192 -497q-18 -48 -30.5 -73t-33 -49t-49.5 -33.5t-72 -9.5h-44q-10 0 -16.5 6.5t-6.5 16.5v52q0 10 6.5 16.5
t16.5 6.5h37q40 0 59 16.5t31 48.5l15 41l-175 450q-9 27 -9 29q0 17 17 17h70q17 0 24 -21l128 -345l121 346q6 20 23 20h70z" />
    <glyph glyph-name="thorn" unicode="&#xfe;" horiz-adv-x="542" 
d="M174 -177q0 -10 -6.5 -16.5t-16.5 -6.5h-61q-10 0 -16.5 6.5t-6.5 16.5v853q0 10 6.5 17t16.5 7h61q10 0 16.5 -7t6.5 -17v-232q48 66 140 66q85 0 134 -59t49 -169v-60q0 -112 -49.5 -172t-133.5 -60q-94 0 -140 66v-233zM174 205q0 -55 28 -89t80 -34t80 34t28 89v89
q0 55 -28 89.5t-80 34.5q-51 0 -79.5 -34t-28.5 -87v-92z" />
    <glyph glyph-name="ydieresis" unicode="&#xff;" horiz-adv-x="499" 
d="M157 573q-26 0 -42.5 16.5t-16.5 42.5t16.5 42.5t42.5 16.5t42.5 -16.5t16.5 -42.5t-16.5 -42.5t-42.5 -16.5zM348 573q-26 0 -42.5 16.5t-16.5 42.5t16.5 42.5t42.5 16.5t42.5 -16.5t16.5 -42.5t-16.5 -42.5t-42.5 -16.5zM469 500q16 0 16 -17q0 -7 -6 -21l-192 -497
q-18 -48 -30.5 -73t-33 -49t-49.5 -33.5t-72 -9.5h-44q-10 0 -16.5 6.5t-6.5 16.5v52q0 10 6.5 16.5t16.5 6.5h37q40 0 59 16.5t31 48.5l15 41l-175 450q-9 27 -9 29q0 17 17 17h70q17 0 24 -21l128 -345l121 346q6 20 23 20h70z" />
    <glyph glyph-name="Amacron" unicode="&#x100;" horiz-adv-x="641" 
d="M204 777q-10 0 -16.5 6.5t-6.5 16.5v42q0 10 6.5 16.5t16.5 6.5h245q10 0 16.5 -6.5t6.5 -16.5v-42q0 -10 -6.5 -16.5t-16.5 -6.5h-245zM617 37q0 -1 2 -5.5t3 -9t1 -6.5q0 -16 -17 -16h-73q-17 0 -21 13l-53 152h-283l-52 -151q-5 -14 -19 -14h-70q-17 0 -17 16
q0 4 6 20l231 646q7 18 24 18h83q16 0 23 -18zM210 262h217l-108 313z" />
    <glyph glyph-name="amacron" unicode="&#x101;" horiz-adv-x="502" 
d="M376 665h-245q-10 0 -16.5 -6.5t-6.5 -16.5v-42q0 -10 6.5 -16.5t16.5 -6.5h245q10 0 17 6.5t7 16.5v42q0 10 -7 16.5t-17 6.5zM440 23q0 -10 -6.5 -16.5t-16.5 -6.5h-54q-10 0 -16.5 6.5t-6.5 16.5v33q-15 -31 -50 -48.5t-77 -17.5h-16q-70 0 -115.5 36.5t-45.5 114.5
q0 152 201 152h103v26q0 99 -98 99q-44 0 -61 -14.5t-23 -41.5q-5 -16 -19 -16h-63q-19 0 -19 18q0 4 2 12q5 25 14 44.5t28 42t55 35t86 12.5q61 0 102 -16t61 -46t27.5 -61t7.5 -71v-293zM240 214q-51 0 -77.5 -16t-26.5 -57q0 -35 23.5 -50.5t58.5 -15.5h16
q33 0 55.5 9.5t32.5 27.5t14 36t4 41v25h-100z" />
    <glyph glyph-name="Abreve" unicode="&#x102;" horiz-adv-x="641" 
d="M326 760q-60 0 -96 35t-36 86q0 19 19 19h42q8 0 13 -5.5t5 -13.5q0 -19 13.5 -32.5t39.5 -13.5q27 0 40.5 13.5t13.5 32.5t19 19h42q8 0 13 -5.5t5 -13.5q0 -51 -36.5 -86t-96.5 -35zM617 37q0 -1 2 -5.5t3 -9t1 -6.5q0 -16 -17 -16h-73q-17 0 -21 13l-53 152h-283
l-52 -151q-5 -14 -19 -14h-70q-17 0 -17 16q0 4 6 20l231 646q7 18 24 18h83q16 0 23 -18zM210 262h217l-108 313z" />
    <glyph glyph-name="abreve" unicode="&#x103;" horiz-adv-x="502" 
d="M368 700q18 0 18 -19q0 -51 -36 -86t-96 -35q-61 0 -96.5 35t-35.5 86q0 8 5 13.5t13 5.5h42q18 0 18 -19t13.5 -32.5t40.5 -13.5t40.5 13.5t13.5 32.5q0 8 5 13.5t13 5.5h42zM440 23q0 -10 -6.5 -16.5t-16.5 -6.5h-54q-10 0 -16.5 6.5t-6.5 16.5v33q-15 -31 -50 -48.5
t-77 -17.5h-16q-70 0 -115.5 36.5t-45.5 114.5q0 152 201 152h103v26q0 99 -98 99q-44 0 -61 -14.5t-23 -41.5q-5 -16 -19 -16h-63q-19 0 -19 18q0 4 2 12q5 25 14 44.5t28 42t55 35t86 12.5q61 0 102 -16t61 -46t27.5 -61t7.5 -71v-293zM240 214q-51 0 -77.5 -16t-26.5 -57
q0 -35 23.5 -50.5t58.5 -15.5h16q33 0 55.5 9.5t32.5 27.5t14 36t4 41v25h-100z" />
    <glyph glyph-name="Aogonek" unicode="&#x104;" horiz-adv-x="641" 
d="M641 -160q7 -11 -1 -19q-31 -29 -80 -29q-46 0 -75.5 26.5t-29.5 70.5q0 57 68 113q-7 2 -11 11l-53 152h-283l-52 -151q-5 -14 -19 -14h-70q-17 0 -17 16q0 4 6 20l231 646q7 18 24 18h83q16 0 23 -18l232 -645q0 -1 2 -5.5t3 -9t1 -6.5q0 -16 -17 -16h-6
q-70 -51 -70 -106q0 -20 12.5 -31t30.5 -11q15 0 37 12q11 8 20 -8zM210 262h217l-108 313z" />
    <glyph glyph-name="aogonek" unicode="&#x105;" horiz-adv-x="502" 
d="M456 -160q7 -10 0 -19q-31 -29 -80 -29q-46 0 -75.5 26.5t-29.5 70.5q0 60 75 118q-6 6 -6 16v33q-15 -31 -50 -48.5t-77 -17.5h-16q-70 0 -115.5 36.5t-45.5 114.5q0 152 201 152h103v26q0 99 -98 99q-44 0 -61 -14.5t-23 -41.5q-5 -16 -19 -16h-63q-19 0 -19 18
q0 4 2 12q5 25 14 44.5t28 42t55 35t86 12.5q61 0 102 -16t61 -46t27.5 -61t7.5 -71v-293q0 -10 -6.5 -16.5t-16.5 -6.5h-2q-69 -51 -69 -106q0 -20 12 -31t30 -11q16 0 37 12q12 7 21 -8zM340 189v25h-100q-51 0 -77.5 -16t-26.5 -57q0 -35 23.5 -50.5t58.5 -15.5h16
q33 0 55.5 9.5t32.5 27.5t14 36t4 41z" />
    <glyph glyph-name="Cacute" unicode="&#x106;" horiz-adv-x="622" 
d="M436 900q12 0 12 -11q0 -6 -4 -10l-79 -113q-7 -10 -17 -10h-65q-10 0 -10 10q0 6 5 13l55 106q6 15 23 15h80zM559 242q7 0 12 -5.5t4 -12.5q-6 -95 -76.5 -164.5t-180.5 -69.5q-115 0 -190.5 78t-75.5 204v156q0 126 75.5 204t190.5 78q109 0 177.5 -66t78.5 -162
q2 -20 -18 -20h-74q-15 0 -18 20q-9 54 -46.5 90.5t-99.5 36.5q-68 0 -113 -49t-45 -133v-155q0 -84 45 -132.5t113 -48.5q63 0 101.5 36.5t45.5 93.5q2 21 18 21h76z" />
    <glyph glyph-name="cacute" unicode="&#x107;" horiz-adv-x="504" 
d="M377 700q13 0 13 -11q0 -4 -4 -10l-80 -113q-7 -10 -17 -10h-65q-10 0 -10 10q0 6 5 13l55 106q6 15 23 15h80zM149 205q0 -58 30.5 -90.5t78.5 -32.5q82 0 102 87q3 15 17 15h69q16 0 16 -17q0 -11 -1 -15q-12 -61 -64.5 -111.5t-138.5 -50.5q-91 0 -152 62t-61 165v65
q0 103 60.5 165.5t151.5 62.5q80 0 134 -46.5t70 -118.5q2 -12 2 -13q0 -16 -16 -16h-68q-14 0 -18 15q-20 87 -104 87q-48 0 -78 -32.5t-30 -90.5v-90z" />
    <glyph glyph-name="Ccircumflex" unicode="&#x108;" horiz-adv-x="622" 
d="M188 756q-11 0 -11 10q0 3 5 13l68 106q9 15 26 15h73q15 0 23 -15l69 -108l2 -5q2 -4 2 -6q0 -10 -11 -10h-59q-8 0 -17 10l-47 65l-47 -65q-7 -10 -17 -10h-59zM559 242q7 0 12 -5.5t4 -12.5q-6 -95 -76.5 -164.5t-180.5 -69.5q-115 0 -190.5 78t-75.5 204v156
q0 126 75.5 204t190.5 78q109 0 177.5 -66t78.5 -162q2 -20 -18 -20h-74q-15 0 -18 20q-9 54 -46.5 90.5t-99.5 36.5q-68 0 -113 -49t-45 -133v-155q0 -84 45 -132.5t113 -48.5q63 0 101.5 36.5t45.5 93.5q2 21 18 21h76z" />
    <glyph glyph-name="ccircumflex" unicode="&#x109;" horiz-adv-x="504" 
d="M129 556q-11 0 -11 10q0 3 5 13l68 106q9 15 26 15h73q15 0 23 -15l69 -108l2 -5q2 -4 2 -6q0 -10 -10 -10h-59q-9 0 -18 10l-47 65l-47 -65q-7 -10 -17 -10h-59zM446 184q16 0 16 -17q0 -11 -1 -15q-12 -61 -64.5 -111.5t-138.5 -50.5q-91 0 -152 62t-61 165v65
q0 103 60.5 165.5t151.5 62.5q80 0 134 -46.5t70 -118.5q2 -12 2 -13q0 -16 -16 -16h-68q-14 0 -18 15q-20 87 -104 87q-48 0 -78 -32.5t-30 -90.5v-90q0 -58 30.5 -90.5t78.5 -32.5q82 0 102 87q3 15 17 15h69z" />
    <glyph glyph-name="Cdotaccent" unicode="&#x10a;" horiz-adv-x="622" 
d="M311 894q29 0 47 -18t18 -47t-18 -47t-47 -18t-47 18t-18 47t18 47t47 18zM559 242q7 0 12 -5.5t4 -12.5q-6 -95 -76.5 -164.5t-180.5 -69.5q-115 0 -190.5 78t-75.5 204v156q0 126 75.5 204t190.5 78q109 0 177.5 -66t78.5 -162q2 -20 -18 -20h-74q-15 0 -18 20
q-9 54 -46.5 90.5t-99.5 36.5q-68 0 -113 -49t-45 -133v-155q0 -84 45 -132.5t113 -48.5q63 0 101.5 36.5t45.5 93.5q2 21 18 21h76z" />
    <glyph glyph-name="cdotaccent" unicode="&#x10b;" horiz-adv-x="504" 
d="M252 694q28 0 46.5 -18t18.5 -47t-18.5 -47t-46.5 -18t-46.5 18t-18.5 47t18.5 47t46.5 18zM149 205q0 -58 30.5 -90.5t78.5 -32.5q82 0 102 87q3 15 17 15h69q16 0 16 -17q0 -11 -1 -15q-12 -61 -64.5 -111.5t-138.5 -50.5q-91 0 -152 62t-61 165v65q0 103 60.5 165.5
t151.5 62.5q80 0 134 -46.5t70 -118.5q2 -12 2 -13q0 -16 -16 -16h-68q-14 0 -18 15q-20 87 -104 87q-48 0 -78 -32.5t-30 -90.5v-90z" />
    <glyph glyph-name="Ccaron" unicode="&#x10c;" horiz-adv-x="622" 
d="M250 771l-68 106q-5 10 -5 13q0 10 11 10h59q10 0 17 -10l47 -67l47 67q9 10 17 10h59q11 0 11 -10q0 -1 -1 -3t-2 -4.5t-1 -3.5l-69 -108q-8 -15 -23 -15h-77q-13 0 -22 15zM559 242q7 0 12 -5.5t4 -12.5q-6 -95 -76.5 -164.5t-180.5 -69.5q-115 0 -190.5 78t-75.5 204
v156q0 126 75.5 204t190.5 78q109 0 177.5 -66t78.5 -162q2 -20 -18 -20h-74q-15 0 -18 20q-9 54 -46.5 90.5t-99.5 36.5q-68 0 -113 -49t-45 -133v-155q0 -84 45 -132.5t113 -48.5q63 0 101.5 36.5t45.5 93.5q2 21 18 21h76z" />
    <glyph glyph-name="ccaron" unicode="&#x10d;" horiz-adv-x="504" 
d="M191 571l-68 106q-5 10 -5 13q0 10 11 10h59q10 0 17 -10l47 -67l47 67q9 10 18 10h59q10 0 10 -10q0 -1 -1 -3t-2 -4.5t-1 -3.5l-69 -108q-8 -15 -23 -15h-77q-13 0 -22 15zM446 184q16 0 16 -17q0 -11 -1 -15q-12 -61 -64.5 -111.5t-138.5 -50.5q-91 0 -152 62t-61 165
v65q0 103 60.5 165.5t151.5 62.5q80 0 134 -46.5t70 -118.5q2 -12 2 -13q0 -16 -16 -16h-68q-14 0 -18 15q-20 87 -104 87q-48 0 -78 -32.5t-30 -90.5v-90q0 -58 30.5 -90.5t78.5 -32.5q82 0 102 87q3 15 17 15h69z" />
    <glyph glyph-name="Dcaron" unicode="&#x10e;" horiz-adv-x="636" 
d="M257 771l-68 106q-5 10 -5 13q0 10 11 10h59q10 0 17 -10l47 -67l47 67q9 10 17 10h59q11 0 11 -10q0 -1 -1 -3t-2 -4.5t-1 -3.5l-69 -108q-8 -15 -23 -15h-77q-13 0 -22 15zM315 700q116 0 192.5 -77.5t76.5 -203.5v-137q0 -126 -76 -204t-192 -78h-219q-10 0 -16.5 6.5
t-6.5 16.5v653q0 10 6.5 17t16.5 7h218zM475 282v135q0 84 -46 132.5t-114 48.5h-134v-496h135q68 0 113.5 48t45.5 132z" />
    <glyph glyph-name="dcaron" unicode="&#x10f;" horiz-adv-x="645" 
d="M368 23q0 -10 6.5 -16.5t16.5 -6.5h61q10 0 16.5 6.5t6.5 16.5v653q0 10 -6.5 17t-16.5 7h-61q-10 0 -16.5 -7t-6.5 -17v-232q-48 66 -140 66q-85 0 -134 -59t-49 -169v-60q0 -112 49.5 -172t133.5 -60q94 0 140 66v-33zM568 458q-10 0 -16.5 6.5t-6.5 16.5v195
q0 10 6.5 17t16.5 7h60q10 0 17 -7t6 -17l-28 -195q-4 -23 -23 -23h-32zM368 205q0 -55 -28.5 -89t-80.5 -34t-79.5 34t-27.5 89v89q0 55 28 89.5t80 34.5q51 0 79.5 -34t28.5 -87v-92z" />
    <glyph glyph-name="Dcroat" unicode="&#x110;" horiz-adv-x="636" 
d="M315 700q116 0 192.5 -77.5t76.5 -203.5v-137q0 -126 -76 -204t-192 -78h-219q-10 0 -16.5 6.5t-6.5 16.5v289h-68q-10 0 -16.5 6.5t-6.5 16.5v29q0 10 6.5 17t16.5 7h68v288q0 10 6.5 17t16.5 7h218zM475 282v135q0 84 -46 132.5t-114 48.5h-134v-210h116q7 0 13 -6
t6 -13v-38q0 -8 -6 -13.5t-13 -5.5h-116v-210h135q68 0 113.5 48t45.5 132z" />
    <glyph glyph-name="dcroat" unicode="&#x111;" horiz-adv-x="545" 
d="M524 639q10 0 17 -6.5t7 -17.5v-38q0 -10 -7 -16.5t-17 -6.5h-49v-531q0 -10 -6.5 -16.5t-16.5 -6.5h-61q-10 0 -16.5 6.5t-6.5 16.5v33q-46 -66 -140 -66q-84 0 -133.5 60t-49.5 172v60q0 110 49 169t134 59q92 0 140 -66v110h-90q-10 0 -16.5 6.5t-6.5 16.5v38
q0 10 6.5 17t16.5 7h90v37q0 10 6.5 17t16.5 7h61q10 0 16.5 -7t6.5 -17v-37h49zM368 205v92q0 53 -28.5 87t-79.5 34q-52 0 -80 -34.5t-28 -89.5v-89q0 -55 27.5 -89t79.5 -34t80.5 34t28.5 89z" />
    <glyph glyph-name="Emacron" unicode="&#x112;" horiz-adv-x="551" 
d="M398 865h-245q-10 0 -16.5 -6.5t-6.5 -16.5v-42q0 -10 6.5 -16.5t16.5 -6.5h245q10 0 16.5 6.5t6.5 16.5v42q0 10 -6.5 16.5t-16.5 6.5zM510 622q0 -10 -6.5 -16.5t-16.5 -6.5h-306v-194h242q10 0 16.5 -7t6.5 -17v-54q0 -10 -6.5 -16.5t-16.5 -6.5h-242v-203h306
q10 0 16.5 -6.5t6.5 -16.5v-55q0 -10 -6.5 -16.5t-16.5 -6.5h-390q-10 0 -16.5 6.5t-6.5 16.5v653q0 10 6.5 17t16.5 7h390q10 0 16.5 -7t6.5 -17v-54z" />
    <glyph glyph-name="emacron" unicode="&#x113;" horiz-adv-x="517" 
d="M381 665h-245q-10 0 -16.5 -6.5t-6.5 -16.5v-42q0 -10 6.5 -16.5t16.5 -6.5h245q10 0 17 6.5t7 16.5v42q0 10 -7 16.5t-17 6.5zM152 201q0 -53 31 -86t78 -33q69 0 98 60q11 14 24 14h64q16 0 16 -16q0 -7 -4 -17q-26 -68 -81 -100.5t-117 -32.5q-92 0 -154 62t-62 165
v65q0 103 61.5 165.5t153.5 62.5q91 0 152 -63t61 -162v-47q0 -10 -7 -16.5t-17 -6.5h-297v-14zM368 291v11q0 54 -30 85t-78 31t-78 -31t-30 -85v-11h216z" />
    <glyph glyph-name="Ebreve" unicode="&#x114;" horiz-adv-x="551" 
d="M390 900q8 0 13 -5.5t5 -13.5q0 -51 -36.5 -86t-96.5 -35t-96 35t-36 86q0 19 19 19h42q8 0 13 -5.5t5 -13.5q0 -19 13.5 -32.5t39.5 -13.5q27 0 40.5 13.5t13.5 32.5t19 19h42zM510 622q0 -10 -6.5 -16.5t-16.5 -6.5h-306v-194h242q10 0 16.5 -7t6.5 -17v-54
q0 -10 -6.5 -16.5t-16.5 -6.5h-242v-203h306q10 0 16.5 -6.5t6.5 -16.5v-55q0 -10 -6.5 -16.5t-16.5 -6.5h-390q-10 0 -16.5 6.5t-6.5 16.5v653q0 10 6.5 17t16.5 7h390q10 0 16.5 -7t6.5 -17v-54z" />
    <glyph glyph-name="ebreve" unicode="&#x115;" horiz-adv-x="517" 
d="M373 700q8 0 13 -5.5t5 -13.5q0 -51 -36 -86t-97 -35q-60 0 -95.5 35t-35.5 86q0 19 18 19h42q8 0 13 -5.5t5 -13.5q0 -19 13.5 -32.5t39.5 -13.5q27 0 41 13.5t14 32.5t18 19h42zM152 201q0 -53 31 -86t78 -33q69 0 98 60q11 14 24 14h64q16 0 16 -16q0 -7 -4 -17
q-26 -68 -81 -100.5t-117 -32.5q-92 0 -154 62t-62 165v65q0 103 61.5 165.5t153.5 62.5q91 0 152 -63t61 -162v-47q0 -10 -7 -16.5t-17 -6.5h-297v-14zM368 291v11q0 54 -30 85t-78 31t-78 -31t-30 -85v-11h216z" />
    <glyph glyph-name="Edotaccent" unicode="&#x116;" horiz-adv-x="551" 
d="M275 894q29 0 47.5 -18t18.5 -47t-18.5 -47t-47.5 -18t-47 18t-18 47t18 47t47 18zM510 622q0 -10 -6.5 -16.5t-16.5 -6.5h-306v-194h242q10 0 16.5 -7t6.5 -17v-54q0 -10 -6.5 -16.5t-16.5 -6.5h-242v-203h306q10 0 16.5 -6.5t6.5 -16.5v-55q0 -10 -6.5 -16.5
t-16.5 -6.5h-390q-10 0 -16.5 6.5t-6.5 16.5v653q0 10 6.5 17t16.5 7h390q10 0 16.5 -7t6.5 -17v-54z" />
    <glyph glyph-name="edotaccent" unicode="&#x117;" horiz-adv-x="517" 
d="M259 694q29 0 47 -18t18 -47t-18 -47t-47 -18t-47 18t-18 47t18 47t47 18zM152 201q0 -53 31 -86t78 -33q69 0 98 60q11 14 24 14h64q16 0 16 -16q0 -7 -4 -17q-26 -68 -81 -100.5t-117 -32.5q-92 0 -154 62t-62 165v65q0 103 61.5 165.5t153.5 62.5q91 0 152 -63
t61 -162v-47q0 -10 -7 -16.5t-17 -6.5h-297v-14zM368 291v11q0 54 -30 85t-78 31t-78 -31t-30 -85v-11h216z" />
    <glyph glyph-name="Eogonek" unicode="&#x118;" horiz-adv-x="551" 
d="M508 -160q8 -11 0 -19q-31 -29 -80 -29q-46 0 -75.5 26.5t-29.5 70.5q0 57 67 111h-293q-10 0 -16.5 6.5t-6.5 16.5v653q0 10 6.5 17t16.5 7h390q10 0 16.5 -7t6.5 -17v-54q0 -10 -6.5 -16.5t-16.5 -6.5h-306v-194h242q10 0 16.5 -7t6.5 -17v-54q0 -10 -6.5 -16.5
t-16.5 -6.5h-242v-203h306q10 0 16.5 -6.5t6.5 -16.5v-55q0 -10 -6.5 -16.5t-16.5 -6.5h-19q-70 -51 -70 -106q0 -20 12 -31t30 -11q16 0 37 12q12 8 21 -8z" />
    <glyph glyph-name="eogonek" unicode="&#x119;" horiz-adv-x="517" 
d="M260 510q91 0 152 -63t61 -162v-47q0 -10 -7 -16.5t-17 -6.5h-297v-14q0 -53 31 -86t78 -33q68 0 98 60q11 14 24 14h64q16 0 16 -16q0 -7 -4 -17q-24 -64 -78 -98l-20 -17q-82 -57 -82 -114q0 -20 11.5 -31t28.5 -11q18 0 37 11q13 9 20 -2l13 -21q7 -10 -2 -20
q-28 -28 -78 -28q-46 0 -75.5 26.5t-29.5 70.5q0 54 53 101q-91 2 -151.5 64t-60.5 163v65q0 103 61.5 165.5t153.5 62.5zM368 291v11q0 54 -30 85t-78 31t-78 -31t-30 -85v-11h216z" />
    <glyph glyph-name="Ecaron" unicode="&#x11a;" horiz-adv-x="551" 
d="M214 771l-67 106q-6 8 -6 13q0 10 11 10h59q9 0 18 -10l47 -66l46 66q9 10 18 10h59q11 0 11 -10q0 -4 -5 -11l-68 -108q-10 -15 -24 -15h-76q-13 0 -23 15zM487 599h-306v-194h242q10 0 16.5 -7t6.5 -17v-54q0 -10 -6.5 -16.5t-16.5 -6.5h-242v-203h306q10 0 16.5 -6.5
t6.5 -16.5v-55q0 -10 -6.5 -16.5t-16.5 -6.5h-390q-10 0 -16.5 6.5t-6.5 16.5v653q0 10 6.5 17t16.5 7h390q10 0 16.5 -7t6.5 -17v-54q0 -10 -6.5 -16.5t-16.5 -6.5z" />
    <glyph glyph-name="ecaron" unicode="&#x11b;" horiz-adv-x="517" 
d="M198 571l-68 106q-5 10 -5 13q0 10 10 10h59q11 0 18 -10l47 -67l47 67q7 10 17 10h59q11 0 11 -10q0 -4 -5 -11l-68 -108q-10 -15 -23 -15h-77q-13 0 -22 15zM260 510q91 0 152 -63t61 -162v-47q0 -10 -7 -16.5t-17 -6.5h-297v-14q0 -53 31 -86t78 -33q69 0 98 60
q11 14 24 14h64q16 0 16 -16q0 -7 -4 -17q-26 -68 -81 -100.5t-117 -32.5q-92 0 -154 62t-62 165v65q0 103 61.5 165.5t153.5 62.5zM368 291v11q0 54 -30 85t-78 31t-78 -31t-30 -85v-11h216z" />
    <glyph glyph-name="Gcircumflex" unicode="&#x11c;" horiz-adv-x="642" 
d="M197 756q-10 0 -10 10q0 3 5 13l68 106q9 15 26 15h73q13 0 23 -15l68 -108q5 -7 5 -11q0 -10 -11 -10h-59q-8 0 -17 10l-47 66l-47 -66q-7 -10 -18 -10h-59zM555 375q10 0 17 -7t7 -17v-328q0 -10 -7 -16.5t-17 -6.5h-48q-10 0 -16.5 6.5t-6.5 16.5v49q-23 -38 -68 -60
t-102 -22q-119 0 -190.5 79.5t-71.5 202.5v156q0 126 75.5 204t192.5 78q109 0 176 -63t80 -155q2 -12 2 -15q0 -15 -16 -15h-76q-15 0 -18 20q-8 51 -45.5 89t-102.5 38q-69 0 -114.5 -49t-45.5 -133v-155q0 -84 45.5 -132.5t114.5 -48.5q73 0 114 46.5t41 99.5v40h-144
q-10 0 -16.5 6.5t-6.5 16.5v51q0 10 6.5 17t16.5 7h224z" />
    <glyph glyph-name="gcircumflex" unicode="&#x11d;" horiz-adv-x="522" 
d="M141 586q-11 0 -11 11q0 2 5 12l68 107q9 14 26 14h73q15 0 23 -14l69 -109q4 -8 4 -10q0 -11 -11 -11h-59q-8 0 -17 10l-47 66l-47 -66q-7 -10 -17 -10h-59zM325 97q82 0 128.5 -43.5t46.5 -110.5q0 -66 -46.5 -109.5t-128.5 -43.5h-116q-82 0 -128.5 43.5t-46.5 109.5
q0 82 67 116q-46 21 -46 75q0 68 69 82q-65 45 -65 123t53 124.5t139 46.5h25q58 0 102 -32v65q0 10 6.5 17t16.5 7h50q10 0 17 -7t7 -17v-204q0 -81 -52 -126t-138 -45h-97q-41 0 -41 -36q0 -35 49 -35h129zM254 426q-44 0 -69 -24t-25 -63t25 -63t69 -24h26q44 0 69 24
t25 63t-25 63t-69 24h-26zM306 -127q93 0 93 69q0 74 -93 74h-79q-92 0 -92 -74q0 -69 92 -69h79z" />
    <glyph glyph-name="Gbreve" unicode="&#x11e;" horiz-adv-x="642" 
d="M435 900q8 0 13 -5.5t5 -13.5q0 -51 -36 -86t-97 -35q-60 0 -95.5 35t-35.5 86q0 19 18 19h42q8 0 13 -5.5t5 -13.5q0 -19 13.5 -32.5t39.5 -13.5q27 0 41 13.5t14 32.5t18 19h42zM331 277q-10 0 -16.5 6.5t-6.5 16.5v51q0 10 6.5 17t16.5 7h224q10 0 17 -7t7 -17v-328
q0 -10 -7 -16.5t-17 -6.5h-48q-10 0 -16.5 6.5t-6.5 16.5v49q-23 -38 -68 -60t-102 -22q-119 0 -190.5 79.5t-71.5 202.5v156q0 126 75.5 204t192.5 78q109 0 176 -63t80 -155q2 -12 2 -15q0 -15 -16 -15h-76q-15 0 -18 20q-8 51 -45.5 89t-102.5 38q-69 0 -114.5 -49
t-45.5 -133v-155q0 -84 45.5 -132.5t114.5 -48.5q73 0 114 46.5t41 99.5v40h-144z" />
    <glyph glyph-name="gbreve" unicode="&#x11f;" horiz-adv-x="522" 
d="M264 560q-61 0 -96.5 35t-35.5 86q0 8 5 13.5t13 5.5h42q18 0 18 -19t13.5 -32.5t40.5 -13.5t40.5 13.5t13.5 32.5q0 8 5 13.5t13 5.5h42q18 0 18 -19q0 -51 -36 -86t-96 -35zM325 97q82 0 128.5 -43.5t46.5 -110.5q0 -66 -46.5 -109.5t-128.5 -43.5h-116
q-82 0 -128.5 43.5t-46.5 109.5q0 82 67 116q-46 21 -46 75q0 68 69 82q-65 45 -65 123t53 124.5t139 46.5h25q58 0 102 -32v65q0 10 6.5 17t16.5 7h50q10 0 17 -7t7 -17v-204q0 -81 -52 -126t-138 -45h-97q-41 0 -41 -36q0 -35 49 -35h129zM254 426q-44 0 -69 -24t-25 -63
t25 -63t69 -24h26q44 0 69 24t25 63t-25 63t-69 24h-26zM306 -127q93 0 93 69q0 74 -93 74h-79q-92 0 -92 -74q0 -69 92 -69h79z" />
    <glyph glyph-name="Gdotaccent" unicode="&#x120;" horiz-adv-x="642" 
d="M321 894q29 0 47 -18t18 -47t-18 -47t-47 -18t-47 18t-18 47t18 47t47 18zM331 277q-10 0 -16.5 6.5t-6.5 16.5v51q0 10 6.5 17t16.5 7h224q10 0 17 -7t7 -17v-328q0 -10 -7 -16.5t-17 -6.5h-48q-10 0 -16.5 6.5t-6.5 16.5v49q-23 -38 -68 -60t-102 -22
q-119 0 -190.5 79.5t-71.5 202.5v156q0 126 75.5 204t192.5 78q109 0 176 -63t80 -155q2 -12 2 -15q0 -15 -16 -15h-76q-15 0 -18 20q-8 51 -45.5 89t-102.5 38q-69 0 -114.5 -49t-45.5 -133v-155q0 -84 45.5 -132.5t114.5 -48.5q73 0 114 46.5t41 99.5v40h-144z" />
    <glyph glyph-name="gdotaccent" unicode="&#x121;" horiz-adv-x="522" 
d="M267 564q-29 0 -47 18t-18 47t18 47t47 18t47 -18t18 -47t-18 -47t-47 -18zM325 97q82 0 128.5 -43.5t46.5 -110.5q0 -66 -46.5 -109.5t-128.5 -43.5h-116q-82 0 -128.5 43.5t-46.5 109.5q0 82 67 116q-46 21 -46 75q0 68 69 82q-65 45 -65 123t53 124.5t139 46.5h25
q58 0 102 -32v65q0 10 6.5 17t16.5 7h50q10 0 17 -7t7 -17v-204q0 -81 -52 -126t-138 -45h-97q-41 0 -41 -36q0 -35 49 -35h129zM254 426q-44 0 -69 -24t-25 -63t25 -63t69 -24h26q44 0 69 24t25 63t-25 63t-69 24h-26zM306 -127q93 0 93 69q0 74 -93 74h-79q-92 0 -92 -74
q0 -69 92 -69h79z" />
    <glyph glyph-name="Gcommaaccent" unicode="&#x122;" horiz-adv-x="642" 
d="M331 277q-10 0 -16.5 6.5t-6.5 16.5v51q0 10 6.5 17t16.5 7h224q10 0 17 -7t7 -17v-328q0 -10 -7 -16.5t-17 -6.5h-48q-10 0 -16.5 6.5t-6.5 16.5v49q-23 -38 -68 -60t-102 -22q-119 0 -190.5 79.5t-71.5 202.5v156q0 126 75.5 204t192.5 78q109 0 176 -63t80 -155
q2 -12 2 -15q0 -15 -16 -15h-76q-15 0 -18 20q-8 51 -45.5 89t-102.5 38q-69 0 -114.5 -49t-45.5 -133v-155q0 -84 45.5 -132.5t114.5 -48.5q73 0 114 46.5t41 99.5v40h-144zM320 -55q55 0 55 -73q0 -40 -12.5 -72.5t-30 -48.5t-32.5 -24.5t-24 -8.5q-7 0 -7 9v37q0 9 9 15
q36 25 37 62q-46 5 -46 52q0 23 14 37.5t37 14.5z" />
    <glyph glyph-name="gcommaaccent" unicode="&#x123;" horiz-adv-x="522" 
d="M270 565q-54 0 -54 73q0 40 12.5 72.5t30 48.5t32.5 24.5t24 8.5q6 0 6 -9v-36q0 -10 -9 -15q-35 -25 -36 -62q46 -6 46 -53q0 -22 -14.5 -37t-37.5 -15zM325 97q82 0 128.5 -43.5t46.5 -110.5q0 -66 -46.5 -109.5t-128.5 -43.5h-116q-82 0 -128.5 43.5t-46.5 109.5
q0 82 67 116q-46 21 -46 75q0 68 69 82q-65 45 -65 123t53 124.5t139 46.5h25q58 0 102 -32v65q0 10 6.5 17t16.5 7h50q10 0 17 -7t7 -17v-204q0 -81 -52 -126t-138 -45h-97q-41 0 -41 -36q0 -35 49 -35h129zM254 426q-44 0 -69 -24t-25 -63t25 -63t69 -24h26q44 0 69 24
t25 63t-25 63t-69 24h-26zM306 -127q93 0 93 69q0 74 -93 74h-79q-92 0 -92 -74q0 -69 92 -69h79z" />
    <glyph glyph-name="Hcircumflex" unicode="&#x124;" horiz-adv-x="655" 
d="M204 756q-11 0 -11 10q0 5 6 13l67 106q10 15 27 15h72q14 0 24 -15l68 -108l2 -5q2 -4 2 -6q0 -10 -10 -10h-59q-9 0 -18 10l-47 65l-46 -65q-9 -10 -18 -10h-59zM558 700q10 0 16.5 -7t6.5 -17v-653q0 -10 -6.5 -16.5t-16.5 -6.5h-61q-10 0 -16.5 6.5t-6.5 16.5v282
h-293v-282q0 -10 -6.5 -16.5t-16.5 -6.5h-61q-10 0 -16.5 6.5t-6.5 16.5v653q0 10 6.5 17t16.5 7h61q10 0 16.5 -7t6.5 -17v-270h293v270q0 10 6.5 17t16.5 7h61z" />
    <glyph glyph-name="hcircumflex" unicode="&#x125;" horiz-adv-x="559" 
d="M87 753q-10 0 -10 10q0 3 5 13l68 107q9 14 26 14h72q14 0 24 -14l68 -109q5 -5 5 -11q0 -10 -11 -10h-59q-10 0 -17 10l-47 66l-47 -66q-7 -10 -18 -10h-59zM315 510q90 0 136 -61.5t46 -166.5v-259q0 -10 -6.5 -16.5t-16.5 -6.5h-61q-10 0 -16.5 6.5t-6.5 16.5v272
q0 59 -29.5 91t-77.5 32q-47 0 -76.5 -32.5t-29.5 -90.5v-272q0 -10 -6.5 -16.5t-16.5 -6.5h-61q-10 0 -16.5 6.5t-6.5 16.5v653q0 10 6.5 17t16.5 7h61q10 0 16.5 -7t6.5 -17v-233q46 67 138 67z" />
    <glyph glyph-name="Hbar" unicode="&#x126;" horiz-adv-x="655" 
d="M640 593q10 0 17 -6.5t7 -17.5v-38q0 -10 -7 -16.5t-17 -6.5h-59v-485q0 -10 -6.5 -16.5t-16.5 -6.5h-61q-10 0 -16.5 6.5t-6.5 16.5v282h-293v-282q0 -10 -6.5 -16.5t-16.5 -6.5h-61q-10 0 -16.5 6.5t-6.5 16.5v485h-60q-10 0 -16.5 6.5t-6.5 16.5v38q0 10 6.5 17
t16.5 7h60v83q0 10 6.5 17t16.5 7h61q10 0 16.5 -7t6.5 -17v-83h293v83q0 10 6.5 17t16.5 7h61q10 0 16.5 -7t6.5 -17v-83h59zM474 406v102h-293v-102h293z" />
    <glyph glyph-name="hbar" unicode="&#x127;" horiz-adv-x="559" 
d="M315 510q90 0 136 -61.5t46 -166.5v-259q0 -10 -6.5 -16.5t-16.5 -6.5h-61q-10 0 -16.5 6.5t-6.5 16.5v272q0 59 -29.5 91t-77.5 32q-47 0 -76.5 -32.5t-29.5 -90.5v-272q0 -10 -6.5 -16.5t-16.5 -6.5h-61q-10 0 -16.5 6.5t-6.5 16.5v531h-50q-10 0 -16.5 6.5t-6.5 16.5
v38q0 10 6.5 17t16.5 7h50v37q0 10 6.5 17t16.5 7h61q10 0 16.5 -7t6.5 -17v-37h90q10 0 17 -7t7 -17v-38q0 -10 -7 -16.5t-17 -6.5h-90v-111q46 67 138 67z" />
    <glyph glyph-name="Itilde" unicode="&#x128;" horiz-adv-x="255" 
d="M-15 759q-17 0 -17 16q0 50 27.5 81.5t70.5 31.5q32 0 70.5 -23t49.5 -23q24 0 24 30q0 7 5 12t11 5h42q7 0 12 -5t5 -12q0 -52 -25 -82.5t-70 -30.5q-35 0 -71 22t-48 22q-24 0 -27 -30q0 -14 -16 -14h-43zM97 0q-10 0 -16.5 6.5t-6.5 16.5v653q0 10 6.5 17t16.5 7h61
q10 0 16.5 -7t6.5 -17v-653q0 -10 -6.5 -16.5t-16.5 -6.5h-61z" />
    <glyph glyph-name="itilde" unicode="&#x129;" horiz-adv-x="251" 
d="M-17 559q-17 0 -17 16q0 50 28 81.5t70 31.5q32 0 70.5 -23t49.5 -23q24 0 24 30q0 7 5 12t12 5h41q7 0 12 -5t5 -12q0 -52 -25 -82.5t-70 -30.5q-35 0 -71 22t-48 22q-25 0 -26 -30q-2 -14 -17 -14h-43zM95 0q-10 0 -16.5 6.5t-6.5 16.5v453q0 10 6.5 17t16.5 7h61
q10 0 16.5 -7t6.5 -17v-453q0 -10 -6.5 -16.5t-16.5 -6.5h-61z" />
    <glyph glyph-name="Imacron" unicode="&#x12a;" horiz-adv-x="255" 
d="M250 865h-245q-10 0 -16.5 -6.5t-6.5 -16.5v-42q0 -10 6.5 -16.5t16.5 -6.5h245q10 0 16.5 6.5t6.5 16.5v42q0 10 -6.5 16.5t-16.5 6.5zM97 0q-10 0 -16.5 6.5t-6.5 16.5v653q0 10 6.5 17t16.5 7h61q10 0 16.5 -7t6.5 -17v-653q0 -10 -6.5 -16.5t-16.5 -6.5h-61z" />
    <glyph glyph-name="imacron" unicode="&#x12b;" horiz-adv-x="251" 
d="M248 665h-245q-10 0 -16.5 -6.5t-6.5 -16.5v-42q0 -10 6.5 -16.5t16.5 -6.5h245q10 0 16.5 6.5t6.5 16.5v42q0 10 -6.5 16.5t-16.5 6.5zM95 0q-10 0 -16.5 6.5t-6.5 16.5v453q0 10 6.5 17t16.5 7h61q10 0 16.5 -7t6.5 -17v-453q0 -10 -6.5 -16.5t-16.5 -6.5h-61z" />
    <glyph glyph-name="Ibreve" unicode="&#x12c;" horiz-adv-x="255" 
d="M241 900q19 0 19 -19q0 -51 -36.5 -86t-96.5 -35t-96 35t-36 86q0 19 19 19h41q19 0 19 -19t13.5 -32.5t39.5 -13.5q27 0 40.5 13.5t13.5 32.5t19 19h41zM97 0q-10 0 -16.5 6.5t-6.5 16.5v653q0 10 6.5 17t16.5 7h61q10 0 16.5 -7t6.5 -17v-653q0 -10 -6.5 -16.5
t-16.5 -6.5h-61z" />
    <glyph glyph-name="ibreve" unicode="&#x12d;" horiz-adv-x="251" 
d="M239 700q19 0 19 -19q0 -51 -36.5 -86t-96.5 -35t-96 35t-36 86q0 19 19 19h42q8 0 13 -5.5t5 -13.5q0 -19 13.5 -32.5t39.5 -13.5q27 0 40.5 13.5t13.5 32.5t19 19h41zM95 0q-10 0 -16.5 6.5t-6.5 16.5v453q0 10 6.5 17t16.5 7h61q10 0 16.5 -7t6.5 -17v-453
q0 -10 -6.5 -16.5t-16.5 -6.5h-61z" />
    <glyph glyph-name="Iogonek" unicode="&#x12e;" horiz-adv-x="255" 
d="M197 -160q7 -10 0 -19q-31 -29 -80 -29q-46 0 -75.5 26.5t-29.5 70.5q0 58 72 115q-10 7 -10 19v653q0 10 6.5 17t16.5 7h61q10 0 16.5 -7t6.5 -17v-653q0 -10 -6.5 -16.5t-16.5 -6.5h-2q-69 -51 -69 -106q0 -20 12 -31t30 -11q16 0 37 12q11 8 21 -8z" />
    <glyph glyph-name="iogonek" unicode="&#x12f;" horiz-adv-x="251" 
d="M125 576q-29 0 -47 18t-18 47t18 47t47 18t47.5 -18t18.5 -47t-18.5 -47t-47.5 -18zM191 -157q5 -4 2 -11q-6 -14 -28 -27t-50 -13q-46 0 -75 26.5t-29 70.5q0 59 71 115q-10 7 -10 19v453q0 10 6.5 17t16.5 7h61q10 0 16.5 -7t6.5 -17v-453q0 -10 -6.5 -16.5t-16.5 -6.5
h-2q-42 -30 -59 -54t-17 -52q0 -21 12 -32.5t30 -11.5q21 0 39 14q7 7 17 -6z" />
    <glyph glyph-name="Idotaccent" unicode="&#x130;" horiz-adv-x="255" 
d="M127 894q29 0 47 -18t18 -47t-18 -47t-47 -18t-47 18t-18 47t18 47t47 18zM97 0q-10 0 -16.5 6.5t-6.5 16.5v653q0 10 6.5 17t16.5 7h61q10 0 16.5 -7t6.5 -17v-653q0 -10 -6.5 -16.5t-16.5 -6.5h-61z" />
    <glyph glyph-name="dotlessi" unicode="&#x131;" horiz-adv-x="251" 
d="M95 0q-10 0 -16.5 6.5t-6.5 16.5v453q0 10 6.5 17t16.5 7h61q10 0 16.5 -7t6.5 -17v-453q0 -10 -6.5 -16.5t-16.5 -6.5h-61z" />
    <glyph glyph-name="IJ" unicode="&#x132;" horiz-adv-x="751" 
d="M97 0q-10 0 -16.5 6.5t-6.5 16.5v653q0 10 6.5 17t16.5 7h61q10 0 16.5 -7t6.5 -17v-653q0 -10 -6.5 -16.5t-16.5 -6.5h-61zM668 700q10 0 17 -7t7 -17v-464q0 -102 -63 -162t-151 -60q-86 0 -149 60t-63 162v15q0 10 6.5 16.5t16.5 6.5h59q10 0 16.5 -6.5t6.5 -16.5v-17
q0 -57 32 -88t75 -31t75 31t32 88v466q0 10 6.5 17t16.5 7h60z" />
    <glyph glyph-name="ij" unicode="&#x133;" horiz-adv-x="502" 
d="M125 706q29 0 47.5 -18t18.5 -47t-18.5 -47t-47.5 -18t-47 18t-18 47t18 47t47 18zM376 706q29 0 47.5 -18t18.5 -47t-18.5 -47t-47.5 -18q-28 0 -46.5 18t-18.5 47t18.5 47t46.5 18zM95 0q-10 0 -16.5 6.5t-6.5 16.5v453q0 10 6.5 17t16.5 7h61q10 0 16.5 -7t6.5 -17
v-453q0 -10 -6.5 -16.5t-16.5 -6.5h-61zM407 500q10 0 16.5 -7t6.5 -17v-469q0 -116 -53 -161.5t-142 -45.5q-10 0 -16.5 6.5t-6.5 16.5v52q0 10 6.5 16.5t16.5 6.5q45 0 66.5 25.5t21.5 83.5v469q0 10 6.5 17t16.5 7h61z" />
    <glyph glyph-name="Jcircumflex" unicode="&#x134;" horiz-adv-x="496" 
d="M518 777q5 -7 5 -11q0 -10 -11 -10h-59q-10 0 -17 10l-47 66l-47 -66q-7 -10 -18 -10h-59q-10 0 -10 10q0 3 5 13l68 106q9 15 26 15h72q14 0 24 -15zM414 700q10 0 16.5 -7t6.5 -17v-464q0 -102 -62.5 -162t-151.5 -60q-86 0 -149 60t-63 162v15q0 10 6.5 16.5t16.5 6.5
h59q10 0 17 -6.5t7 -16.5v-17q0 -57 31.5 -88t74.5 -31t75 31t32 88v466q0 10 6.5 17t16.5 7h61z" />
    <glyph glyph-name="jcircumflex" unicode="&#x135;" horiz-adv-x="251" 
d="M255 577q5 -7 5 -11q0 -10 -11 -10h-59q-9 0 -18 10l-47 65l-46 -65q-9 -10 -18 -10h-59q-11 0 -11 10q0 5 6 13l67 106q10 15 27 15h72q14 0 24 -15zM156 500q10 0 16.5 -7t6.5 -17v-469q0 -116 -53 -161.5t-142 -45.5q-10 0 -16.5 6.5t-6.5 16.5v52q0 10 6.5 16.5
t16.5 6.5q45 0 66.5 25.5t21.5 83.5v469q0 10 6.5 17t16.5 7h61z" />
    <glyph glyph-name="Kcommaaccent" unicode="&#x136;" horiz-adv-x="622" 
d="M585 42q12 -19 12 -26q0 -16 -16 -16h-80q-19 0 -29 19l-191 308l-100 -111v-193q0 -10 -6.5 -16.5t-16.5 -6.5h-61q-10 0 -16.5 6.5t-6.5 16.5v653q0 10 6.5 17t16.5 7h61q10 0 16.5 -7t6.5 -17v-322l287 326q17 20 34 20h76q16 0 16 -17q0 -8 -18 -30l-220 -243z
M311 -55q54 0 54 -73q0 -40 -12.5 -72.5t-30 -48.5t-32.5 -24.5t-24 -8.5q-7 0 -7 9v37q0 8 10 15q35 25 36 62q-46 5 -46 52q0 23 14.5 37.5t37.5 14.5z" />
    <glyph glyph-name="kcommaaccent" unicode="&#x137;" horiz-adv-x="519" 
d="M489 45q14 -19 14 -29q0 -16 -16 -16h-80q-14 0 -27 19l-132 191l-71 -83v-104q0 -10 -6.5 -16.5t-16.5 -6.5h-61q-10 0 -16.5 6.5t-6.5 16.5v653q0 10 6.5 17t16.5 7h61q10 0 16.5 -7t6.5 -17v-418l189 222q17 20 34 20h76q16 0 16 -17q0 -8 -19 -29l-148 -170zM259 -55
q54 0 54 -73q0 -40 -12.5 -72.5t-30 -48.5t-32.5 -24.5t-24 -8.5q-6 0 -6 9v37q0 9 9 15q34 24 37 62q-47 5 -47 52q0 23 14.5 37.5t37.5 14.5z" />
    <glyph glyph-name="Lacute" unicode="&#x139;" horiz-adv-x="538" 
d="M247 900q12 0 12 -11q0 -6 -4 -10l-79 -113q-7 -10 -18 -10h-64q-11 0 -11 10q0 4 6 13l54 106q7 15 24 15h80zM514 23q0 -10 -6.5 -16.5t-16.5 -6.5h-394q-10 0 -16.5 6.5t-6.5 16.5v653q0 10 6.5 17t16.5 7h61q10 0 16.5 -7t6.5 -17v-575h310q10 0 16.5 -7t6.5 -17v-54
z" />
    <glyph glyph-name="lacute" unicode="&#x13a;" horiz-adv-x="247" 
d="M248 898q13 0 13 -11q0 -3 -4 -11l-80 -113q-6 -9 -17 -9h-65q-10 0 -10 10q0 5 5 12l55 107q6 15 23 15h80zM93 0q-10 0 -16.5 6.5t-6.5 16.5v653q0 10 6.5 17t16.5 7h61q10 0 16.5 -7t6.5 -17v-653q0 -10 -6.5 -16.5t-16.5 -6.5h-61z" />
    <glyph glyph-name="Lcommaaccent" unicode="&#x13b;" horiz-adv-x="538" 
d="M514 23q0 -10 -6.5 -16.5t-16.5 -6.5h-394q-10 0 -16.5 6.5t-6.5 16.5v653q0 10 6.5 17t16.5 7h61q10 0 16.5 -7t6.5 -17v-575h310q10 0 16.5 -7t6.5 -17v-54zM277 -55q54 0 54 -73q0 -40 -12.5 -72.5t-30 -48.5t-32.5 -24.5t-24 -8.5q-7 0 -7 9v37q0 8 10 15
q35 25 36 62q-46 5 -46 52q0 23 14.5 37.5t37.5 14.5z" />
    <glyph glyph-name="lcommaaccent" unicode="&#x13c;" horiz-adv-x="247" 
d="M93 0q-10 0 -16.5 6.5t-6.5 16.5v653q0 10 6.5 17t16.5 7h61q10 0 16.5 -7t6.5 -17v-653q0 -10 -6.5 -16.5t-16.5 -6.5h-61zM123 -55q54 0 54 -73q0 -40 -12.5 -72.5t-30 -48.5t-32.5 -24.5t-24 -8.5q-6 0 -6 9v37q0 9 9 15q35 25 36 62q-46 5 -46 52q0 23 14.5 37.5
t37.5 14.5z" />
    <glyph glyph-name="Lcaron" unicode="&#x13d;" horiz-adv-x="538" 
d="M514 23q0 -10 -6.5 -16.5t-16.5 -6.5h-394q-10 0 -16.5 6.5t-6.5 16.5v653q0 10 6.5 17t16.5 7h61q10 0 16.5 -7t6.5 -17v-575h310q10 0 16.5 -7t6.5 -17v-54zM352 458q-10 0 -16.5 6.5t-6.5 16.5v195q0 10 6.5 17t16.5 7h59q10 0 17.5 -7t6.5 -17l-28 -195
q-4 -23 -24 -23h-31z" />
    <glyph glyph-name="lcaron" unicode="&#x13e;" horiz-adv-x="347" 
d="M93 0q-10 0 -16.5 6.5t-6.5 16.5v653q0 10 6.5 17t16.5 7h61q10 0 16.5 -7t6.5 -17v-653q0 -10 -6.5 -16.5t-16.5 -6.5h-61zM270 458q-10 0 -16.5 6.5t-6.5 16.5v195q0 10 6.5 17t16.5 7h59q11 0 18 -7t6 -17l-28 -195q-4 -23 -23 -23h-32z" />
    <glyph glyph-name="Ldot" unicode="&#x13f;" horiz-adv-x="538" 
d="M514 23q0 -10 -6.5 -16.5t-16.5 -6.5h-394q-10 0 -16.5 6.5t-6.5 16.5v653q0 10 6.5 17t16.5 7h61q10 0 16.5 -7t6.5 -17v-575h310q10 0 16.5 -7t6.5 -17v-54zM372 472q32 0 51.5 -20t19.5 -51t-19.5 -50.5t-51.5 -19.5t-51.5 19.5t-19.5 50.5t19.5 51t51.5 20z" />
    <glyph glyph-name="ldot" unicode="&#x140;" horiz-adv-x="353" 
d="M93 0q-10 0 -16.5 6.5t-6.5 16.5v653q0 10 6.5 17t16.5 7h61q10 0 16.5 -7t6.5 -17v-653q0 -10 -6.5 -16.5t-16.5 -6.5h-61zM306 472q32 0 51.5 -20t19.5 -51t-19.5 -50.5t-51.5 -19.5t-51.5 19.5t-19.5 50.5t19.5 51t51.5 20z" />
    <glyph glyph-name="Lslash" unicode="&#x141;" horiz-adv-x="538" 
d="M491 101q10 0 16.5 -7t6.5 -17v-54q0 -10 -6.5 -16.5t-16.5 -6.5h-394q-10 0 -16.5 6.5t-6.5 16.5v276l-63 -26q-29 -12 -29 11v39q0 19 15 25l77 31v297q0 10 6.5 17t16.5 7h61q10 0 16.5 -7t6.5 -17v-253l131 53q29 11 29 -11v-39q0 -19 -15 -25l-145 -59v-241h310z
" />
    <glyph glyph-name="lslash" unicode="&#x142;" horiz-adv-x="247" 
d="M234 445q29 11 29 -11v-41q0 -18 -16 -25l-70 -30v-315q0 -10 -6.5 -16.5t-16.5 -6.5h-61q-10 0 -16.5 6.5t-6.5 16.5v269l-57 -25q-29 -12 -29 11v41q0 18 15 25l71 30v302q0 10 6.5 17t16.5 7h61q10 0 16.5 -7t6.5 -17v-255z" />
    <glyph glyph-name="Nacute" unicode="&#x143;" horiz-adv-x="672" 
d="M308 756q-11 0 -11 10q0 4 6 13l54 106q7 15 24 15h80q12 0 12 -11q0 -6 -4 -10l-79 -113q-7 -10 -18 -10h-64zM574 700q10 0 17 -7t7 -17v-653q0 -10 -7 -16.5t-17 -6.5h-55q-20 0 -36 27l-304 502v-506q0 -10 -7 -16.5t-17 -6.5h-58q-10 0 -16.5 6.5t-6.5 16.5v653
q0 10 6.5 17t16.5 7h77q18 0 27 -19l292 -485v480q0 10 6.5 17t16.5 7h58z" />
    <glyph glyph-name="nacute" unicode="&#x144;" horiz-adv-x="556" 
d="M403 700q12 0 12 -11q0 -6 -4 -10l-79 -113q-7 -10 -18 -10h-64q-11 0 -11 10q0 4 6 13l54 106q7 15 24 15h80zM90 0q-10 0 -16.5 6.5t-6.5 16.5v453q0 10 6.5 17t16.5 7h61q10 0 16.5 -7t6.5 -17v-33q46 67 138 67q90 0 136 -61.5t46 -166.5v-259q0 -10 -6.5 -16.5
t-16.5 -6.5h-61q-10 0 -16.5 6.5t-6.5 16.5v272q0 58 -29.5 90.5t-77.5 32.5t-77 -32t-29 -91v-272q0 -10 -6.5 -16.5t-16.5 -6.5h-61z" />
    <glyph glyph-name="Ncommaaccent" unicode="&#x145;" horiz-adv-x="672" 
d="M574 700q10 0 17 -7t7 -17v-653q0 -10 -7 -16.5t-17 -6.5h-55q-20 0 -36 27l-304 502v-506q0 -10 -7 -16.5t-17 -6.5h-58q-10 0 -16.5 6.5t-6.5 16.5v653q0 10 6.5 17t16.5 7h77q18 0 27 -19l292 -485v480q0 10 6.5 17t16.5 7h58zM335 -55q55 0 55 -73q0 -40 -12.5 -72.5
t-30 -48.5t-32.5 -24.5t-24 -8.5q-7 0 -7 9v37q0 9 10 15q35 25 36 62q-46 5 -46 52q0 23 14.5 37.5t36.5 14.5z" />
    <glyph glyph-name="ncommaaccent" unicode="&#x146;" horiz-adv-x="556" 
d="M90 0q-10 0 -16.5 6.5t-6.5 16.5v453q0 10 6.5 17t16.5 7h61q10 0 16.5 -7t6.5 -17v-33q46 67 138 67q90 0 136 -61.5t46 -166.5v-259q0 -10 -6.5 -16.5t-16.5 -6.5h-61q-10 0 -16.5 6.5t-6.5 16.5v272q0 58 -29.5 90.5t-77.5 32.5t-77 -32t-29 -91v-272
q0 -10 -6.5 -16.5t-16.5 -6.5h-61zM278 -55q54 0 54 -73q0 -40 -12.5 -72.5t-30 -48.5t-32.5 -24.5t-24 -8.5q-7 0 -7 9v37q0 8 10 15q35 25 36 62q-46 5 -46 52q0 23 14.5 37.5t37.5 14.5z" />
    <glyph glyph-name="Ncaron" unicode="&#x147;" horiz-adv-x="672" 
d="M275 771l-68 106q-5 10 -5 13q0 10 10 10h59q11 0 18 -10l47 -67l47 67q9 10 17 10h59q11 0 11 -10q0 -4 -5 -11l-68 -108q-10 -15 -23 -15h-77q-13 0 -22 15zM574 700q10 0 17 -7t7 -17v-653q0 -10 -7 -16.5t-17 -6.5h-55q-20 0 -36 27l-304 502v-506q0 -10 -7 -16.5
t-17 -6.5h-58q-10 0 -16.5 6.5t-6.5 16.5v653q0 10 6.5 17t16.5 7h77q18 0 27 -19l292 -485v480q0 10 6.5 17t16.5 7h58z" />
    <glyph glyph-name="ncaron" unicode="&#x148;" horiz-adv-x="556" 
d="M217 571l-68 106q-5 10 -5 13q0 10 11 10h59q10 0 17 -10l47 -67l47 67q9 10 17 10h59q11 0 11 -10q0 -4 -5 -11l-68 -108q-10 -15 -23 -15h-77q-13 0 -22 15zM312 510q90 0 136 -61.5t46 -166.5v-259q0 -10 -6.5 -16.5t-16.5 -6.5h-61q-10 0 -16.5 6.5t-6.5 16.5v272
q0 58 -29.5 90.5t-77.5 32.5t-77 -32t-29 -91v-272q0 -10 -6.5 -16.5t-16.5 -6.5h-61q-10 0 -16.5 6.5t-6.5 16.5v453q0 10 6.5 17t16.5 7h61q10 0 16.5 -7t6.5 -17v-33q46 67 138 67z" />
    <glyph glyph-name="Omacron" unicode="&#x14c;" 
d="M441 865h-245q-10 0 -16.5 -6.5t-6.5 -16.5v-42q0 -10 6.5 -16.5t16.5 -6.5h245q10 0 16.5 6.5t6.5 16.5v42q0 10 -6.5 16.5t-16.5 6.5zM52 428q0 126 75.5 204t190.5 78q116 0 191.5 -78t75.5 -204v-156q0 -126 -75.5 -204t-191.5 -78q-115 0 -190.5 78t-75.5 204v156z
M160 272q0 -84 45 -132.5t113 -48.5t113.5 48.5t45.5 132.5v155q0 84 -45.5 133t-113.5 49t-113 -49t-45 -133v-155z" />
    <glyph glyph-name="omacron" unicode="&#x14d;" horiz-adv-x="520" 
d="M382 665h-245q-10 0 -16.5 -6.5t-6.5 -16.5v-42q0 -10 6.5 -16.5t16.5 -6.5h245q10 0 17 6.5t7 16.5v42q0 10 -7 16.5t-17 6.5zM45 282q0 103 61 165.5t154 62.5q92 0 153.5 -62.5t61.5 -165.5v-65q0 -103 -61.5 -165t-153.5 -62q-93 0 -154 62t-61 165v65zM152 205
q0 -58 30 -90.5t78 -32.5t77.5 32.5t29.5 90.5v90q0 58 -29.5 90.5t-77.5 32.5t-78 -32.5t-30 -90.5v-90z" />
    <glyph glyph-name="Obreve" unicode="&#x14e;" 
d="M432 900q18 0 18 -19q0 -51 -36 -86t-96 -35q-61 0 -96.5 35t-35.5 86q0 19 19 19h41q19 0 19 -19t13.5 -32.5t39.5 -13.5q27 0 40.5 13.5t13.5 32.5t19 19h41zM52 428q0 126 75.5 204t190.5 78q116 0 191.5 -78t75.5 -204v-156q0 -126 -75.5 -204t-191.5 -78
q-115 0 -190.5 78t-75.5 204v156zM160 272q0 -84 45 -132.5t113 -48.5t113.5 48.5t45.5 132.5v155q0 84 -45.5 133t-113.5 49t-113 -49t-45 -133v-155z" />
    <glyph glyph-name="obreve" unicode="&#x14f;" horiz-adv-x="520" 
d="M374 700q18 0 18 -19q0 -51 -36 -86t-97 -35q-60 0 -95.5 35t-35.5 86q0 19 18 19h42q18 0 18 -19t13.5 -32.5t39.5 -13.5q27 0 41 13.5t14 32.5t18 19h42zM45 282q0 103 61 165.5t154 62.5q92 0 153.5 -62.5t61.5 -165.5v-65q0 -103 -61.5 -165t-153.5 -62
q-93 0 -154 62t-61 165v65zM152 205q0 -58 30 -90.5t78 -32.5t77.5 32.5t29.5 90.5v90q0 58 -29.5 90.5t-77.5 32.5t-78 -32.5t-30 -90.5v-90z" />
    <glyph glyph-name="Ohungarumlaut" unicode="&#x150;" 
d="M358 900q12 0 12 -11q0 -6 -4 -10l-79 -113q-9 -10 -18 -10h-64q-11 0 -11 10q0 2 2 8l3 5l55 106q8 15 23 15h81zM526 900q12 0 12 -11q0 -6 -4 -10l-79 -113q-9 -10 -18 -10h-64q-11 0 -11 10q0 2 2 8l3 5l55 106q8 15 23 15h81zM52 428q0 126 75.5 204t190.5 78
q116 0 191.5 -78t75.5 -204v-156q0 -126 -75.5 -204t-191.5 -78q-115 0 -190.5 78t-75.5 204v156zM160 272q0 -84 45 -132.5t113 -48.5t113.5 48.5t45.5 132.5v155q0 84 -45.5 133t-113.5 49t-113 -49t-45 -133v-155z" />
    <glyph glyph-name="ohungarumlaut" unicode="&#x151;" horiz-adv-x="520" 
d="M299 700q12 0 12 -11q0 -6 -4 -10l-79 -113q-9 -10 -18 -10h-64q-11 0 -11 10q0 2 3 8l2 5l55 106q7 15 23 15h81zM467 700q12 0 12 -11q0 -6 -4 -10l-79 -113q-9 -10 -18 -10h-64q-11 0 -11 10q0 2 3 8l2 5l55 106q7 15 23 15h81zM45 282q0 103 61 165.5t154 62.5
q92 0 153.5 -62.5t61.5 -165.5v-65q0 -103 -61.5 -165t-153.5 -62q-93 0 -154 62t-61 165v65zM152 205q0 -58 30 -90.5t78 -32.5t77.5 32.5t29.5 90.5v90q0 58 -29.5 90.5t-77.5 32.5t-78 -32.5t-30 -90.5v-90z" />
    <glyph glyph-name="OE" unicode="&#x152;" horiz-adv-x="870" 
d="M805 599h-273v-194h209q11 0 17.5 -6.5t6.5 -17.5v-54q0 -10 -7 -16.5t-17 -6.5h-209v-203h273q10 0 17 -6.5t7 -16.5v-55q0 -10 -7 -16.5t-17 -6.5h-358h-139q-111 0 -183.5 75.5t-72.5 196.5v156q0 121 72.5 196.5t183.5 75.5h172h325q10 0 17 -7t7 -17v-54
q0 -10 -7 -16.5t-17 -6.5zM160 272q0 -80 42 -125.5t106 -45.5h116v498h-116q-64 0 -106 -46t-42 -126v-155z" />
    <glyph glyph-name="oe" unicode="&#x153;" horiz-adv-x="820" 
d="M569 510q88 0 147.5 -63t59.5 -162v-46q0 -10 -7 -16.5t-17 -6.5h-285v-15q0 -53 29.5 -86t73.5 -33q62 0 92 60q11 14 24 14h64q16 0 16 -16q0 -7 -4 -17q-26 -68 -79 -100.5t-113 -32.5q-101 0 -155 74q-60 -74 -159 -74q-91 0 -151 62t-60 165v65q0 103 60 165.5
t151 62.5q102 0 162 -77q58 77 151 77zM359 205v90q0 58 -28.5 90.5t-74.5 32.5t-75 -32.5t-29 -90.5v-90q0 -58 29 -90.5t75 -32.5t74.5 32.5t28.5 90.5zM671 291v11q0 54 -28.5 85t-73.5 31t-73.5 -31t-28.5 -85v-11h204z" />
    <glyph glyph-name="Racute" unicode="&#x154;" horiz-adv-x="610" 
d="M430 900q12 0 12 -11q0 -6 -4 -10l-79 -113q-7 -10 -17 -10h-65q-10 0 -10 10q0 6 5 13l55 106q6 15 23 15h80zM181 23q0 -10 -6.5 -16.5t-16.5 -6.5h-61q-10 0 -16.5 6.5t-6.5 16.5v653q0 10 6.5 17t16.5 7h252q98 0 157 -53t59 -152v-22q0 -149 -138 -190l130 -246
q8 -13 8 -21q0 -16 -16 -16h-77q-16 0 -25 19l-126 246h-140v-242zM181 366h161q50 0 83 27t33 81v15q0 58 -32.5 84t-83.5 26h-161v-233z" />
    <glyph glyph-name="racute" unicode="&#x155;" horiz-adv-x="358" 
d="M304 700q12 0 12 -11q0 -6 -4 -10l-79 -113q-7 -10 -17 -10h-65q-10 0 -10 10q0 6 5 13l54 106q8 15 24 15h80zM90 0q-10 0 -16.5 6.5t-6.5 16.5v453q0 10 6.5 17t16.5 7h55q10 0 17 -7t7 -17v-51q43 75 133 75h13q10 0 16.5 -7t6.5 -17v-60q0 -10 -6.5 -16.5t-16.5 -6.5
h-15q-62 0 -94.5 -36.5t-32.5 -107.5v-226q0 -10 -7 -16.5t-17 -6.5h-59z" />
    <glyph glyph-name="Rcommaaccent" unicode="&#x156;" horiz-adv-x="610" 
d="M181 23q0 -10 -6.5 -16.5t-16.5 -6.5h-61q-10 0 -16.5 6.5t-6.5 16.5v653q0 10 6.5 17t16.5 7h252q98 0 157 -53t59 -152v-22q0 -149 -138 -190l130 -246q8 -13 8 -21q0 -16 -16 -16h-77q-16 0 -25 19l-126 246h-140v-242zM181 366h161q50 0 83 27t33 81v15
q0 58 -32.5 84t-83.5 26h-161v-233zM305 -55q54 0 54 -73q0 -40 -12.5 -72.5t-30 -48.5t-32.5 -24.5t-24 -8.5q-6 0 -6 9v37q0 9 9 15q35 25 36 62q-46 5 -46 52q0 23 14.5 37.5t37.5 14.5z" />
    <glyph glyph-name="rcommaaccent" unicode="&#x157;" horiz-adv-x="358" 
d="M90 0q-10 0 -16.5 6.5t-6.5 16.5v453q0 10 6.5 17t16.5 7h55q10 0 17 -7t7 -17v-51q43 75 133 75h13q10 0 16.5 -7t6.5 -17v-60q0 -10 -6.5 -16.5t-16.5 -6.5h-15q-62 0 -94.5 -36.5t-32.5 -107.5v-226q0 -10 -7 -16.5t-17 -6.5h-59zM123 -55q54 0 54 -73
q0 -40 -12.5 -72.5t-30 -48.5t-32.5 -24.5t-24 -8.5q-6 0 -6 9v37q0 9 9 15q35 25 36 62q-46 5 -46 52q0 23 14.5 37.5t37.5 14.5z" />
    <glyph glyph-name="Rcaron" unicode="&#x158;" horiz-adv-x="610" 
d="M244 771l-68 106q-5 10 -5 13q0 10 11 10h59q10 0 17 -10l47 -67l47 67q9 10 17 10h59q11 0 11 -10q0 -1 -1 -3t-2 -4.5t-1 -3.5l-69 -108q-8 -15 -23 -15h-77q-13 0 -22 15zM565 473q0 -149 -138 -190l130 -246q8 -13 8 -21q0 -16 -16 -16h-77q-16 0 -25 19l-126 246
h-140v-242q0 -10 -6.5 -16.5t-16.5 -6.5h-61q-10 0 -16.5 6.5t-6.5 16.5v653q0 10 6.5 17t16.5 7h252q98 0 157 -53t59 -152v-22zM458 474v15q0 58 -32.5 84t-83.5 26h-161v-233h161q50 0 83 27t33 81z" />
    <glyph glyph-name="rcaron" unicode="&#x159;" horiz-adv-x="358" 
d="M140 556q-13 0 -22 15l-68 106q-5 10 -5 13q0 10 11 10h59q10 0 17 -10l47 -67l47 67q9 10 17 10h59q11 0 11 -10q0 -1 -1 -3t-2 -4.5t-1 -3.5l-69 -108q-8 -15 -23 -15h-77zM315 500q10 0 16.5 -7t6.5 -17v-60q0 -10 -6.5 -16.5t-16.5 -6.5h-15q-62 0 -94.5 -36.5
t-32.5 -107.5v-226q0 -10 -7 -16.5t-17 -6.5h-59q-10 0 -16.5 6.5t-6.5 16.5v453q0 10 6.5 17t16.5 7h55q10 0 17 -7t7 -17v-51q43 75 133 75h13z" />
    <glyph glyph-name="Sacute" unicode="&#x15a;" horiz-adv-x="592" 
d="M421 900q12 0 12 -11q0 -6 -4 -10l-79 -113q-7 -10 -18 -10h-64q-11 0 -11 10q0 2 3 8l2 5l55 106q7 15 24 15h80zM448 500q-20 0 -24 21q-14 94 -125 94q-65 0 -98.5 -20.5t-33.5 -73.5q0 -34 21 -57t54.5 -35.5t74 -23t80.5 -25t73.5 -35.5t54.5 -60.5t21 -94.5
q0 -70 -37.5 -117t-90.5 -65t-119 -18t-118 21t-81 54t-43.5 69t-14.5 71q0 10 6.5 16.5t16.5 6.5h60q9 0 15 -6.5t7 -14.5q2 -17 7.5 -34t20.5 -39t47 -35.5t77 -13.5q140 0 140 105q0 33 -21 55.5t-54.5 35t-73.5 23t-80.5 25.5t-74 36.5t-54.5 61t-21 94.5q0 92 63 140.5
t178 48.5q116 0 173.5 -56.5t57.5 -130.5q0 -10 -7 -16.5t-17 -6.5h-60z" />
    <glyph glyph-name="sacute" unicode="&#x15b;" horiz-adv-x="478" 
d="M364 700q12 0 12 -11q0 -6 -4 -10l-79 -113q-7 -10 -17 -10h-65q-10 0 -10 10q0 6 5 13l54 106q8 15 24 15h80zM239 -10q-85 0 -136.5 41.5t-60.5 97.5q-2 9 -1 14q0 16 17 16h62q14 0 19 -15q17 -67 101 -67q93 0 93 63q0 28 -29.5 43t-71 23t-83 20.5t-71 46.5
t-29.5 91q0 73 54 109.5t135 36.5q83 0 127.5 -39.5t59.5 -93.5q2 -6 2 -14q-2 -17 -18 -17h-62q-13 0 -19 16q-6 18 -13.5 29t-28.5 21.5t-52 10.5q-82 0 -82 -54q0 -25 21 -41t52.5 -22t68 -16.5t68 -23.5t52.5 -44.5t21 -78.5q0 -79 -55 -116t-141 -37z" />
    <glyph glyph-name="Scircumflex" unicode="&#x15c;" horiz-adv-x="592" 
d="M172 756q-10 0 -10 10q0 3 5 13l68 106q9 15 26 15h73q13 0 23 -15l68 -108q5 -7 5 -11q0 -10 -11 -10h-59q-10 0 -17 10l-47 66l-47 -66q-7 -10 -18 -10h-59zM167 521q0 -34 21 -57t54.5 -35.5t74 -23t80.5 -25t73.5 -35.5t54.5 -60.5t21 -94.5q0 -70 -37.5 -117
t-90.5 -65t-119 -18t-118 21t-81 54t-43.5 69t-14.5 71q0 10 6.5 16.5t16.5 6.5h60q9 0 15 -6.5t7 -14.5q2 -17 7.5 -34t20.5 -39t47 -35.5t77 -13.5q140 0 140 105q0 33 -21 55.5t-54.5 35t-73.5 23t-80.5 25.5t-74 36.5t-54.5 61t-21 94.5q0 92 63 140.5t178 48.5
q116 0 173.5 -56.5t57.5 -130.5q0 -10 -7 -16.5t-17 -6.5h-60q-20 0 -24 21q-14 94 -125 94q-65 0 -98.5 -20.5t-33.5 -73.5z" />
    <glyph glyph-name="scircumflex" unicode="&#x15d;" horiz-adv-x="478" 
d="M116 556q-11 0 -11 10q0 3 5 13l68 106q9 15 26 15h73q15 0 23 -15l69 -108l2 -5q2 -4 2 -6q0 -10 -11 -10h-59q-8 0 -17 10l-47 65l-47 -65q-7 -10 -17 -10h-59zM152 369q0 -25 21 -41t52.5 -22t68 -16.5t68 -23.5t52.5 -44.5t21 -78.5q0 -79 -55 -116t-141 -37
q-85 0 -136.5 41.5t-60.5 97.5q-2 9 -1 14q0 16 17 16h62q14 0 19 -15q17 -67 101 -67q93 0 93 63q0 28 -29.5 43t-71 23t-83 20.5t-71 46.5t-29.5 91q0 73 54 109.5t135 36.5q83 0 127.5 -39.5t59.5 -93.5q2 -6 2 -14q-2 -17 -18 -17h-62q-13 0 -19 16q-6 18 -13.5 29
t-28.5 21.5t-52 10.5q-82 0 -82 -54z" />
    <glyph glyph-name="Scedilla" unicode="&#x15e;" horiz-adv-x="592" 
d="M546 190q0 -96 -64.5 -145t-160.5 -54l-13 -38q11 4 25 4q31 0 57.5 -19.5t26.5 -57.5v-4q0 -35 -24.5 -59.5t-75.5 -24.5q-55 0 -82 29q-8 8 0 20l15 20q8 9 21 -1q17 -14 44 -14q13 0 23.5 7.5t10.5 22.5v3q0 13 -9.5 20.5t-22.5 7.5q-14 0 -27.5 -7t-14.5 -7
q-4 -2 -12 0l-20 9q-11 4 -5 20l26 70q-57 5 -101.5 27.5t-70 54t-38 65t-12.5 66.5q0 10 6.5 16.5t16.5 6.5h60q9 0 15 -6.5t7 -14.5q2 -17 7.5 -34t20.5 -39t47 -35.5t77 -13.5q140 0 140 105q0 33 -21 55.5t-54.5 35t-73.5 23t-80.5 25.5t-74 36.5t-54.5 61t-21 94.5
q0 92 63 140.5t178 48.5q116 0 173.5 -56.5t57.5 -130.5q0 -10 -7 -16.5t-17 -6.5h-60q-20 0 -24 21q-14 94 -125 94q-65 0 -98.5 -20.5t-33.5 -73.5q0 -34 21 -57t54.5 -35.5t74 -23t80.5 -25t73.5 -35.5t54.5 -60.5t21 -94.5z" />
    <glyph glyph-name="scedilla" unicode="&#x15f;" horiz-adv-x="478" 
d="M435 143q0 -75 -50 -112.5t-130 -40.5l-13 -37q11 4 25 4q31 0 57.5 -19.5t26.5 -57.5v-4q0 -36 -24.5 -60t-75.5 -24q-53 0 -82 29q-8 9 0 20l15 20q9 10 21 -1q17 -14 44 -14q13 0 24 7.5t11 22.5v3q0 13 -10 20.5t-23 7.5q-14 0 -27 -7t-14 -7q-5 -2 -13 0l-20 9
q-10 4 -5 20l26 71q-67 10 -107.5 49t-48.5 87q-2 9 -1 14q0 16 17 16h62q14 0 19 -15q17 -67 101 -67q93 0 93 63q0 28 -29.5 43t-71 23t-83 20.5t-71 46.5t-29.5 91q0 73 54 109.5t135 36.5q83 0 127.5 -39.5t59.5 -93.5q2 -6 2 -14q-2 -17 -18 -17h-62q-13 0 -19 16
q-6 18 -13.5 29t-28.5 21.5t-52 10.5q-82 0 -82 -54q0 -25 21 -41t52.5 -22t68 -16.5t68 -23.5t52.5 -44.5t21 -78.5z" />
    <glyph glyph-name="Scaron" unicode="&#x160;" horiz-adv-x="592" 
d="M235 771l-68 106q-5 10 -5 13q0 10 10 10h59q11 0 18 -10l47 -67l47 67q7 10 17 10h59q11 0 11 -10q0 -4 -5 -11l-68 -108q-10 -15 -23 -15h-77q-13 0 -22 15zM167 521q0 -34 21 -57t54.5 -35.5t74 -23t80.5 -25t73.5 -35.5t54.5 -60.5t21 -94.5q0 -70 -37.5 -117
t-90.5 -65t-119 -18t-118 21t-81 54t-43.5 69t-14.5 71q0 10 6.5 16.5t16.5 6.5h60q9 0 15 -6.5t7 -14.5q2 -17 7.5 -34t20.5 -39t47 -35.5t77 -13.5q140 0 140 105q0 33 -21 55.5t-54.5 35t-73.5 23t-80.5 25.5t-74 36.5t-54.5 61t-21 94.5q0 92 63 140.5t178 48.5
q116 0 173.5 -56.5t57.5 -130.5q0 -10 -7 -16.5t-17 -6.5h-60q-20 0 -24 21q-14 94 -125 94q-65 0 -98.5 -20.5t-33.5 -73.5z" />
    <glyph glyph-name="scaron" unicode="&#x161;" horiz-adv-x="478" 
d="M178 571l-68 106q-5 10 -5 13q0 10 11 10h59q10 0 17 -10l47 -67l47 67q9 10 17 10h59q11 0 11 -10q0 -1 -1 -3t-2 -4.5t-1 -3.5l-69 -108q-8 -15 -23 -15h-77q-13 0 -22 15zM152 369q0 -25 21 -41t52.5 -22t68 -16.5t68 -23.5t52.5 -44.5t21 -78.5q0 -79 -55 -116
t-141 -37q-85 0 -136.5 41.5t-60.5 97.5q-2 9 -1 14q0 16 17 16h62q14 0 19 -15q17 -67 101 -67q93 0 93 63q0 28 -29.5 43t-71 23t-83 20.5t-71 46.5t-29.5 91q0 73 54 109.5t135 36.5q83 0 127.5 -39.5t59.5 -93.5q2 -6 2 -14q-2 -17 -18 -17h-62q-13 0 -19 16
q-6 18 -13.5 29t-28.5 21.5t-52 10.5q-82 0 -82 -54z" />
    <glyph glyph-name="uni0162" unicode="&#x162;" horiz-adv-x="566" 
d="M16 622q0 -10 6.5 -16.5t16.5 -6.5h190v-576q0 -10 6.5 -16.5t16.5 -6.5h61q10 0 17 6.5t7 16.5v576h190q10 0 16.5 6.5t6.5 16.5v54q0 10 -6.5 17t-16.5 7h-488q-10 0 -16.5 -7t-6.5 -17v-54zM283 -55q54 0 54 -73q0 -40 -12.5 -72.5t-30 -48.5t-32.5 -24.5t-24 -8.5
q-7 0 -7 9v37q0 8 10 15q35 25 36 62q-46 5 -46 52q0 23 14.5 37.5t37.5 14.5z" />
    <glyph glyph-name="uni0163" unicode="&#x163;" horiz-adv-x="359" 
d="M246 0q-86 0 -120 39t-34 121v245h-69q-10 0 -16.5 6.5t-6.5 16.5v48q0 10 6.5 17t16.5 7q39 0 54.5 13t15.5 50v43q0 10 6.5 17t16.5 7h58q10 0 17 -7t7 -17v-106h101q10 0 16.5 -7t6.5 -17v-48q0 -10 -6.5 -16.5t-16.5 -6.5h-101v-229q0 -46 12 -62t54 -16h35
q10 0 16.5 -7t6.5 -17v-51q0 -10 -6.5 -16.5t-16.5 -6.5h-53zM173 -55q54 0 54 -73q0 -40 -12.5 -72.5t-30 -48.5t-32.5 -24.5t-24 -8.5q-6 0 -6 9v37q0 9 9 15q35 25 36 62q-46 5 -46 52q0 23 14.5 37.5t37.5 14.5z" />
    <glyph glyph-name="Tcaron" unicode="&#x164;" horiz-adv-x="566" 
d="M222 771l-68 106q-5 10 -5 13q0 10 11 10h59q10 0 17 -10l47 -67l47 67q9 10 17 10h59q11 0 11 -10q0 -4 -5 -11l-68 -108q-10 -15 -23 -15h-77q-13 0 -22 15zM527 700q10 0 16.5 -7t6.5 -17v-54q0 -10 -6.5 -16.5t-16.5 -6.5h-190v-576q0 -10 -7 -16.5t-17 -6.5h-61
q-10 0 -16.5 6.5t-6.5 16.5v576h-190q-10 0 -16.5 6.5t-6.5 16.5v54q0 10 6.5 17t16.5 7h488z" />
    <glyph glyph-name="tcaron" unicode="&#x165;" horiz-adv-x="359" 
d="M274 561q-10 0 -16.5 6.5t-6.5 16.5v196q0 10 6.5 16.5t16.5 6.5h59q10 0 17.5 -7t6.5 -16l-28 -196q-4 -23 -24 -23h-31zM246 0q-86 0 -120 39t-34 121v245h-69q-10 0 -16.5 6.5t-6.5 16.5v48q0 10 6.5 17t16.5 7q39 0 54.5 13t15.5 50v43q0 10 6.5 17t16.5 7h58
q10 0 17 -7t7 -17v-106h101q10 0 16.5 -7t6.5 -17v-48q0 -10 -6.5 -16.5t-16.5 -6.5h-101v-229q0 -46 12 -62t54 -16h35q10 0 16.5 -7t6.5 -17v-51q0 -10 -6.5 -16.5t-16.5 -6.5h-53z" />
    <glyph glyph-name="Tbar" unicode="&#x166;" horiz-adv-x="566" 
d="M527 700q10 0 16.5 -7t6.5 -17v-54q0 -10 -6.5 -16.5t-16.5 -6.5h-190v-208h113q10 0 17 -7t7 -17v-38q0 -10 -7 -16.5t-17 -6.5h-113v-283q0 -10 -7 -16.5t-17 -6.5h-61q-10 0 -16.5 6.5t-6.5 16.5v283h-114q-10 0 -16.5 6.5t-6.5 16.5v38q0 10 6.5 17t16.5 7h114v208
h-190q-10 0 -16.5 6.5t-6.5 16.5v54q0 10 6.5 17t16.5 7h488z" />
    <glyph glyph-name="tbar" unicode="&#x167;" horiz-adv-x="359" 
d="M299 405h-101v-75h68q10 0 17 -7t7 -17v-38q0 -10 -7 -16.5t-17 -6.5h-68v-69q0 -46 12 -62t54 -16h35q10 0 16.5 -7t6.5 -17v-51q0 -10 -6.5 -16.5t-16.5 -6.5h-53q-86 0 -120 39t-34 121v85h-48q-10 0 -17 6.5t-7 16.5v38q0 10 7 17t17 7h48v75h-69q-10 0 -16.5 6.5
t-6.5 16.5v48q0 10 6.5 17t16.5 7q39 0 54.5 13t15.5 50v43q0 10 6.5 17t16.5 7h58q10 0 17 -7t7 -17v-106h101q10 0 16.5 -7t6.5 -17v-48q0 -10 -6.5 -16.5t-16.5 -6.5z" />
    <glyph glyph-name="Utilde" unicode="&#x168;" 
d="M176 759q-17 0 -17 16q0 50 28 81.5t70 31.5q33 0 71 -23t49 -23q24 0 24 30q0 7 5 12t12 5h41q7 0 12 -5t5 -12q0 -52 -25 -82.5t-70 -30.5q-35 0 -71 22t-48 22q-24 0 -26 -30q-2 -14 -17 -14h-43zM489 700q-10 0 -16.5 -7t-6.5 -17v-410q0 -84 -40.5 -129.5
t-107.5 -45.5t-107 45t-40 130v410q0 10 -6.5 17t-16.5 7h-61q-10 0 -16.5 -7t-6.5 -17v-410q0 -126 70 -201t184 -75t184.5 75t70.5 201v410q0 10 -6.5 17t-16.5 7h-61z" />
    <glyph glyph-name="utilde" unicode="&#x169;" horiz-adv-x="544" 
d="M131 559q-17 0 -17 16q0 50 28 81.5t70 31.5q33 0 71 -23t49 -23q24 0 24 30q0 7 5 12t12 5h41q7 0 12 -5t5 -12q0 -52 -25 -82.5t-70 -30.5q-35 0 -71 22t-48 22q-25 0 -26 -30q-2 -14 -17 -14h-43zM454 500q10 0 16.5 -7t6.5 -17v-453q0 -10 -6.5 -16.5t-16.5 -6.5h-61
q-10 0 -16.5 6.5t-6.5 16.5v31q-46 -64 -134 -64q-86 0 -130 60t-44 167v259q0 10 6.5 17t16.5 7h61q10 0 16.5 -7t6.5 -17v-271q0 -59 26.5 -91t72.5 -32q47 0 74.5 32t27.5 91v271q0 10 6.5 17t16.5 7h61z" />
    <glyph glyph-name="Umacron" unicode="&#x16a;" 
d="M441 865h-245q-10 0 -16.5 -6.5t-6.5 -16.5v-42q0 -10 6.5 -16.5t16.5 -6.5h245q10 0 16.5 6.5t6.5 16.5v42q0 10 -6.5 16.5t-16.5 6.5zM489 700q-10 0 -16.5 -7t-6.5 -17v-410q0 -84 -40.5 -129.5t-107.5 -45.5t-107 45t-40 130v410q0 10 -6.5 17t-16.5 7h-61
q-10 0 -16.5 -7t-6.5 -17v-410q0 -126 70 -201t184 -75t184.5 75t70.5 201v410q0 10 -6.5 17t-16.5 7h-61z" />
    <glyph glyph-name="umacron" unicode="&#x16b;" horiz-adv-x="544" 
d="M396 665h-245q-10 0 -16.5 -6.5t-6.5 -16.5v-42q0 -10 6.5 -16.5t16.5 -6.5h245q10 0 16.5 6.5t6.5 16.5v42q0 10 -6.5 16.5t-16.5 6.5zM454 500q10 0 16.5 -7t6.5 -17v-453q0 -10 -6.5 -16.5t-16.5 -6.5h-61q-10 0 -16.5 6.5t-6.5 16.5v31q-46 -64 -134 -64
q-86 0 -130 60t-44 167v259q0 10 6.5 17t16.5 7h61q10 0 16.5 -7t6.5 -17v-271q0 -59 26.5 -91t72.5 -32q47 0 74.5 32t27.5 91v271q0 10 6.5 17t16.5 7h61z" />
    <glyph glyph-name="Ubreve" unicode="&#x16c;" 
d="M432 900q19 0 19 -19q0 -51 -36.5 -86t-96.5 -35t-96 35t-36 86q0 19 19 19h42q8 0 13 -5.5t5 -13.5q0 -19 13.5 -32.5t39.5 -13.5q27 0 40.5 13.5t13.5 32.5t19 19h41zM489 700q-10 0 -16.5 -7t-6.5 -17v-410q0 -84 -40.5 -129.5t-107.5 -45.5t-107 45t-40 130v410
q0 10 -6.5 17t-16.5 7h-61q-10 0 -16.5 -7t-6.5 -17v-410q0 -126 70 -201t184 -75t184.5 75t70.5 201v410q0 10 -6.5 17t-16.5 7h-61z" />
    <glyph glyph-name="ubreve" unicode="&#x16d;" horiz-adv-x="544" 
d="M388 700q8 0 13 -5.5t5 -13.5q0 -51 -36.5 -86t-96.5 -35t-96 35t-36 86q0 19 19 19h42q8 0 13 -5.5t5 -13.5q0 -19 13.5 -32.5t39.5 -13.5q27 0 40.5 13.5t13.5 32.5t19 19h42zM454 500q10 0 16.5 -7t6.5 -17v-453q0 -10 -6.5 -16.5t-16.5 -6.5h-61q-10 0 -16.5 6.5
t-6.5 16.5v31q-46 -64 -134 -64q-86 0 -130 60t-44 167v259q0 10 6.5 17t16.5 7h61q10 0 16.5 -7t6.5 -17v-271q0 -59 26.5 -91t72.5 -32q47 0 74.5 32t27.5 91v271q0 10 6.5 17t16.5 7h61z" />
    <glyph glyph-name="Uring" unicode="&#x16e;" 
d="M318 962q48 0 81 -33t33 -80t-33 -79.5t-81 -32.5t-80.5 32.5t-32.5 79.5t32.5 80t80.5 33zM318 803q19 0 32 13t13 33q0 19 -13.5 32.5t-31.5 13.5q-19 0 -32 -13.5t-13 -32.5q0 -20 13 -33t32 -13zM489 700q-10 0 -16.5 -7t-6.5 -17v-410q0 -84 -40.5 -129.5
t-107.5 -45.5t-107 45t-40 130v410q0 10 -6.5 17t-16.5 7h-61q-10 0 -16.5 -7t-6.5 -17v-410q0 -126 70 -201t184 -75t184.5 75t70.5 201v410q0 10 -6.5 17t-16.5 7h-61z" />
    <glyph glyph-name="uring" unicode="&#x16f;" horiz-adv-x="544" 
d="M273 762q48 0 81 -33t33 -80t-33 -79.5t-81 -32.5t-80.5 32.5t-32.5 79.5t32.5 80t80.5 33zM273 603q19 0 32 13t13 33q0 19 -13.5 32.5t-31.5 13.5q-19 0 -32 -13.5t-13 -32.5q0 -20 13 -33t32 -13zM454 500q10 0 16.5 -7t6.5 -17v-453q0 -10 -6.5 -16.5t-16.5 -6.5h-61
q-10 0 -16.5 6.5t-6.5 16.5v31q-46 -64 -134 -64q-86 0 -130 60t-44 167v259q0 10 6.5 17t16.5 7h61q10 0 16.5 -7t6.5 -17v-271q0 -59 26.5 -91t72.5 -32q47 0 74.5 32t27.5 91v271q0 10 6.5 17t16.5 7h61z" />
    <glyph glyph-name="Uhungarumlaut" unicode="&#x170;" 
d="M358 900q12 0 12 -11q0 -6 -4 -10l-79 -113q-9 -10 -18 -10h-64q-11 0 -11 10q0 2 2 8l3 5l55 106q8 15 23 15h81zM526 900q12 0 12 -11q0 -6 -4 -10l-79 -113q-9 -10 -18 -10h-64q-11 0 -11 10q0 2 2 8l3 5l55 106q8 15 23 15h81zM489 700q-10 0 -16.5 -7t-6.5 -17v-410
q0 -84 -40.5 -129.5t-107.5 -45.5t-107 45t-40 130v410q0 10 -6.5 17t-16.5 7h-61q-10 0 -16.5 -7t-6.5 -17v-410q0 -126 70 -201t184 -75t184.5 75t70.5 201v410q0 10 -6.5 17t-16.5 7h-61z" />
    <glyph glyph-name="uhungarumlaut" unicode="&#x171;" horiz-adv-x="544" 
d="M313 700q12 0 12 -11q0 -6 -4 -10l-79 -113q-9 -10 -18 -10h-64q-11 0 -11 10q0 2 3 8l2 5l55 106q7 15 23 15h81zM481 700q12 0 12 -11q0 -6 -4 -10l-79 -113q-9 -10 -18 -10h-64q-11 0 -11 10q0 2 3 8l2 5l55 106q7 15 23 15h81zM454 500q10 0 16.5 -7t6.5 -17v-453
q0 -10 -6.5 -16.5t-16.5 -6.5h-61q-10 0 -16.5 6.5t-6.5 16.5v31q-46 -64 -134 -64q-86 0 -130 60t-44 167v259q0 10 6.5 17t16.5 7h61q10 0 16.5 -7t6.5 -17v-271q0 -59 26.5 -91t72.5 -32q47 0 74.5 32t27.5 91v271q0 10 6.5 17t16.5 7h61z" />
    <glyph glyph-name="Uogonek" unicode="&#x172;" 
d="M550 700q10 0 16.5 -7t6.5 -17v-410q0 -83 -31.5 -145t-87.5 -96l-21 -17q-82 -57 -82 -114q0 -20 12 -31t28 -11q18 0 37 11q14 8 20 -2l13 -21q7 -10 -2 -20q-28 -28 -78 -28q-46 0 -75.5 26.5t-29.5 70.5q0 54 54 101h-12q-114 0 -184 75t-70 201v410q0 10 6.5 17
t16.5 7h61q10 0 16.5 -7t6.5 -17v-410q0 -85 40 -130t107 -45t107.5 45.5t40.5 129.5v410q0 10 6.5 17t16.5 7h61z" />
    <glyph glyph-name="uogonek" unicode="&#x173;" horiz-adv-x="547" 
d="M496 -160q8 -11 0 -19q-31 -29 -80 -29q-46 0 -75.5 26.5t-29.5 70.5q0 58 72 115q-10 7 -10 19v31q-46 -64 -134 -64q-86 0 -130 60t-44 167v259q0 10 6.5 17t16.5 7h61q10 0 16.5 -7t6.5 -17v-271q0 -59 26.5 -91t72.5 -32q47 0 74.5 32t27.5 91v271q0 10 6.5 17
t16.5 7h61q10 0 16.5 -7t6.5 -17v-453q0 -10 -6.5 -16.5t-16.5 -6.5h-2q-69 -51 -69 -106q0 -20 12 -31t30 -11q16 0 37 12q12 7 21 -8z" />
    <glyph glyph-name="Wcircumflex" unicode="&#x174;" horiz-adv-x="920" 
d="M340 756q-11 0 -11 10q0 3 5 13l68 106q9 15 26 15h73q13 0 23 -15l68 -108q5 -7 5 -11q0 -10 -11 -10h-59q-8 0 -17 10l-47 66l-47 -66q-7 -10 -17 -10h-59zM882 700q17 0 17 -17q0 -6 -4 -17l-177 -648q-6 -18 -23 -18h-78q-17 0 -23 18l-135 521l-133 -521
q-4 -18 -23 -18h-76q-19 0 -23 18l-178 643q-5 20 -5 22q0 17 16 17h74q20 0 25 -23l130 -517l135 516q6 24 24 24h71q19 0 25 -24l135 -516l129 516q7 24 25 24h72z" />
    <glyph glyph-name="wcircumflex" unicode="&#x175;" horiz-adv-x="738" 
d="M246 556q-11 0 -11 10q0 3 5 13l68 106q9 15 26 15h73q13 0 23 -15l68 -108q5 -7 5 -11q0 -10 -11 -10h-59q-8 0 -17 10l-47 66l-47 -66q-7 -10 -17 -10h-59zM708 500q16 0 16 -17q0 -5 -7 -26l-141 -441q-6 -16 -23 -16h-56q-18 0 -23 18l-104 347l-102 -348
q-4 -17 -23 -17h-58q-18 0 -23 16l-144 443q-6 18 -6 24q0 17 17 17h68q19 0 25 -24l95 -333l96 333q6 24 25 24h62q18 0 25 -24l99 -326l88 326q6 24 25 24h69z" />
    <glyph glyph-name="Ycircumflex" unicode="&#x176;" horiz-adv-x="618" 
d="M186 756q-11 0 -11 10q0 3 5 13l68 106q9 15 26 15h73q15 0 23 -15l69 -108l2 -5q2 -4 2 -6q0 -10 -10 -10h-59q-9 0 -18 10l-47 65l-47 -65q-7 -10 -17 -10h-59zM582 700q16 0 16 -17q0 -7 -11 -26l-225 -379v-255q0 -10 -7 -16.5t-17 -6.5h-61q-10 0 -16.5 6.5
t-6.5 16.5v256l-223 379q-1 2 -4 7t-5 9.5t-2 8.5q0 17 17 17h79q12 0 19 -14l176 -307l176 308q9 13 20 13h75z" />
    <glyph glyph-name="ycircumflex" unicode="&#x177;" horiz-adv-x="499" 
d="M126 556q-10 0 -10 10q0 3 5 13l67 106q10 15 27 15h72q14 0 24 -15l68 -108q5 -7 5 -11q0 -10 -11 -10h-59q-9 0 -18 10l-47 65l-46 -65q-9 -10 -18 -10h-59zM469 500q16 0 16 -17q0 -7 -6 -21l-192 -497q-18 -48 -30.5 -73t-33 -49t-49.5 -33.5t-72 -9.5h-44
q-10 0 -16.5 6.5t-6.5 16.5v52q0 10 6.5 16.5t16.5 6.5h37q40 0 59 16.5t31 48.5l15 41l-175 450q-9 27 -9 29q0 17 17 17h70q17 0 24 -21l128 -345l121 346q6 20 23 20h70z" />
    <glyph glyph-name="Ydieresis" unicode="&#x178;" horiz-adv-x="618" 
d="M217 773q-26 0 -42.5 16.5t-16.5 42.5t16.5 42.5t42.5 16.5t42.5 -16.5t16.5 -42.5t-16.5 -42.5t-42.5 -16.5zM407 773q-26 0 -42 16.5t-16 42.5t16 42.5t42 16.5t42.5 -16.5t16.5 -42.5t-16.5 -42.5t-42.5 -16.5zM582 700q16 0 16 -17q0 -7 -11 -26l-225 -379v-255
q0 -10 -7 -16.5t-17 -6.5h-61q-10 0 -16.5 6.5t-6.5 16.5v256l-223 379q-1 2 -4 7t-5 9.5t-2 8.5q0 17 17 17h79q12 0 19 -14l176 -307l176 308q9 13 20 13h75z" />
    <glyph glyph-name="Zacute" unicode="&#x179;" horiz-adv-x="568" 
d="M256 756q-10 0 -10 10q0 6 5 13l55 106q6 15 23 15h80q12 0 12 -11q0 -6 -4 -10l-79 -113q-7 -10 -17 -10h-65zM503 700q10 0 16.5 -7t6.5 -17v-50q0 -20 -21 -51l-328 -475h326q10 0 16.5 -6.5t6.5 -16.5v-54q0 -10 -6.5 -16.5t-16.5 -6.5h-438q-10 0 -16.5 6.5
t-6.5 16.5v47q0 20 15 40l340 490h-332q-10 0 -16.5 6.5t-6.5 16.5v53q0 10 6.5 17t16.5 7h438z" />
    <glyph glyph-name="zacute" unicode="&#x17a;" horiz-adv-x="441" 
d="M193 556q-11 0 -11 10q0 2 2 8l3 5l55 106q8 15 24 15h80q12 0 12 -11q0 -6 -4 -10l-79 -113q-7 -10 -18 -10h-64zM411 429q0 -23 -15 -39l-240 -297h231q10 0 17 -6.5t7 -16.5v-47q0 -10 -7 -16.5t-17 -6.5h-330q-10 0 -16.5 6.5t-6.5 16.5v41q0 23 18 44l232 299h-227
q-10 0 -16.5 6.5t-6.5 16.5v46q0 10 6.5 17t16.5 7h330q10 0 17 -7t7 -17v-47z" />
    <glyph glyph-name="Zdotaccent" unicode="&#x17b;" horiz-adv-x="568" 
d="M284 764q-28 0 -46.5 18t-18.5 47t18.5 47t46.5 18t46.5 -18t18.5 -47t-18.5 -47t-46.5 -18zM503 700q10 0 16.5 -7t6.5 -17v-50q0 -20 -21 -51l-328 -475h326q10 0 16.5 -6.5t6.5 -16.5v-54q0 -10 -6.5 -16.5t-16.5 -6.5h-438q-10 0 -16.5 6.5t-6.5 16.5v47q0 20 15 40
l340 490h-332q-10 0 -16.5 6.5t-6.5 16.5v53q0 10 6.5 17t16.5 7h438z" />
    <glyph glyph-name="zdotaccent" unicode="&#x17c;" horiz-adv-x="441" 
d="M221 564q-29 0 -47 18t-18 47t18 47t47 18t47 -18t18 -47t-18 -47t-47 -18zM411 429q0 -23 -15 -39l-240 -297h231q10 0 17 -6.5t7 -16.5v-47q0 -10 -7 -16.5t-17 -6.5h-330q-10 0 -16.5 6.5t-6.5 16.5v41q0 23 18 44l232 299h-227q-10 0 -16.5 6.5t-6.5 16.5v46
q0 10 6.5 17t16.5 7h330q10 0 17 -7t7 -17v-47z" />
    <glyph glyph-name="Zcaron" unicode="&#x17d;" horiz-adv-x="568" 
d="M223 771l-68 106q-5 10 -5 13q0 10 11 10h59q10 0 17 -10l47 -67l47 67q9 10 17 10h59q11 0 11 -10q0 -1 -1 -3t-2 -4.5t-1 -3.5l-69 -108q-8 -15 -23 -15h-77q-13 0 -22 15zM503 700q10 0 16.5 -7t6.5 -17v-50q0 -20 -21 -51l-328 -475h326q10 0 16.5 -6.5t6.5 -16.5
v-54q0 -10 -6.5 -16.5t-16.5 -6.5h-438q-10 0 -16.5 6.5t-6.5 16.5v47q0 20 15 40l340 490h-332q-10 0 -16.5 6.5t-6.5 16.5v53q0 10 6.5 17t16.5 7h438z" />
    <glyph glyph-name="zcaron" unicode="&#x17e;" horiz-adv-x="441" 
d="M160 571l-68 106q-5 10 -5 13q0 10 10 10h59q11 0 18 -10l47 -67l47 67q7 10 17 10h59q11 0 11 -10q0 -4 -5 -11l-68 -108q-10 -15 -23 -15h-77q-13 0 -22 15zM411 429q0 -23 -15 -39l-240 -297h231q10 0 17 -6.5t7 -16.5v-47q0 -10 -7 -16.5t-17 -6.5h-330
q-10 0 -16.5 6.5t-6.5 16.5v41q0 23 18 44l232 299h-227q-10 0 -16.5 6.5t-6.5 16.5v46q0 10 6.5 17t16.5 7h330q10 0 17 -7t7 -17v-47z" />
    <glyph glyph-name="florin" unicode="&#x192;" horiz-adv-x="386" 
d="M374 690q10 0 17 -7t6 -17l-8 -49q-4 -23 -23 -23h-26q-38 0 -52 -15.5t-19 -56.5l-4 -22h82q10 0 17 -7t6 -17l-7 -48q-4 -23 -24 -23h-87l-57 -398q-17 -114 -60.5 -160.5t-138.5 -46.5h-18q-10 0 -17.5 7.5t-6.5 16.5l8 49q3 23 23 23h14q43 0 61.5 21t28.5 89l57 399
h-59q-10 0 -17 7t-6 16l7 48q3 24 23 24h65l4 22q13 92 54.5 130t131.5 38h25z" />
    <glyph glyph-name="uni0218" unicode="&#x218;" horiz-adv-x="592" 
d="M448 500q-20 0 -24 21q-14 94 -125 94q-65 0 -98.5 -20.5t-33.5 -73.5q0 -34 21 -57t54.5 -35.5t74 -23t80.5 -25t73.5 -35.5t54.5 -60.5t21 -94.5q0 -70 -37.5 -117t-90.5 -65t-119 -18t-118 21t-81 54t-43.5 69t-14.5 71q0 10 6.5 16.5t16.5 6.5h60q9 0 15 -6.5
t7 -14.5q2 -17 7.5 -34t20.5 -39t47 -35.5t77 -13.5q140 0 140 105q0 33 -21 55.5t-54.5 35t-73.5 23t-80.5 25.5t-74 36.5t-54.5 61t-21 94.5q0 92 63 140.5t178 48.5q116 0 173.5 -56.5t57.5 -130.5q0 -10 -7 -16.5t-17 -6.5h-60zM295 -55q55 0 55 -73q0 -40 -12.5 -72.5
t-30 -48.5t-32.5 -24.5t-24 -8.5q-7 0 -7 9v37q0 9 9 15q34 24 37 62q-46 5 -46 52q0 23 14 37.5t37 14.5z" />
    <glyph glyph-name="uni0219" unicode="&#x219;" horiz-adv-x="478" 
d="M239 -10q-85 0 -136.5 41.5t-60.5 97.5q-2 9 -1 14q0 16 17 16h62q14 0 19 -15q17 -67 101 -67q93 0 93 63q0 28 -29.5 43t-71 23t-83 20.5t-71 46.5t-29.5 91q0 73 54 109.5t135 36.5q83 0 127.5 -39.5t59.5 -93.5q2 -6 2 -14q-2 -17 -18 -17h-62q-13 0 -19 16
q-6 18 -13.5 29t-28.5 21.5t-52 10.5q-82 0 -82 -54q0 -25 21 -41t52.5 -22t68 -16.5t68 -23.5t52.5 -44.5t21 -78.5q0 -79 -55 -116t-141 -37zM239 -55q54 0 54 -73q0 -40 -12.5 -72.5t-30 -48.5t-32.5 -24.5t-24 -8.5q-7 0 -7 9v37q0 8 10 15q35 25 36 62q-46 5 -46 52
q0 23 14.5 37.5t37.5 14.5z" />
    <glyph glyph-name="uni021A" unicode="&#x21a;" horiz-adv-x="566" 
d="M16 622q0 -10 6.5 -16.5t16.5 -6.5h190v-576q0 -10 6.5 -16.5t16.5 -6.5h61q10 0 17 6.5t7 16.5v576h190q10 0 16.5 6.5t6.5 16.5v54q0 10 -6.5 17t-16.5 7h-488q-10 0 -16.5 -7t-6.5 -17v-54zM283 -55q54 0 54 -73q0 -40 -12.5 -72.5t-30 -48.5t-32.5 -24.5t-24 -8.5
q-7 0 -7 9v37q0 8 10 15q35 25 36 62q-46 5 -46 52q0 23 14.5 37.5t37.5 14.5z" />
    <glyph glyph-name="uni021B" unicode="&#x21b;" horiz-adv-x="359" 
d="M246 0q-86 0 -120 39t-34 121v245h-69q-10 0 -16.5 6.5t-6.5 16.5v48q0 10 6.5 17t16.5 7q39 0 54.5 13t15.5 50v43q0 10 6.5 17t16.5 7h58q10 0 17 -7t7 -17v-106h101q10 0 16.5 -7t6.5 -17v-48q0 -10 -6.5 -16.5t-16.5 -6.5h-101v-229q0 -46 12 -62t54 -16h35
q10 0 16.5 -7t6.5 -17v-51q0 -10 -6.5 -16.5t-16.5 -6.5h-53zM173 -55q54 0 54 -73q0 -40 -12.5 -72.5t-30 -48.5t-32.5 -24.5t-24 -8.5q-6 0 -6 9v37q0 9 9 15q35 25 36 62q-46 5 -46 52q0 23 14.5 37.5t37.5 14.5z" />
    <glyph glyph-name="uni0237" unicode="&#x237;" horiz-adv-x="251" 
d="M156 500q10 0 16.5 -7t6.5 -17v-469q0 -116 -53 -161.5t-142 -45.5q-10 0 -16.5 6.5t-6.5 16.5v52q0 10 6.5 16.5t16.5 6.5q45 0 66.5 25.5t21.5 83.5v469q0 10 6.5 17t16.5 7h61z" />
    <glyph glyph-name="circumflex" unicode="&#x2c6;" horiz-adv-x="328" 
d="M294 577l2 -5q2 -4 2 -6q0 -10 -11 -10h-59q-8 0 -17 10l-47 65l-47 -65q-7 -10 -17 -10h-59q-11 0 -11 10q0 3 5 13l68 106q9 15 26 15h73q15 0 23 -15z" />
    <glyph glyph-name="caron" unicode="&#x2c7;" horiz-adv-x="344" 
d="M295 700q11 0 11 -10q0 -4 -5 -11l-68 -108q-10 -15 -23 -15h-77q-13 0 -22 15l-68 106q-5 10 -5 13q0 10 10 10h59q11 0 18 -10l47 -67l47 67q9 10 17 10h59z" />
    <glyph glyph-name="breve" unicode="&#x2d8;" horiz-adv-x="347" 
d="M288 700q8 0 13 -5.5t5 -13.5q0 -51 -36 -86t-97 -35q-60 0 -95.5 35t-35.5 86q0 19 18 19h42q8 0 13 -5.5t5 -13.5q0 -19 13.5 -32.5t39.5 -13.5q27 0 41 13.5t14 32.5t18 19h42z" />
    <glyph glyph-name="dotaccent" unicode="&#x2d9;" horiz-adv-x="230" 
d="M115 694q29 0 47 -18t18 -47t-18 -47t-47 -18t-47 18t-18 47t18 47t47 18z" />
    <glyph glyph-name="ring" unicode="&#x2da;" horiz-adv-x="387" 
d="M193 762q48 0 81 -33t33 -80t-33 -79.5t-81 -32.5t-80.5 32.5t-32.5 79.5t32.5 80t80.5 33zM193 603q19 0 32 13t13 33q0 19 -13 32.5t-32 13.5t-32 -13.5t-13 -32.5q0 -20 13 -33t32 -13z" />
    <glyph glyph-name="ogonek" unicode="&#x2db;" horiz-adv-x="295" 
d="M122 -106q0 30 19.5 55.5t68.5 58.5l12 9l-24 37l-12 -9q-72 -44 -101.5 -80t-29.5 -76q0 -44 29.5 -70.5t74.5 -26.5q27 0 49.5 13t29.5 27q2 7 -2 11l-15 15q-11 13 -18 6q-18 -14 -38 -14q-18 0 -30.5 11.5t-12.5 32.5z" />
    <glyph glyph-name="tilde" unicode="&#x2dc;" horiz-adv-x="484" 
d="M100 559q-17 0 -17 16q0 50 27.5 81.5t70.5 31.5q32 0 70.5 -23t49.5 -23q24 0 24 30q0 7 4.5 12t11.5 5h42q7 0 12 -5t5 -12q0 -52 -25 -82.5t-71 -30.5q-34 0 -70 22t-48 22q-24 0 -27 -30q0 -14 -16 -14h-43z" />
    <glyph glyph-name="hungarumlaut" unicode="&#x2dd;" horiz-adv-x="425" 
d="M251 700q13 0 13 -11q0 -4 -4 -10l-80 -113q-7 -10 -17 -10h-65q-10 0 -10 10q0 6 5 13l55 106q6 15 23 15h80zM419 700q13 0 13 -11q0 -4 -4 -10l-80 -113q-7 -10 -17 -10h-65q-10 0 -10 10q0 6 5 13l55 106q6 15 23 15h80z" />
    <glyph glyph-name="uni0394" unicode="&#x394;" horiz-adv-x="653" 
d="M623 37q6 -12 6 -21q0 -16 -17 -16h-73h-453h-45q-17 0 -17 16q0 4 6 20l232 646q7 18 23 18h83q16 0 23 -18zM325 575l-166 -478h331z" />
    <glyph glyph-name="uni03A9" unicode="&#x3a9;" horiz-adv-x="666" 
d="M629 97q10 0 16.5 -6.5t6.5 -16.5v-51q0 -10 -6.5 -16.5t-16.5 -6.5h-226q-10 0 -17 6.5t-7 16.5v46q0 17 24 28q49 29 69 73.5t20 131.5v125q0 84 -46 133t-114 49t-113 -49t-45 -133v-125q0 -87 19.5 -131.5t70.5 -73.5q23 -11 23 -28v-46q0 -10 -6.5 -16.5t-16.5 -6.5
h-227q-10 0 -16.5 6.5t-6.5 16.5v51q0 10 6.5 16.5t16.5 6.5h103q-74 60 -74 205v126q0 126 75.5 204t190.5 78q116 0 192 -78t76 -204v-126q0 -145 -74 -205h103z" />
    <glyph glyph-name="pi" unicode="&#x3c0;" horiz-adv-x="582" 
d="M544 96q10 0 16.5 -6.5t6.5 -16.5v-49q0 -10 -6.5 -17t-16.5 -7h-16q-74 0 -111.5 34t-37.5 113v252h-186v-376q0 -10 -7 -16.5t-17 -6.5h-61q-10 0 -16.5 6.5t-6.5 16.5v376h-58q-10 0 -16.5 6.5t-6.5 16.5v54q0 10 6.5 17t16.5 7h516q10 0 16.5 -7t6.5 -17v-54
q0 -10 -6.5 -16.5t-16.5 -6.5h-57v-252q0 -29 9.5 -40t32.5 -11h16z" />
    <glyph glyph-name="Wgrave" unicode="&#x1e80;" horiz-adv-x="920" 
d="M409 766l-79 113q-4 4 -4 10q0 11 12 11h80q16 0 24 -15l54 -106q5 -7 5 -13q0 -10 -10 -10h-65q-10 0 -17 10zM882 700q17 0 17 -17q0 -6 -4 -17l-177 -648q-6 -18 -23 -18h-78q-17 0 -23 18l-135 521l-133 -521q-4 -18 -23 -18h-76q-19 0 -23 18l-178 643q-5 20 -5 22
q0 17 16 17h74q20 0 25 -23l130 -517l135 516q6 24 24 24h71q19 0 25 -24l135 -516l129 516q7 24 25 24h72z" />
    <glyph glyph-name="wgrave" unicode="&#x1e81;" horiz-adv-x="738" 
d="M315 566l-79 113q-4 4 -4 10q0 11 12 11h80q17 0 23 -15l55 -106q5 -7 5 -13q0 -10 -10 -10h-65q-10 0 -17 10zM708 500q16 0 16 -17q0 -5 -7 -26l-141 -441q-6 -16 -23 -16h-56q-18 0 -23 18l-104 347l-102 -348q-4 -17 -23 -17h-58q-18 0 -23 16l-144 443q-6 18 -6 24
q0 17 17 17h68q19 0 25 -24l95 -333l96 333q6 24 25 24h62q18 0 25 -24l99 -326l88 326q6 24 25 24h69z" />
    <glyph glyph-name="Wacute" unicode="&#x1e82;" horiz-adv-x="920" 
d="M435 756q-11 0 -11 10q0 4 6 13l54 106q8 15 24 15h80q12 0 12 -11q0 -6 -4 -10l-79 -113q-7 -10 -18 -10h-64zM882 700q17 0 17 -17q0 -6 -4 -17l-177 -648q-6 -18 -23 -18h-78q-17 0 -23 18l-135 521l-133 -521q-4 -18 -23 -18h-76q-19 0 -23 18l-178 643q-5 20 -5 22
q0 17 16 17h74q20 0 25 -23l130 -517l135 516q6 24 24 24h71q19 0 25 -24l135 -516l129 516q7 24 25 24h72z" />
    <glyph glyph-name="wacute" unicode="&#x1e83;" horiz-adv-x="738" 
d="M341 556q-11 0 -11 10q0 4 6 13l54 106q8 15 24 15h80q12 0 12 -11q0 -6 -4 -10l-79 -113q-7 -10 -18 -10h-64zM708 500q16 0 16 -17q0 -5 -7 -26l-141 -441q-6 -16 -23 -16h-56q-18 0 -23 18l-104 347l-102 -348q-4 -17 -23 -17h-58q-18 0 -23 16l-144 443q-6 18 -6 24
q0 17 17 17h68q19 0 25 -24l95 -333l96 333q6 24 25 24h62q18 0 25 -24l99 -326l88 326q6 24 25 24h69z" />
    <glyph glyph-name="Wdieresis" unicode="&#x1e84;" horiz-adv-x="920" 
d="M371 773q-27 0 -43 16.5t-16 42.5t16 42.5t43 16.5q26 0 42.5 -16.5t16.5 -42.5t-16.5 -42.5t-42.5 -16.5zM561 773q-26 0 -42.5 16.5t-16.5 42.5t16.5 42.5t42.5 16.5t42.5 -16.5t16.5 -42.5t-16.5 -42.5t-42.5 -16.5zM882 700q17 0 17 -17q0 -6 -4 -17l-177 -648
q-6 -18 -23 -18h-78q-17 0 -23 18l-135 521l-133 -521q-4 -18 -23 -18h-76q-19 0 -23 18l-178 643q-5 20 -5 22q0 17 16 17h74q20 0 25 -23l130 -517l135 516q6 24 24 24h71q19 0 25 -24l135 -516l129 516q7 24 25 24h72z" />
    <glyph glyph-name="wdieresis" unicode="&#x1e85;" horiz-adv-x="738" 
d="M276 573q-26 0 -42 16.5t-16 42.5t16 42.5t42 16.5q27 0 43.5 -16.5t16.5 -42.5t-16.5 -42.5t-43.5 -16.5zM467 573q-26 0 -42.5 16.5t-16.5 42.5t16.5 42.5t42.5 16.5t42.5 -16.5t16.5 -42.5t-16.5 -42.5t-42.5 -16.5zM708 500q16 0 16 -17q0 -5 -7 -26l-141 -441
q-6 -16 -23 -16h-56q-18 0 -23 18l-104 347l-102 -348q-4 -17 -23 -17h-58q-18 0 -23 16l-144 443q-6 18 -6 24q0 17 17 17h68q19 0 25 -24l95 -333l96 333q6 24 25 24h62q18 0 25 -24l99 -326l88 326q6 24 25 24h69z" />
    <glyph glyph-name="Ygrave" unicode="&#x1ef2;" horiz-adv-x="618" 
d="M255 766l-79 113q-4 4 -4 10q0 11 12 11h80q16 0 24 -15l54 -106q6 -9 6 -13q0 -10 -11 -10h-64q-11 0 -18 10zM582 700q16 0 16 -17q0 -7 -11 -26l-225 -379v-255q0 -10 -7 -16.5t-17 -6.5h-61q-10 0 -16.5 6.5t-6.5 16.5v256l-223 379q-1 2 -4 7t-5 9.5t-2 8.5
q0 17 17 17h79q12 0 19 -14l176 -307l176 308q9 13 20 13h75z" />
    <glyph glyph-name="ygrave" unicode="&#x1ef3;" horiz-adv-x="499" 
d="M196 566l-80 113q-4 6 -4 10q0 11 13 11h80q17 0 23 -15l55 -106q5 -7 5 -13q0 -10 -11 -10h-64q-10 0 -17 10zM469 500q16 0 16 -17q0 -7 -6 -21l-192 -497q-18 -48 -30.5 -73t-33 -49t-49.5 -33.5t-72 -9.5h-44q-10 0 -16.5 6.5t-6.5 16.5v52q0 10 6.5 16.5t16.5 6.5
h37q40 0 59 16.5t31 48.5l15 41l-175 450q-9 27 -9 29q0 17 17 17h70q17 0 24 -21l128 -345l121 346q6 20 23 20h70z" />
    <glyph glyph-name="endash" unicode="&#x2013;" horiz-adv-x="500" 
d="M451 273q0 -10 -6.5 -16.5t-16.5 -6.5h-356q-10 0 -16.5 6.5t-6.5 16.5v56q0 10 6.5 17t16.5 7h356q10 0 16.5 -7t6.5 -17v-56z" />
    <glyph glyph-name="emdash" unicode="&#x2014;" horiz-adv-x="1000" 
d="M951 273q0 -10 -6.5 -16.5t-16.5 -6.5h-856q-10 0 -16.5 6.5t-6.5 16.5v56q0 10 6.5 17t16.5 7h856q10 0 16.5 -7t6.5 -17v-56z" />
    <glyph glyph-name="quoteleft" unicode="&#x2018;" horiz-adv-x="248" 
d="M122 406q-74 0 -74 96q0 52 17 93.5t40.5 63t44 32t32.5 10.5q9 0 9 -12v-44q0 -9 -2.5 -12.5t-11.5 -8.5q-38 -22 -46 -78q29 -4 45.5 -22.5t16.5 -47.5q0 -31 -19.5 -50.5t-51.5 -19.5z" />
    <glyph glyph-name="quoteright" unicode="&#x2019;" horiz-adv-x="248" 
d="M126 702q74 0 74 -96q0 -52 -17 -93.5t-40.5 -63t-44 -32.5t-32.5 -11q-9 0 -9 13v43q0 9 2.5 13t11.5 9q38 21 45 77q-28 4 -44.5 23t-16.5 48q0 31 20 50.5t51 19.5z" />
    <glyph glyph-name="quotesinglbase" unicode="&#x201a;" horiz-adv-x="247" 
d="M124 133q74 0 74 -96q0 -52 -17 -93.5t-40.5 -63t-44 -32.5t-32.5 -11q-9 0 -9 13v43q0 9 2.5 13t11.5 9q24 14 33 32t12 46q-28 3 -44.5 22t-16.5 48q0 31 20 50.5t51 19.5z" />
    <glyph glyph-name="quotedblleft" unicode="&#x201c;" horiz-adv-x="454" 
d="M122 406q-74 0 -74 96q0 52 17 93.5t40.5 63t44 32t32.5 10.5q9 0 9 -12v-44q0 -9 -2.5 -12.5t-11.5 -8.5q-38 -22 -46 -78q29 -4 45.5 -22.5t16.5 -47.5q0 -31 -19.5 -50.5t-51.5 -19.5zM329 406q-74 0 -74 96q0 52 16.5 93.5t40.5 63t44 32t32 10.5q10 0 10 -12v-44
q0 -13 -14 -21q-24 -14 -33.5 -32t-12.5 -46q28 -4 44.5 -22.5t16.5 -47.5q0 -32 -19.5 -51t-50.5 -19z" />
    <glyph glyph-name="quotedblright" unicode="&#x201d;" horiz-adv-x="454" 
d="M123 702q74 0 74 -96q0 -52 -17 -93.5t-40.5 -63t-44 -32.5t-32.5 -11q-9 0 -9 13v43q0 9 2.5 13t11.5 9q38 21 45 77q-28 4 -44.5 23t-16.5 48q0 31 20 50.5t51 19.5zM329 702q74 0 74 -96q0 -52 -17 -93.5t-40.5 -63t-43.5 -32.5t-32 -11q-10 0 -10 13v43q0 14 14 22
q39 21 46 77q-28 4 -44.5 23t-16.5 48q0 31 19.5 50.5t50.5 19.5z" />
    <glyph glyph-name="quotedblbase" unicode="&#x201e;" horiz-adv-x="452" 
d="M121 133q74 0 74 -96q0 -52 -17 -93.5t-40.5 -63t-44 -32.5t-32.5 -11q-9 0 -9 13v43q0 9 2.5 13t11.5 9q24 14 33 32t12 46q-28 3 -44.5 22t-16.5 48q0 31 20 50.5t51 19.5zM327 133q74 0 74 -96q0 -52 -17 -93.5t-40.5 -63t-43.5 -32.5t-32 -11q-10 0 -10 13v43
q0 14 15 22q24 14 33 32t12 46q-28 3 -44.5 22t-16.5 48q0 31 19.5 50.5t50.5 19.5z" />
    <glyph glyph-name="dagger" unicode="&#x2020;" horiz-adv-x="458" 
d="M408 533q10 0 16.5 -6.5t6.5 -16.5v-51q0 -10 -6.5 -16.5t-16.5 -6.5h-126v-413q0 -10 -7 -16.5t-17 -6.5h-59q-10 0 -16.5 6.5t-6.5 16.5v413h-127q-10 0 -16.5 6.5t-6.5 16.5v51q0 10 6.5 16.5t16.5 6.5h127v143q0 10 6.5 17t16.5 7h59q10 0 17 -7t7 -17v-143h126z" />
    <glyph glyph-name="daggerdbl" unicode="&#x2021;" horiz-adv-x="470" 
d="M414 443h-126v-179h126q10 0 17 -7t7 -17v-49q0 -10 -7 -16.5t-17 -6.5h-126v-145q0 -10 -7 -16.5t-17 -6.5h-59q-10 0 -16.5 6.5t-6.5 16.5v145h-127q-10 0 -16.5 6.5t-6.5 16.5v49q0 10 6.5 17t16.5 7h127v179h-127q-10 0 -16.5 7t-6.5 17v49q0 10 6.5 16.5t16.5 6.5
h127v137q0 10 6.5 17t16.5 7h59q10 0 17 -7t7 -17v-137h126q10 0 17 -6.5t7 -16.5v-49q0 -10 -7 -17t-17 -7z" />
    <glyph glyph-name="bullet" unicode="&#x2022;" horiz-adv-x="265" 
d="M133 385q41 0 66.5 -25.5t25.5 -65.5q0 -41 -25.5 -66.5t-66.5 -25.5t-66.5 25.5t-25.5 66.5t25.5 66t66.5 25z" />
    <glyph glyph-name="ellipsis" unicode="&#x2026;" horiz-adv-x="709" 
d="M124 133q32 0 51.5 -19.5t19.5 -51.5q0 -31 -19.5 -50.5t-51.5 -19.5t-51.5 19.5t-19.5 50.5q0 32 19.5 51.5t51.5 19.5zM354 133q32 0 51.5 -19.5t19.5 -51.5q0 -31 -19.5 -50.5t-51.5 -19.5t-51 19t-19 51t19.5 51.5t50.5 19.5zM585 133q31 0 51 -19.5t20 -51.5
q0 -31 -19.5 -50.5t-51.5 -19.5t-51.5 19.5t-19.5 50.5q0 32 20 51.5t51 19.5z" />
    <glyph glyph-name="perthousand" unicode="&#x2030;" horiz-adv-x="1202" 
d="M34 538q0 83 44.5 126.5t116.5 43.5t116 -43.5t44 -126.5v-27q0 -82 -44 -125.5t-117 -43.5q-71 0 -115.5 43.5t-44.5 125.5v27zM210 0q-16 0 -16 16q0 8 5 19l358 650q7 15 22 15h55q16 0 16 -17q0 -5 -6 -19l-354 -645q-8 -19 -24 -19h-56zM121 512q0 -90 73 -90
q74 0 74 90v26q0 91 -73 91q-74 0 -74 -91v-26zM491 188q0 82 44 126t116 44t116.5 -44t44.5 -126v-27q0 -82 -44.5 -125.5t-116.5 -43.5t-116 43t-44 126v27zM866 188q0 82 44.5 126t116.5 44t116.5 -44t44.5 -126v-27q0 -82 -44.5 -125.5t-116.5 -43.5t-116.5 43.5
t-44.5 125.5v27zM578 161q0 -90 73 -90q74 0 74 90v27q0 90 -74 90q-73 0 -73 -90v-27zM954 161q0 -90 73 -90q74 0 74 90v27q0 90 -74 90q-73 0 -73 -90v-27z" />
    <glyph glyph-name="guilsinglleft" unicode="&#x2039;" horiz-adv-x="330" 
d="M281 371q0 -11 -9 -17l-143 -94l143 -92q9 -6 9 -18v-82q0 -11 -10 -11q-4 0 -12 5l-210 139q-14 9 -14 24v66q0 15 14 24l211 139q6 4 11 4q10 0 10 -10v-77z" />
    <glyph glyph-name="guilsinglright" unicode="&#x203a;" horiz-adv-x="330" 
d="M281 314q14 -9 14 -25v-65q0 -15 -14 -24l-211 -139q-8 -5 -11 -5q-10 0 -10 11v77q0 11 9 17l143 94l-143 92q-9 6 -9 18v82q0 11 10 11q4 0 12 -5z" />
    <glyph glyph-name="fraction" unicode="&#x2044;" horiz-adv-x="147" 
d="M-138 0q-17 0 -17 16q0 6 6 19l357 650q8 15 23 15h55q16 0 16 -17q0 -5 -6 -19l-355 -645q-8 -19 -24 -19h-55z" />
    <glyph glyph-name="uni2070" unicode="&#x2070;" horiz-adv-x="400" 
d="M33 529q0 83 41.5 130t124.5 47q85 0 126.5 -47t41.5 -130v-72q0 -83 -41.5 -130t-125.5 -47t-125.5 47t-41.5 130v72zM124 454q0 -45 17 -68t59 -23t59.5 23t17.5 68v76q0 91 -78 91q-41 0 -58 -23t-17 -68v-76z" />
    <glyph glyph-name="uni2074" unicode="&#x2074;" horiz-adv-x="400" 
d="M384 387q0 -8 -6 -14t-14 -6h-53v-62q0 -8 -6 -13.5t-15 -5.5h-45q-9 0 -15 5.5t-6 13.5v62h-187q-9 0 -15 6t-6 14v40q0 17 9 29l169 224q15 20 31 20h65q9 0 15 -6t6 -14v-239h53q8 0 14 -5.5t6 -13.5v-35zM228 605l-121 -164h121v164z" />
    <glyph glyph-name="Euro" unicode="&#x20ac;" horiz-adv-x="664" 
d="M601 242q7 0 12 -5.5t4 -12.5q-6 -96 -77 -165t-180 -69q-106 0 -179.5 67t-84.5 177h-73q-10 0 -16.5 6.5t-6.5 16.5v29q0 10 6.5 17t16.5 7h71v76h-71q-10 0 -16.5 6.5t-6.5 16.5v29q0 10 6.5 16.5t16.5 6.5h73q13 109 86 174t178 65q109 0 178 -66t78 -162
q2 -20 -18 -20h-74q-15 0 -18 20q-9 54 -46.5 90.5t-99.5 36.5q-58 0 -100.5 -36.5t-54.5 -101.5h171q8 0 13.5 -5.5t5.5 -13.5v-37q0 -8 -5.5 -13.5t-13.5 -5.5h-175v-76h175q8 0 13.5 -6t5.5 -13v-38q0 -8 -5.5 -13.5t-13.5 -5.5h-172q10 -67 53.5 -105t102.5 -38
q63 0 101.5 36.5t44.5 93.5q4 21 19 21h76z" />
    <glyph glyph-name="uni20B9" unicode="&#x20b9;" horiz-adv-x="561" 
d="M551 643q0 -8 -6 -13.5t-13 -5.5h-122q37 -37 46 -91h76q7 0 13 -6t6 -13v-38q0 -7 -6 -13t-13 -6h-73q-6 -135 -137 -174l130 -246q7 -14 7 -21q0 -16 -16 -16h-77q-16 0 -25 19l-131 258h-145q-10 0 -16.5 6.5t-6.5 16.5v42q0 10 6.5 17t16.5 7h171q44 0 75 23t39 68
h-287q-10 0 -17 6.5t-7 16.5v30q0 10 7 16.5t17 6.5h287q-16 91 -114 91h-174q-10 0 -17 6.5t-7 16.5v29q0 10 7 17t17 7h182h288q7 0 13 -6t6 -13v-38z" />
    <glyph glyph-name="uni2113" unicode="&#x2113;" horiz-adv-x="450" 
d="M369 118q10 4 17.5 -2.5t7.5 -20.5v-32q0 -22 -21 -34q-50 -29 -111 -29q-174 0 -174 187v14l-61 -12q-8 -2 -13.5 4.5t-5.5 17.5v45q0 19 23 23l57 12v238q0 79 41 127.5t118 48.5t123.5 -54.5t46.5 -164.5q0 -216 -227 -265v-36q0 -46 20 -66.5t61 -20.5q48 0 98 20z
M249 615q-59 0 -59 -81v-221q59 15 92.5 52.5t33.5 120.5q0 71 -17 100t-50 29z" />
    <glyph glyph-name="trademark" unicode="&#x2122;" horiz-adv-x="604" 
d="M224 700q12 0 12 -11v-40q0 -10 -12 -10h-68v-219q0 -12 -10 -12h-48q-11 0 -11 12v219h-67q-11 0 -11 10v40q0 11 11 11h204zM563 700q11 0 11 -13v-267q0 -12 -11 -12h-42q-9 0 -9 12v199l-60 -203q-2 -8 -9 -8h-36q-7 0 -11 8l-59 203v-199q0 -12 -12 -12h-41
q-10 0 -10 12v267q0 13 11 13h72q14 0 18 -14l50 -165l50 165q4 14 18 14h70z" />
    <glyph glyph-name="uni2126" unicode="&#x2126;" horiz-adv-x="666" 
d="M629 97q10 0 16.5 -6.5t6.5 -16.5v-51q0 -10 -6.5 -16.5t-16.5 -6.5h-226q-10 0 -17 6.5t-7 16.5v46q0 17 24 28q49 29 69 73.5t20 131.5v125q0 84 -46 133t-114 49t-113 -49t-45 -133v-125q0 -87 19.5 -131.5t70.5 -73.5q23 -11 23 -28v-46q0 -10 -6.5 -16.5t-16.5 -6.5
h-227q-10 0 -16.5 6.5t-6.5 16.5v51q0 10 6.5 16.5t16.5 6.5h103q-74 60 -74 205v126q0 126 75.5 204t190.5 78q116 0 192 -78t76 -204v-126q0 -145 -74 -205h103z" />
    <glyph glyph-name="estimated" unicode="&#x212e;" horiz-adv-x="780" 
d="M167 305q-5 0 -5 -4v-176q0 -12 8 -20q91 -96 221 -96q138 0 232 107h52q-50 -58 -125 -92t-160 -34q-149 0 -254.5 95t-105.5 229t105.5 229t254.5 95t254.5 -95t105.5 -229v-9h-583zM618 506q0 12 -9 21q-92 92 -218 92q-128 0 -220 -95q-9 -9 -9 -22v-174q0 -5 5 -5
h447q4 0 4 5v178z" />
    <glyph glyph-name="partialdiff" unicode="&#x2202;" horiz-adv-x="520" 
d="M409 447q35 -58 50.5 -101t15.5 -91v-38q0 -103 -61.5 -165t-153.5 -62q-93 0 -154 62t-61 165v20q0 98 60 159.5t160 61.5q16 0 24 -1l-139 214q-7 11 -3.5 20t14.5 9h73q15 0 25 -16zM367 205v38q0 59 -29.5 91.5t-77.5 32.5t-78 -33t-30 -91v-38q0 -58 30 -90.5
t78 -32.5t77.5 32.5t29.5 90.5z" />
    <glyph glyph-name="uni2206" unicode="&#x2206;" horiz-adv-x="653" 
d="M623 37q6 -12 6 -21q0 -16 -17 -16h-73h-453h-45q-17 0 -17 16q0 4 6 20l232 646q7 18 23 18h83q16 0 23 -18zM325 575l-166 -478h331z" />
    <glyph glyph-name="product" unicode="&#x220f;" horiz-adv-x="668" 
d="M638 700q10 0 16.5 -7t6.5 -17v-54q0 -10 -6.5 -16.5t-16.5 -6.5h-70v-715q0 -10 -7 -16.5t-17 -6.5h-60q-10 0 -17 6.5t-7 16.5v715h-250v-715q0 -10 -7 -16.5t-17 -6.5h-61q-10 0 -16.5 6.5t-6.5 16.5v715h-73q-10 0 -16.5 6.5t-6.5 16.5v54q0 10 6.5 17t16.5 7h609z
" />
    <glyph glyph-name="summation" unicode="&#x2211;" horiz-adv-x="515" 
d="M499 628q0 -10 -6.5 -16.5t-16.5 -6.5h-338l268 -266q12 -12 12 -33v-23q0 -19 -13 -33l-269 -288h340q10 0 16.5 -7t6.5 -17v-54q0 -10 -6.5 -16.5t-16.5 -6.5h-431q-10 0 -16.5 6.5t-6.5 16.5v74q0 19 14 35l277 295l-277 276q-14 15 -14 33v79q0 10 6.5 17t16.5 7h431
q10 0 16.5 -7t6.5 -17v-48z" />
    <glyph glyph-name="minus" unicode="&#x2212;" horiz-adv-x="612" 
d="M84 401q-10 0 -16.5 -7t-6.5 -17v-54q0 -10 6.5 -16.5t16.5 -6.5h443q10 0 17 6.5t7 16.5v54q0 10 -7 17t-17 7h-443z" />
    <glyph glyph-name="uni2215" unicode="&#x2215;" horiz-adv-x="48" 
d="M-138 0q-17 0 -17 16q0 6 6 19l357 650q8 15 23 15h55q16 0 16 -17q0 -5 -6 -19l-355 -645q-8 -19 -24 -19h-55z" />
    <glyph glyph-name="radical" unicode="&#x221a;" horiz-adv-x="589" 
d="M245 0q-16 0 -22 14l-154 397h-70q-10 0 -16.5 7t-6.5 17v41q0 10 6.5 17t16.5 7h130q17 0 23 -14l128 -357l199 557q5 14 21 14h73q16 0 16 -17q0 -3 -2.5 -11t-2.5 -9l-250 -649q-7 -14 -22 -14h-67z" />
    <glyph glyph-name="infinity" unicode="&#x221e;" horiz-adv-x="864" 
d="M630 571q92 0 144 -55.5t52 -155.5v-19q0 -101 -52 -156.5t-144 -55.5q-67 0 -113.5 35t-86.5 103q-39 -68 -85 -103t-111 -35q-92 0 -144 55.5t-52 155.5v19q0 101 52 156.5t143 55.5q67 0 112.5 -33t87.5 -104q43 71 87 104t110 33zM360 319l15 31l-13 27
q-33 58 -62 80.5t-67 22.5t-63 -30.5t-25 -83.5v-32q0 -53 25 -83.5t64 -30.5q38 0 66 21t60 78zM718 334v32q0 53 -24.5 83.5t-63.5 30.5q-38 0 -67 -22.5t-62 -80.5l-13 -27l16 -31q32 -57 60 -78t66 -21q39 0 63.5 30.5t24.5 83.5z" />
    <glyph glyph-name="integral" unicode="&#x222b;" horiz-adv-x="323" 
d="M206 4q0 -116 -51 -160t-147 -44q-10 0 -17 7t-7 17v50q0 10 7 17t17 7q52 0 71 22t19 84v492q0 116 51 160t147 44q10 0 16.5 -7t6.5 -17v-50q0 -10 -6.5 -17t-16.5 -7q-53 0 -71.5 -21.5t-18.5 -84.5v-492z" />
    <glyph glyph-name="approxequal" unicode="&#x2248;" horiz-adv-x="612" 
d="M89 413q-9 -1 -15.5 5t-6.5 14v55q0 15 17 23q57 25 106 25q46 0 115 -27t109 -27q25 0 45 5.5t37.5 13.5t27.5 11q8 1 14.5 -6t6.5 -16v-51q0 -11 -5.5 -16.5t-18.5 -12.5q-54 -26 -107 -26q-49 0 -120 28.5t-104 28.5q-23 0 -40.5 -4.5t-34.5 -12.5t-26 -10zM89 185
q-9 -1 -15.5 5t-6.5 14v55q0 15 17 23q57 25 106 25q46 0 115 -27t109 -27q25 0 45 5.5t37.5 13.5t27.5 11q8 1 14.5 -6t6.5 -16v-51q0 -18 -24 -29q-50 -26 -107 -26q-49 0 -120 28.5t-104 28.5q-23 0 -40.5 -4.5t-34.5 -12.5t-26 -10z" />
    <glyph glyph-name="notequal" unicode="&#x2260;" horiz-adv-x="612" 
d="M527 418h-135l-70 -139h205q10 0 17 -7t7 -17v-54q0 -10 -7 -16.5t-17 -6.5h-255l-48 -97q-8 -15 -25 -15h-57q-23 0 -10 29l42 83h-90q-10 0 -16.5 6.5t-6.5 16.5v54q0 10 6.5 17t16.5 7h140l69 139h-209q-10 0 -16.5 6.5t-6.5 16.5v54q0 10 6.5 17t16.5 7h259l46 93
q7 15 25 15h57q24 0 11 -29l-40 -79h85q10 0 17 -7t7 -17v-54q0 -10 -7 -16.5t-17 -6.5z" />
    <glyph glyph-name="lessequal" unicode="&#x2264;" horiz-adv-x="538" 
d="M485 568q0 -12 -15 -19l-287 -133l288 -125q14 -6 14 -20v-75q0 -16 -17 -16q-5 0 -15 5l-395 179q-13 4 -13 18v63q0 14 12 19l401 189q8 4 10 4q17 0 17 -17v-72zM460 98q10 0 17 -7t7 -17v-51q0 -10 -7 -16.5t-17 -6.5h-393q-10 0 -16.5 6.5t-6.5 16.5v51q0 10 6.5 17
t16.5 7h393z" />
    <glyph glyph-name="greaterequal" unicode="&#x2265;" horiz-adv-x="538" 
d="M69 180q-16 0 -16 16v75q0 14 14 20l287 125l-287 133q-14 7 -14 19v72q0 17 16 17q3 0 11 -4l401 -189q12 -5 12 -19v-63q0 -14 -13 -18l-395 -179q-13 -5 -16 -5zM470 98q10 0 17 -7t7 -17v-51q0 -10 -7 -16.5t-17 -6.5h-393q-10 0 -16.5 6.5t-6.5 16.5v51q0 10 6.5 17
t16.5 7h393z" />
    <glyph glyph-name="lozenge" unicode="&#x25ca;" horiz-adv-x="580" 
d="M233 14l-205 315q-5 9 -5 16t5 16l211 325q8 14 20 14h64q9 0 18 -15l210 -324q5 -8 5 -16q0 -7 -5 -15l-204 -315q0 -1 -3 -5t-4 -5.5t-4 -3t-7 -1.5h-76q-10 0 -20 14zM290 105l157 240l-157 249l-157 -249z" />
    <glyph glyph-name="i.dot" unicode="&#xe166;" horiz-adv-x="251" 
d="M125 706q29 0 47.5 -18t18.5 -47t-18.5 -47t-47.5 -18t-47 18t-18 47t18 47t47 18zM95 0q-10 0 -16.5 6.5t-6.5 16.5v453q0 10 6.5 17t16.5 7h61q10 0 16.5 -7t6.5 -17v-453q0 -10 -6.5 -16.5t-16.5 -6.5h-61z" />
    <glyph glyph-name="caron.alt" unicode="&#xe189;" horiz-adv-x="212" 
d="M76 458q-10 0 -16.5 6.5t-6.5 16.5v195q0 10 6.5 17t16.5 7h59q10 0 17.5 -7t6.5 -17l-28 -195q-4 -23 -24 -23h-31z" />
    <glyph glyph-name="uniE18A" unicode="&#xe18a;" horiz-adv-x="381" 
d="M205 565q-54 0 -54 73q0 40 12.5 72.5t30 48.5t32.5 24.5t24 8.5q6 0 6 -9v-36q0 -10 -9 -15q-34 -24 -37 -62q47 -6 47 -53q0 -22 -14.5 -37t-37.5 -15z" />
    <glyph glyph-name="uniF6C3" unicode="&#xf6c3;" horiz-adv-x="0" 
d="M-191 -55q54 0 54 -73q0 -40 -12.5 -72.5t-30 -48.5t-32.5 -24.5t-24 -8.5q-6 0 -6 9v37q0 9 9 15q35 25 36 62q-46 5 -46 52q0 23 14.5 37.5t37.5 14.5z" />
    <glyph glyph-name="CR" horiz-adv-x="0" 
 />
    </font>
</defs>
</svg>
